<svg width="17" height="20" viewBox="0 0 17 20" fill="none" xmlns="http://www.w3.org/2000/svg">
<path d="M7.22272 20C6.17344 19.9723 5.14079 19.7313 4.18766 19.2916C3.23454 18.8519 2.38089 18.2229 1.67872 17.4427C0.966007 16.7339 0.453641 15.8491 0.193691 14.8781C-0.066258 13.9072 -0.0645234 12.8847 0.198718 11.9147C0.438188 10.9514 0.796491 10.0216 1.26539 9.14667C1.73885 8.30165 2.04998 7.37548 2.18272 6.416L2.39339 3.09067L3.95605 6.072C4.09543 6.34146 4.21573 6.62036 4.31605 6.90667C5.09205 5.16267 4.82805 3.58933 4.58272 2.168C4.54539 1.94667 4.51072 1.73333 4.47872 1.52533L4.27872 0L5.75072 0.517333C5.89472 0.573333 8.87605 1.808 10.6494 5.69067C10.6974 5.35467 10.7187 5.048 10.7294 4.85067L10.6014 2.384L12.6654 3.94667C13.6094 4.66667 16.2867 7.77333 16.6014 11.4267C16.7058 12.5295 16.5635 13.6417 16.1848 14.6827C15.8061 15.7236 15.2006 16.6673 14.4121 17.4453C13.6956 18.2287 12.8279 18.8589 11.8614 19.298C10.8948 19.737 9.84938 19.9758 8.78805 20H7.22272Z" fill="#FF9933"/>
</svg>
