<svg id="Layer_1" data-name="Layer 1" xmlns="http://www.w3.org/2000/svg" width="22" height="25" viewBox="0 0 80 80" fill="none">
<defs><style>.cls-1{fill:#FF9933;}</style></defs>
<path class="cls-1" d="M35.9,78a29,29,0,0,1-20.79-9.59A21.35,21.35,0,0,1,9.56,47.68a44.91,44.91,0,0,1,4-10.38A29.11,29.11,0,0,0,17,27.06l.79-12.47,5.86,11.18A24.31,24.31,0,0,1,25,28.9c2.91-6.54,1.92-12.44,1-17.77-.14-.83-.27-1.63-.39-2.41L24.86,3l5.52,1.94c.54.21,11.72,4.84,18.37,19.4.18-1.26.26-2.41.3-3.15l-.48-9.25,7.74,5.86c3.54,2.7,13.58,14.35,14.76,28.05h0a28,28,0,0,1-8.21,22.57A29.49,29.49,0,0,1,41.77,78ZM40,73.38h1.71a24.81,24.81,0,0,0,17.77-8.1l.11-.11a23.46,23.46,0,0,0,6.88-18.93c-1-11.89-10.08-22.44-12.81-24.66-.24,3.58-.8,8-2.91,11L48,36.38l-1.37-4.51A40.81,40.81,0,0,0,40,18.73Z"/>
</svg>