<svg width="17" height="20" viewBox="0 0 17 20" fill="none" xmlns="http://www.w3.org/2000/svg">
<path d="M7.22272 20C6.17344 19.9723 5.14079 19.7313 4.18766 19.2916C3.23454 18.8519 2.38089 18.2229 1.67872 17.4427C0.966007 16.7339 0.453641 15.8491 0.193691 14.8781C-0.066258 13.9072 -0.0645234 12.8847 0.198718 11.9147C0.438188 10.9514 0.796491 10.0216 1.26539 9.14667C1.73885 8.30165 2.04998 7.37548 2.18272 6.416L2.39339 3.09067L3.95605 6.072C4.09543 6.34146 4.21573 6.62036 4.31605 6.90667C5.09205 5.16267 4.82805 3.58933 4.58272 2.168C4.54539 1.94667 4.51072 1.73333 4.47872 1.52533L4.27872 0L5.75072 0.517333C5.89472 0.573333 8.87605 1.808 10.6494 5.69067C10.6974 5.35467 10.7187 5.048 10.7294 4.85067L10.6014 2.384L12.6654 3.94667C13.6094 4.66667 16.2867 7.77333 16.6014 11.4267C16.7058 12.5295 16.5635 13.6417 16.1848 14.6827C15.8061 15.7236 15.2006 16.6673 14.4121 17.4453C13.6956 18.2287 12.8279 18.8589 11.8614 19.298C10.8948 19.737 9.84938 19.9758 8.78805 20H7.22272ZM3.22272 7.488C3.03587 8.27602 2.73872 9.03372 2.34005 9.73867C1.91976 10.5217 1.5982 11.3538 1.38272 12.216C1.17225 12.982 1.16924 13.7902 1.37402 14.5578C1.57879 15.3253 1.98398 16.0246 2.54805 16.584L2.57205 16.608C3.16347 17.2676 3.88342 17.7994 4.68773 18.1709C5.49203 18.5423 6.36374 18.7455 7.24939 18.768H8.78272C9.67762 18.7473 10.559 18.5451 11.3735 18.1739C12.188 17.8026 12.9187 17.2699 13.5214 16.608L13.5507 16.5787C14.2122 15.9263 14.72 15.1347 15.0374 14.2616C15.3547 13.3884 15.4736 12.4555 15.3854 11.5307C15.1187 8.36 12.6974 5.54667 11.9694 4.95467C11.9054 5.90933 11.7561 7.088 11.1934 7.888L10.4494 8.90133L10.0841 7.69867C9.01739 4.184 6.80405 2.52267 5.79872 1.928V1.96267C6.11605 3.86667 6.51072 6.22933 4.55072 8.912L3.59605 10.216L3.44139 8.616C3.41094 8.233 3.33759 7.85463 3.22272 7.488Z" fill="#FF9933"/>
</svg>
