<svg width="50" height="42" viewBox="0 0 50 42" fill="none" xmlns="http://www.w3.org/2000/svg">
<path d="M40.1059 34.2191C39.4836 34.1824 38.8988 33.9094 38.4711 33.4558C38.0435 33.0023 37.8053 32.4025 37.8053 31.7791C37.8053 31.1557 38.0435 30.5559 38.4711 30.1024C38.8988 29.6488 39.4836 29.3757 40.1059 29.3391C41.1485 29.3375 42.1646 29.0098 43.0118 28.402C43.859 27.7942 44.4949 26.9367 44.8305 25.9495C45.1661 24.9623 45.1846 23.8948 44.8833 22.8966C44.5821 21.8984 43.9762 21.0194 43.1505 20.3826C42.7765 20.089 42.497 19.6921 42.3467 19.241C42.1963 18.7899 42.1818 18.3047 42.3048 17.8454C42.644 16.5119 42.5843 15.1082 42.1331 13.8084C41.682 12.5085 40.8592 11.3697 39.7669 10.5331C38.6745 9.69649 37.3606 9.19893 35.9881 9.1021C34.6156 9.00527 33.2448 9.31344 32.0458 9.98839C31.5307 10.2792 30.9274 10.3726 30.3485 10.2513C29.7696 10.1299 29.2546 9.80195 28.8997 9.32871C27.4765 7.45454 25.5017 6.07352 23.2529 5.37982C21.0042 4.68612 18.5946 4.71463 16.3629 5.46133C14.1312 6.20803 12.1896 7.63538 10.8111 9.5427C9.43264 11.45 8.68659 13.7414 8.67784 16.0947C8.67976 16.5583 8.708 17.0214 8.76242 17.4817C8.81653 17.9645 8.72555 18.4524 8.50109 18.8833C8.27664 19.3141 7.9289 19.6683 7.50225 19.9006C6.52335 20.4293 5.74882 21.2695 5.30134 22.2881C4.85386 23.3067 4.75903 24.4455 5.03183 25.5241C5.30464 26.6027 5.92949 27.5594 6.80744 28.2428C7.6854 28.9262 8.76624 29.2971 9.8788 29.2968C10.5011 29.3335 11.0859 29.6065 11.5135 30.0601C11.9411 30.5136 12.1793 31.1134 12.1793 31.7368C12.1793 32.3602 11.9411 32.96 11.5135 33.4135C11.0859 33.8671 10.5011 34.1401 9.8788 34.1768C7.82129 34.1751 5.81556 33.5316 4.14115 32.3359C2.46674 31.1402 1.20709 29.4518 0.537764 27.5062C-0.131561 25.5606 -0.177221 23.4547 0.407165 21.4819C0.991551 19.5091 2.17687 17.7678 3.79789 16.5007C3.79789 16.3653 3.79789 16.23 3.79789 16.0947C3.8135 11.8295 5.51534 7.74356 8.53211 4.72837C11.5489 1.71319 15.6357 0.0134851 19.9009 0.000115071C22.0615 -0.00808073 24.2014 0.421608 26.1914 1.26324C28.1813 2.10487 29.9802 3.34098 31.4792 4.89699C32.759 4.44617 34.1058 4.21457 35.4627 4.21194C38.624 4.21641 41.6546 5.47423 43.89 7.70964C46.1254 9.94505 47.3833 12.9756 47.3877 16.137C47.3891 16.6119 47.3608 17.0864 47.3031 17.5578C48.6286 18.9612 49.5139 20.7222 49.8495 22.6232C50.1852 24.5241 49.9565 26.4818 49.1917 28.2542C48.427 30.0266 47.1597 31.5362 45.5464 32.5963C43.9332 33.6563 42.0447 34.2205 40.1143 34.2191H40.1059Z" fill="#EEAFB4"/>
<path d="M15.8831 29.1085C16.0159 29.4081 16.2328 29.6628 16.5076 29.8414C16.7823 30.0201 17.1031 30.1151 17.4308 30.1149H22.4377V39.3505C22.4377 40.0234 22.705 40.6687 23.1808 41.1446C23.6566 41.6204 24.302 41.8877 24.9749 41.8877C25.6478 41.8877 26.2932 41.6204 26.769 41.1446C27.2448 40.6687 27.5121 40.0234 27.5121 39.3505V30.1149H32.519C32.8482 30.1172 33.1709 30.0235 33.4476 29.8452C33.7243 29.6668 33.9429 29.4116 34.0767 29.1108C34.2105 28.8101 34.2536 28.4768 34.2007 28.1519C34.1479 27.8269 34.0014 27.5245 33.7791 27.2816L26.2351 18.9256C26.0763 18.7457 25.8811 18.6015 25.6624 18.5028C25.4437 18.404 25.2064 18.353 24.9664 18.353C24.7265 18.353 24.4892 18.404 24.2705 18.5028C24.0518 18.6015 23.8566 18.7457 23.6978 18.9256L16.1538 27.2816C15.9365 27.5272 15.7952 27.8305 15.7471 28.1548C15.6991 28.4792 15.7463 28.8105 15.8831 29.1085Z" fill="#EEAFB4"/>
</svg>
