<svg width="12" height="12" viewBox="0 0 12 12" fill="none" xmlns="http://www.w3.org/2000/svg">
<g clip-path="url(#clip0_3522_1474)">
<path d="M6 0C2.69147 0 0 2.69147 0 6C0 9.30853 2.69147 12 6 12C9.30853 12 12 9.30853 12 6C12 2.69147 9.30853 0 6 0Z" fill="#F44336"/>
<path d="M8.2102 7.50216C8.40566 7.69772 8.40566 8.01366 8.2102 8.20922C8.11269 8.30672 7.9847 8.35571 7.85662 8.35571C7.72863 8.35571 7.60064 8.30672 7.50314 8.20922L6.00066 6.70666L4.49819 8.20922C4.40069 8.30672 4.2727 8.35571 4.14471 8.35571C4.01662 8.35571 3.88863 8.30672 3.79113 8.20922C3.59566 8.01366 3.59566 7.69772 3.79113 7.50216L5.29369 5.99969L3.79113 4.49722C3.59566 4.30166 3.59566 3.98571 3.79113 3.79015C3.98669 3.59469 4.30264 3.59469 4.49819 3.79015L6.00066 5.29272L7.50314 3.79015C7.69869 3.59469 8.01464 3.59469 8.2102 3.79015C8.40566 3.98571 8.40566 4.30166 8.2102 4.49722L6.70763 5.99969L8.2102 7.50216Z" fill="#FAFAFA"/>
</g>
<defs>
<clipPath id="clip0_3522_1474">
<rect width="12" height="12" fill="white"/>
</clipPath>
</defs>
</svg>
