<svg width="20" height="21" viewBox="0 0 20 21" fill="none" xmlns="http://www.w3.org/2000/svg">
<path d="M19.5436 17.1677L14.6421 12.2412C15.336 11.0518 15.6987 9.69821 15.6924 8.32119C15.6883 6.59463 15.1153 4.91755 14.062 3.54947C13.0088 2.18139 11.534 1.19858 9.86586 0.753139C8.19774 0.307697 6.42932 0.424453 4.83425 1.08534C3.23918 1.74622 1.90639 2.91439 1.04213 4.40908C0.177865 5.90376 -0.169684 7.64162 0.053262 9.35373C0.276208 11.0658 1.05722 12.6567 2.27544 13.8802C3.49365 15.1038 5.08116 15.8916 6.79228 16.122C8.50341 16.3524 10.2428 16.0124 11.7412 15.1546L16.674 20.0811C16.8136 20.2173 16.9789 20.3245 17.1603 20.3964C17.3417 20.4683 17.5355 20.5035 17.7305 20.5C18.3206 20.4738 18.877 20.2181 19.281 19.7873C19.66 19.4726 19.9 19.0215 19.9492 18.5313C19.9983 18.0411 19.8526 17.5513 19.5436 17.1677ZM11.6912 13.4728C10.3812 14.53 8.71883 15.0506 7.03984 14.9296C5.36085 14.8087 3.79033 14.055 2.64545 12.821C1.50057 11.5869 0.866646 9.96439 0.871697 8.28106C0.876748 6.59772 1.5204 4.97902 2.67266 3.75186C3.82493 2.5247 5.39994 1.78052 7.07963 1.66961C8.75931 1.5587 10.4185 2.08933 11.7221 3.15433C13.0257 4.21933 13.8766 5.73935 14.103 7.4074C14.3293 9.07546 13.9142 10.7673 12.9415 12.1411C12.5668 12.645 12.1227 13.0933 11.6224 13.4728H11.6912ZM18.2995 18.762C18.232 18.851 18.1437 18.9221 18.0423 18.9689C17.9409 19.0158 17.8296 19.0371 17.718 19.0308L12.9603 14.2856L12.9228 14.248L13.7793 13.3915H13.8168L18.5245 18.168C18.5312 18.2802 18.5115 18.3923 18.4669 18.4954C18.4224 18.5986 18.3544 18.6899 18.2682 18.762H18.2995Z" fill="#E2D6D7"/>
</svg>
