<svg id="Layer_1" data-name="Layer 1" xmlns="http://www.w3.org/2000/svg" viewBox="0 0 271.74 147.96"><defs><style>.cls-1{fill:none;}.cls-2{isolation:isolate;}.cls-3{fill:#e60c2b;}.cls-4{fill:#ff6700;}.cls-5{fill:#fe934b;}.cls-6{fill:#f98334;}.cls-7{fill:#fa7419;}</style></defs><rect class="cls-1" width="254" height="147.96"/><g id="Layer_9" data-name="Layer 9"><g class="cls-2"><path class="cls-3" d="M26.1,112a1,1,0,0,1,.83.35,1.15,1.15,0,0,1,.35.84v29.19a1,1,0,0,1-.35.84,1.13,1.13,0,0,1-.83.35H22.45a1,1,0,0,1-.84-.35,1.13,1.13,0,0,1-.35-.84V130.46H7.6v11.93a1,1,0,0,1-.34.84,1.17,1.17,0,0,1-.84.35H2.72a1,1,0,0,1-.84-.35,1.21,1.21,0,0,1-.34-.89V113.2a1.1,1.1,0,0,1,.34-.84,1.15,1.15,0,0,1,.84-.35H6.37a1,1,0,0,1,.84.35,1.18,1.18,0,0,1,.34.84v11.59H21.21V113.2a1.08,1.08,0,0,1,.35-.84,1.15,1.15,0,0,1,.84-.35h3.7Z" transform="translate(0 0)"/><path class="cls-3" d="M62,112a1,1,0,0,1,.84.35,1.18,1.18,0,0,1,.34.84v18.49a14.84,14.84,0,0,1-.79,5.08,10.27,10.27,0,0,1-2.41,3.9,10.92,10.92,0,0,1-4,2.51,16.41,16.41,0,0,1-5.62.89,16.54,16.54,0,0,1-5.67-.89,10.79,10.79,0,0,1-4-2.51,10.17,10.17,0,0,1-2.42-3.9,15.09,15.09,0,0,1-.79-5.08V113.2a1.08,1.08,0,0,1,.35-.84,1.13,1.13,0,0,1,.83-.35h3.65a1,1,0,0,1,.84.35,1.15,1.15,0,0,1,.35.84v18.29a8.78,8.78,0,0,0,.49,3.16A5.3,5.3,0,0,0,47.4,138a9.73,9.73,0,0,0,2.76.4,9.63,9.63,0,0,0,2.76-.4,4.93,4.93,0,0,0,2.17-1.23,5.75,5.75,0,0,0,1.43-2.12,8.51,8.51,0,0,0,.55-3.16V113.2a1.1,1.1,0,0,1,.34-.84,1.15,1.15,0,0,1,.84-.35H62Z" transform="translate(0 0)"/><path class="cls-3" d="M74.38,143.63a1,1,0,0,1-.84-.35,1.15,1.15,0,0,1-.35-.84V113.2a1.08,1.08,0,0,1,.35-.84,1.15,1.15,0,0,1,.84-.35H87.69a11.66,11.66,0,0,1,4.84.89,9.24,9.24,0,0,1,3.1,2.22A8.33,8.33,0,0,1,97.31,118a9.54,9.54,0,0,1,.54,2.91,7.53,7.53,0,0,1-.34,2.42,8.12,8.12,0,0,1-.89,1.82,8.92,8.92,0,0,1-1,1.23,5.76,5.76,0,0,1-.83.69,10.42,10.42,0,0,1,2.56,2.67,7.64,7.64,0,0,1,1.18,4.39,9.1,9.1,0,0,1-.64,3.4A9.82,9.82,0,0,1,96,140.62a9,9,0,0,1-3.06,2.17,10.34,10.34,0,0,1-4.24.84Zm17.41-22.54a3.17,3.17,0,0,0-1.09-2.62,5.47,5.47,0,0,0-3.45-.88h-8v7h8a5.46,5.46,0,0,0,3.45-.89A3,3,0,0,0,91.79,121.09ZM79.26,138h8.33a5.13,5.13,0,0,0,3.65-1.08,3.48,3.48,0,0,0,1.14-2.76,3.68,3.68,0,0,0-1.19-2.81,5.05,5.05,0,0,0-3.6-1.09H79.26Z" transform="translate(0 0)"/></g><g class="cls-2"><path class="cls-4" d="M121.13,125.92a5.27,5.27,0,0,0,1.73-2.22,6.83,6.83,0,0,0,.39-2.07,4.78,4.78,0,0,0-1.13-3.16,4.89,4.89,0,0,0-3.75-1.28,4.77,4.77,0,0,0-3.65,1.23,6.79,6.79,0,0,0-1.63,3.11,1.4,1.4,0,0,1-.54.89,1.3,1.3,0,0,1-.79.3h-3.55a1.18,1.18,0,0,1-1.23-1.24,10.45,10.45,0,0,1,1-3.84,10.66,10.66,0,0,1,2.42-3.16,10.49,10.49,0,0,1,3.55-2.12,11.62,11.62,0,0,1,4.39-.79,11.76,11.76,0,0,1,4.93.94,11.21,11.21,0,0,1,3.45,2.41,10.14,10.14,0,0,1,2,3.26,9.87,9.87,0,0,1,.64,3.55,14.15,14.15,0,0,1-.14,2.12,6.58,6.58,0,0,1-.64,2A10.26,10.26,0,0,1,127.2,128a20.44,20.44,0,0,1-2.52,2.37L116.35,138h12.57a1,1,0,0,1,.84.35,1.15,1.15,0,0,1,.35.84v3.2a1,1,0,0,1-.35.84,1.15,1.15,0,0,1-.84.35H107.81a1,1,0,0,1-.83-.35,1.15,1.15,0,0,1-.35-.84v-2.76a2.19,2.19,0,0,1,.44-1.33,3.06,3.06,0,0,1,.79-.79Z" transform="translate(0 0)"/></g><g class="cls-2"><path class="cls-3" d="M163.64,112a1,1,0,0,1,.84.35,1.14,1.14,0,0,1,.34.84v29.19a1,1,0,0,1-.34.84,1.15,1.15,0,0,1-.84.35H160a1,1,0,0,1-.84-.35,1.16,1.16,0,0,1-.34-.84V130.46H145.15v11.93a1,1,0,0,1-.35.84,1.13,1.13,0,0,1-.84.35h-3.65a1,1,0,0,1-.83-.35,1.18,1.18,0,0,1-.35-.89V113.2a1.08,1.08,0,0,1,.35-.84,1.13,1.13,0,0,1,.83-.35H144a1,1,0,0,1,.84.35,1.15,1.15,0,0,1,.35.84v11.59h13.66V113.2a1.1,1.1,0,0,1,.34-.84A1.17,1.17,0,0,1,160,112h3.65Z" transform="translate(0 0)"/><path class="cls-3" d="M174,123.75a15.65,15.65,0,0,1,1-4.78,11.25,11.25,0,0,1,2.47-3.9,11.75,11.75,0,0,1,4-2.61,15.72,15.72,0,0,1,5.77-1,15.44,15.44,0,0,1,5.72.94A11.79,11.79,0,0,1,197,115a11.23,11.23,0,0,1,2.46,3.9,14.85,14.85,0,0,1,1,4.78c.05.59.05,1.19.05,1.88v4.29c0,.69-.05,1.33-.05,1.87a15.31,15.31,0,0,1-1,4.78,11.13,11.13,0,0,1-2.46,3.9,12,12,0,0,1-4.1,2.61,18.18,18.18,0,0,1-11.54,0,11.15,11.15,0,0,1-4-2.61,10.94,10.94,0,0,1-2.47-3.9,16.57,16.57,0,0,1-1-4.78c-.05-.59-.05-1.18-.05-1.87v-4.29C173.9,125,174,124.34,174,123.75Zm20.41.25a6.92,6.92,0,0,0-2.12-5A7.2,7.2,0,0,0,180,124c0,1.13-.09,2.41-.09,3.79s0,2.67.09,3.8a7,7,0,0,0,2.12,5,7.2,7.2,0,0,0,12.28-5c.05-1.13.1-2.41.1-3.8S194.51,125.13,194.41,124Z" transform="translate(0 0)"/><path class="cls-3" d="M224.45,128.09,233,113.2c.1-.15.34-.4.59-.74A1.64,1.64,0,0,1,235,112H238a1,1,0,0,1,.84.35,1.14,1.14,0,0,1,.34.84v29.19a1,1,0,0,1-.34.84,1.15,1.15,0,0,1-.84.35h-3.65a1,1,0,0,1-.84-.35,1.16,1.16,0,0,1-.34-.84V124.69l-5.87,10.21a3.21,3.21,0,0,1-.64.74,1.53,1.53,0,0,1-1,.39h-2.37a1.44,1.44,0,0,1-1-.39,4.62,4.62,0,0,1-.64-.74l-5.82-10.16v17.65a1,1,0,0,1-.35.84,1.13,1.13,0,0,1-.84.35h-3.64a1,1,0,0,1-.84-.35,1.15,1.15,0,0,1-.35-.84V113.2a1.08,1.08,0,0,1,.35-.84,1.13,1.13,0,0,1,.84-.35H214a1.63,1.63,0,0,1,1.33.5,8.09,8.09,0,0,1,.6.74Z" transform="translate(0 0)"/><path class="cls-3" d="M270.56,138a1,1,0,0,1,.84.35,1.18,1.18,0,0,1,.34.84v3.2a1,1,0,0,1-.34.84,1.15,1.15,0,0,1-.84.35H250.73a1,1,0,0,1-.83-.35,1.13,1.13,0,0,1-.35-.84V113.2a1.08,1.08,0,0,1,.35-.84,1.13,1.13,0,0,1,.83-.35h19.48a1,1,0,0,1,.84.35,1.15,1.15,0,0,1,.35.84v3.2a1,1,0,0,1-.35.84,1.13,1.13,0,0,1-.84.35H255.62v7.2h13.61a1.12,1.12,0,0,1,.84.34,1.18,1.18,0,0,1,.34.84v3.21a1,1,0,0,1-.34.83,1.17,1.17,0,0,1-.84.35H255.62v7.5h14.94Z" transform="translate(0 0)"/></g></g><g id="Layer_3" data-name="Layer 3"><path class="cls-3" d="M152.23,72.52,150.28,99s0,2,1.78,2h17.56s1.63,0,1.63-2.22l4.56-61.09-8.73-11.46L154.71,38.91Z" transform="translate(0 0)"/></g><g id="Layer_2" data-name="Layer 2"><path class="cls-3" d="M103.77,56.11,100.52,98.7s-.34,2.22,1.79,2.22h16.85s2.33,0,2.33-2.09L124,66.4,103.77,55.59Z" transform="translate(0 0)"/></g><g id="Layer_8" data-name="Layer 8"><path class="cls-5" d="M175.55,49.2s-14.2,27.75-64.48-41l-.91,9.77s29.44,44.29,56.53,39.34c0,0,6.52-.39,8.86-8.08h0" transform="translate(0 0)"/></g><g id="Layer_7" data-name="Layer 7"><path class="cls-6" d="M97,18.85s34.91,37.52,51.19,40.77S170.6,70.31,175.55,49.2h0s-10,28-55.49-22L98.43,4Z" transform="translate(0 0)"/></g><g id="Layer_6" data-name="Layer 6"><path class="cls-7" d="M99.47,38.91s37.39,36.61,65.79,26.58c0,0,10.29-1.83,10.29-16.29h0S167.86,89.58,101.17,23Z" transform="translate(0 0)"/></g><g id="Layer_5" data-name="Layer 5"><path class="cls-4" d="M103.12,55.59s34.52,26.18,63.31,13.8c0,0,12.12-6,9.12-20.19,0,0,.65,42.34-71.26-6Z" transform="translate(0 0)"/></g><polygon class="cls-3" points="176.28 31.1 168.98 21.66 167.44 19.68 165.7 21.49 155.16 32.43 154.88 36.31 167.24 23.47 176.01 34.8 176.28 31.1"/></svg>