<svg width="40" height="40" viewBox="0 0 40 40" fill="none" xmlns="http://www.w3.org/2000/svg">
<circle cx="20" cy="20" r="19.25" fill="white" stroke="#FF8992" stroke-width="1.5"/>
<path d="M22.2285 21.8477C20.5325 21.8477 19.1523 23.2278 19.1523 24.9238C19.1523 26.5889 20.4981 28 22.2285 28C23.9245 28 25.3047 26.6199 25.3047 24.9238C25.3047 23.2278 23.9245 21.8477 22.2285 21.8477ZM23.4181 24.5753L22.0998 25.8937C21.9281 26.0654 21.65 26.0654 21.4783 25.8937L20.8192 25.2345C20.6475 25.0629 20.6475 24.7848 20.8192 24.6131C20.9908 24.4415 21.2689 24.4415 21.4406 24.6131L21.7891 24.9616L22.7967 23.9539C22.9684 23.7823 23.2465 23.7823 23.4181 23.9539C23.5898 24.1256 23.5898 24.4037 23.4181 24.5753Z" fill="#FF8992"/>
<path d="M22.2285 13H13.4395C13.1966 13 13 13.1966 13 13.4395V25.8027C13 26.0456 13.1966 26.2422 13.4395 26.2422H18.5083C18.5067 26.2376 18.5042 26.2335 18.5026 26.2289C18.355 25.8512 18.2734 25.4002 18.2734 24.9238C18.2734 22.7429 20.0476 20.9688 22.2285 20.9688C22.379 20.9688 22.5218 20.9967 22.668 21.0132V13.4395C22.668 13.1966 22.4714 13 22.2285 13ZM15.1973 21.8477C14.9546 21.8477 14.7578 21.6509 14.7578 21.4082C14.7578 21.1654 14.9546 20.9688 15.1973 20.9688C15.44 20.9688 15.6367 21.1654 15.6367 21.4082C15.6367 21.6509 15.44 21.8477 15.1973 21.8477ZM15.1973 20.0898C14.9546 20.0898 14.7578 19.8931 14.7578 19.6504C14.7578 19.4076 14.9546 19.2109 15.1973 19.2109C15.44 19.2109 15.6367 19.4076 15.6367 19.6504C15.6367 19.8931 15.44 20.0898 15.1973 20.0898ZM15.1973 18.332C14.9546 18.332 14.7578 18.1353 14.7578 17.8926C14.7578 17.6498 14.9546 17.4531 15.1973 17.4531C15.44 17.4531 15.6367 17.6498 15.6367 17.8926C15.6367 18.1353 15.44 18.332 15.1973 18.332ZM15.1973 16.5742C14.9546 16.5742 14.7578 16.3775 14.7578 16.1348C14.7578 15.892 14.9546 15.6953 15.1973 15.6953C15.44 15.6953 15.6367 15.892 15.6367 16.1348C15.6367 16.3775 15.44 16.5742 15.1973 16.5742ZM18.7129 21.8477H16.9551C16.7122 21.8477 16.5156 21.6511 16.5156 21.4082C16.5156 21.1653 16.7122 20.9688 16.9551 20.9688H18.7129C18.9558 20.9688 19.1523 21.1653 19.1523 21.4082C19.1523 21.6511 18.9558 21.8477 18.7129 21.8477ZM20.4707 20.0898H16.9551C16.7122 20.0898 16.5156 19.8933 16.5156 19.6504C16.5156 19.4075 16.7122 19.2109 16.9551 19.2109H20.4707C20.7136 19.2109 20.9102 19.4075 20.9102 19.6504C20.9102 19.8933 20.7136 20.0898 20.4707 20.0898ZM20.4707 18.332H16.9551C16.7122 18.332 16.5156 18.1355 16.5156 17.8926C16.5156 17.6497 16.7122 17.4531 16.9551 17.4531H20.4707C20.7136 17.4531 20.9102 17.6497 20.9102 17.8926C20.9102 18.1355 20.7136 18.332 20.4707 18.332ZM20.4707 16.5742H16.9551C16.7122 16.5742 16.5156 16.3777 16.5156 16.1348C16.5156 15.8919 16.7122 15.6953 16.9551 15.6953H20.4707C20.7136 15.6953 20.9102 15.8919 20.9102 16.1348C20.9102 16.3777 20.7136 16.5742 20.4707 16.5742Z" fill="#FF8992"/>
</svg>
