<svg width="40" height="40" viewBox="0 0 40 40" fill="none" xmlns="http://www.w3.org/2000/svg">
<circle cx="20" cy="20" r="19.25" fill="white" stroke="#E81D2C" stroke-width="1.5"/>
<circle cx="20" cy="20" r="15" fill="#E81D2C"/>
<path d="M23.2285 20.8477C21.5325 20.8477 20.1523 22.2278 20.1523 23.9238C20.1523 25.5889 21.4981 27 23.2285 27C24.9245 27 26.3047 25.6199 26.3047 23.9238C26.3047 22.2278 24.9245 20.8477 23.2285 20.8477ZM24.4181 23.5753L23.0998 24.8937C22.9281 25.0654 22.65 25.0654 22.4783 24.8937L21.8192 24.2345C21.6475 24.0629 21.6475 23.7848 21.8192 23.6131C21.9908 23.4415 22.2689 23.4415 22.4406 23.6131L22.7891 23.9616L23.7967 22.9539C23.9684 22.7823 24.2465 22.7823 24.4181 22.9539C24.5898 23.1256 24.5898 23.4037 24.4181 23.5753Z" fill="white"/>
<path d="M23.2285 12H14.4395C14.1966 12 14 12.1966 14 12.4395V24.8027C14 25.0456 14.1966 25.2422 14.4395 25.2422H19.5083C19.5067 25.2376 19.5042 25.2335 19.5026 25.2289C19.355 24.8512 19.2734 24.4002 19.2734 23.9238C19.2734 21.7429 21.0476 19.9688 23.2285 19.9688C23.379 19.9688 23.5218 19.9967 23.668 20.0132V12.4395C23.668 12.1966 23.4714 12 23.2285 12ZM16.1973 20.8477C15.9546 20.8477 15.7578 20.6509 15.7578 20.4082C15.7578 20.1654 15.9546 19.9688 16.1973 19.9688C16.44 19.9688 16.6367 20.1654 16.6367 20.4082C16.6367 20.6509 16.44 20.8477 16.1973 20.8477ZM16.1973 19.0898C15.9546 19.0898 15.7578 18.8931 15.7578 18.6504C15.7578 18.4076 15.9546 18.2109 16.1973 18.2109C16.44 18.2109 16.6367 18.4076 16.6367 18.6504C16.6367 18.8931 16.44 19.0898 16.1973 19.0898ZM16.1973 17.332C15.9546 17.332 15.7578 17.1353 15.7578 16.8926C15.7578 16.6498 15.9546 16.4531 16.1973 16.4531C16.44 16.4531 16.6367 16.6498 16.6367 16.8926C16.6367 17.1353 16.44 17.332 16.1973 17.332ZM16.1973 15.5742C15.9546 15.5742 15.7578 15.3775 15.7578 15.1348C15.7578 14.892 15.9546 14.6953 16.1973 14.6953C16.44 14.6953 16.6367 14.892 16.6367 15.1348C16.6367 15.3775 16.44 15.5742 16.1973 15.5742ZM19.7129 20.8477H17.9551C17.7122 20.8477 17.5156 20.6511 17.5156 20.4082C17.5156 20.1653 17.7122 19.9688 17.9551 19.9688H19.7129C19.9558 19.9688 20.1523 20.1653 20.1523 20.4082C20.1523 20.6511 19.9558 20.8477 19.7129 20.8477ZM21.4707 19.0898H17.9551C17.7122 19.0898 17.5156 18.8933 17.5156 18.6504C17.5156 18.4075 17.7122 18.2109 17.9551 18.2109H21.4707C21.7136 18.2109 21.9102 18.4075 21.9102 18.6504C21.9102 18.8933 21.7136 19.0898 21.4707 19.0898ZM21.4707 17.332H17.9551C17.7122 17.332 17.5156 17.1355 17.5156 16.8926C17.5156 16.6497 17.7122 16.4531 17.9551 16.4531H21.4707C21.7136 16.4531 21.9102 16.6497 21.9102 16.8926C21.9102 17.1355 21.7136 17.332 21.4707 17.332ZM21.4707 15.5742H17.9551C17.7122 15.5742 17.5156 15.3777 17.5156 15.1348C17.5156 14.8919 17.7122 14.6953 17.9551 14.6953H21.4707C21.7136 14.6953 21.9102 14.8919 21.9102 15.1348C21.9102 15.3777 21.7136 15.5742 21.4707 15.5742Z" fill="white"/>
</svg>
