<svg width="13" height="15" viewBox="0 0 13 15" fill="none" xmlns="http://www.w3.org/2000/svg">
<path d="M9.22852 8.84766C7.53249 8.84766 6.15234 10.2278 6.15234 11.9238C6.15234 13.5889 7.4981 15 9.22852 15C10.9245 15 12.3047 13.6199 12.3047 11.9238C12.3047 10.2278 10.9245 8.84766 9.22852 8.84766ZM10.4181 11.5753L9.09976 12.8937C8.92811 13.0654 8.65002 13.0654 8.47834 12.8937L7.81916 12.2345C7.64751 12.0629 7.64751 11.7848 7.81916 11.6131C7.99081 11.4415 8.26893 11.4415 8.44058 11.6131L8.78906 11.9616L9.79673 10.9539C9.96838 10.7823 10.2465 10.7823 10.4181 10.9539C10.5898 11.1256 10.5898 11.4037 10.4181 11.5753Z" fill="#FF8992"/>
<path d="M9.22852 0H0.439453C0.196553 0 0 0.196553 0 0.439453V12.8027C0 13.0456 0.196553 13.2422 0.439453 13.2422H5.50834C5.50673 13.2376 5.50421 13.2335 5.5026 13.2289C5.35497 12.8512 5.27344 12.4002 5.27344 11.9238C5.27344 9.74288 7.04757 7.96875 9.22852 7.96875C9.37898 7.96875 9.52178 7.9967 9.66797 8.01316V0.439453C9.66797 0.196553 9.47142 0 9.22852 0ZM2.19727 8.84766C1.95457 8.84766 1.75781 8.6509 1.75781 8.4082C1.75781 8.16545 1.95457 7.96875 2.19727 7.96875C2.43996 7.96875 2.63672 8.16545 2.63672 8.4082C2.63672 8.6509 2.43996 8.84766 2.19727 8.84766ZM2.19727 7.08984C1.95457 7.08984 1.75781 6.89309 1.75781 6.65039C1.75781 6.40764 1.95457 6.21094 2.19727 6.21094C2.43996 6.21094 2.63672 6.40764 2.63672 6.65039C2.63672 6.89309 2.43996 7.08984 2.19727 7.08984ZM2.19727 5.33203C1.95457 5.33203 1.75781 5.13527 1.75781 4.89258C1.75781 4.64982 1.95457 4.45312 2.19727 4.45312C2.43996 4.45312 2.63672 4.64982 2.63672 4.89258C2.63672 5.13527 2.43996 5.33203 2.19727 5.33203ZM2.19727 3.57422C1.95457 3.57422 1.75781 3.37746 1.75781 3.13477C1.75781 2.89201 1.95457 2.69531 2.19727 2.69531C2.43996 2.69531 2.63672 2.89201 2.63672 3.13477C2.63672 3.37746 2.43996 3.57422 2.19727 3.57422ZM5.71289 8.84766H3.95508C3.71218 8.84766 3.51562 8.6511 3.51562 8.4082C3.51562 8.1653 3.71218 7.96875 3.95508 7.96875H5.71289C5.95579 7.96875 6.15234 8.1653 6.15234 8.4082C6.15234 8.6511 5.95579 8.84766 5.71289 8.84766ZM7.4707 7.08984H3.95508C3.71218 7.08984 3.51562 6.89329 3.51562 6.65039C3.51562 6.40749 3.71218 6.21094 3.95508 6.21094H7.4707C7.7136 6.21094 7.91016 6.40749 7.91016 6.65039C7.91016 6.89329 7.7136 7.08984 7.4707 7.08984ZM7.4707 5.33203H3.95508C3.71218 5.33203 3.51562 5.13548 3.51562 4.89258C3.51562 4.64968 3.71218 4.45312 3.95508 4.45312H7.4707C7.7136 4.45312 7.91016 4.64968 7.91016 4.89258C7.91016 5.13548 7.7136 5.33203 7.4707 5.33203ZM7.4707 3.57422H3.95508C3.71218 3.57422 3.51562 3.37767 3.51562 3.13477C3.51562 2.89187 3.71218 2.69531 3.95508 2.69531H7.4707C7.7136 2.69531 7.91016 2.89187 7.91016 3.13477C7.91016 3.37767 7.7136 3.57422 7.4707 3.57422Z" fill="#FF8992"/>
</svg>
