<svg width="40" height="40" viewBox="0 0 40 40" fill="none" xmlns="http://www.w3.org/2000/svg">
<circle cx="20" cy="20" r="19.25" fill="white" stroke="#E81D2C" stroke-width="1.5"/>
<g clip-path="url(#clip0)">
<path d="M26.7638 13.6034C26.7569 13.3733 26.5721 13.1883 26.3421 13.1814L20.4083 13.0007C20.2872 12.9972 20.1707 13.0436 20.0857 13.1295L12.7616 20.5291C11.864 21.4359 11.864 22.9113 12.7616 23.8181L16.2249 27.317C16.661 27.7577 17.2413 28.0005 17.8588 28.0005C18.4763 28.0005 19.0566 27.7577 19.4927 27.317L26.817 19.9174C26.9008 19.8327 26.9462 19.7173 26.9426 19.5982L26.7638 13.6034ZM21.1314 22.7993C21.0464 22.8843 20.9351 22.9268 20.8236 22.9268C20.7122 22.9268 20.6009 22.8844 20.5159 22.7993L20.3266 22.6099L20.0132 22.9233C19.9282 23.0082 19.8168 23.0507 19.7055 23.0507C19.594 23.0507 19.4827 23.0082 19.3978 22.9232C19.2277 22.7532 19.2277 22.4777 19.3978 22.3077L20.2311 21.4743C20.3871 21.3184 20.387 21.0645 20.231 20.9086C20.0749 20.7525 19.8212 20.7523 19.6652 20.9083L19.4529 21.1205C19.4529 21.1206 19.4529 21.1206 19.4528 21.1206L19.2405 21.333C18.9929 21.5807 18.6675 21.7045 18.3423 21.7045C18.0168 21.7045 17.6914 21.5807 17.4437 21.3328C17.2037 21.0928 17.0715 20.7739 17.0714 20.4344C17.0714 20.1404 17.1706 19.8618 17.3532 19.6365L17.1587 19.442C16.9888 19.272 16.9888 18.9965 17.1587 18.8265C17.3287 18.6566 17.6042 18.6566 17.7742 18.8265L17.9636 19.0159L18.162 18.8174C18.332 18.6474 18.6075 18.6474 18.7776 18.8174C18.9476 18.9874 18.9476 19.263 18.7776 19.4329L18.0589 20.1515C17.9834 20.2271 17.9418 20.3274 17.9418 20.4343C17.9418 20.5412 17.9835 20.6417 18.0591 20.7173C18.2152 20.8734 18.4691 20.8734 18.6249 20.7175L18.8373 20.5051C18.8373 20.5051 18.8373 20.505 18.8375 20.505L19.0496 20.2927C19.545 19.7974 20.3511 19.7976 20.8465 20.293C21.3097 20.7561 21.3398 21.4908 20.937 21.9892L21.1314 22.1838C21.3014 22.3538 21.3014 22.6294 21.1314 22.7993ZM24.2106 17.6124C23.9561 17.8669 23.6217 17.9942 23.2874 17.9942C22.953 17.9942 22.6186 17.8669 22.3641 17.6124C22.1175 17.3658 21.9816 17.0379 21.9816 16.6891C21.9816 16.3404 22.1175 16.0125 22.3641 15.7659C22.8731 15.2569 23.7015 15.2568 24.2106 15.7659C24.7197 16.2749 24.7197 17.1034 24.2106 17.6124Z" fill="#E81D2C"/>
</g>
<defs>
<clipPath id="clip0">
<rect width="15" height="15" fill="white" transform="translate(12 13)"/>
</clipPath>
</defs>
</svg>
