<svg width="40" height="40" viewBox="0 0 40 40" fill="none" xmlns="http://www.w3.org/2000/svg">
<circle cx="20" cy="20" r="19.25" fill="white" stroke="#E81D2C" stroke-width="1.5"/>
<circle cx="20" cy="20" r="15" fill="#E81D2C"/>
<g clip-path="url(#clip0)">
<path d="M26.7633 13.6034C26.7564 13.3733 26.5716 13.1883 26.3416 13.1814L20.4078 13.0007C20.2867 12.9972 20.1702 13.0436 20.0852 13.1295L12.7611 20.5291C11.8635 21.4359 11.8635 22.9113 12.7611 23.8181L16.2244 27.317C16.6605 27.7577 17.2409 28.0005 17.8583 28.0005C18.4758 28.0005 19.0561 27.7577 19.4923 27.317L26.8165 19.9174C26.9003 19.8327 26.9457 19.7173 26.9421 19.5982L26.7633 13.6034ZM21.1309 22.7993C21.0459 22.8843 20.9346 22.9268 20.8231 22.9268C20.7117 22.9268 20.6004 22.8844 20.5154 22.7993L20.3261 22.6099L20.0127 22.9233C19.9277 23.0082 19.8164 23.0507 19.705 23.0507C19.5935 23.0507 19.4822 23.0082 19.3973 22.9232C19.2272 22.7532 19.2272 22.4777 19.3973 22.3077L20.2306 21.4743C20.3866 21.3184 20.3865 21.0645 20.2305 20.9086C20.0744 20.7525 19.8207 20.7523 19.6647 20.9083L19.4524 21.1205C19.4524 21.1206 19.4524 21.1206 19.4523 21.1206L19.24 21.333C18.9924 21.5807 18.667 21.7045 18.3418 21.7045C18.0163 21.7045 17.691 21.5807 17.4432 21.3328C17.2032 21.0928 17.071 20.7739 17.0709 20.4344C17.0709 20.1404 17.1701 19.8618 17.3527 19.6365L17.1582 19.442C16.9883 19.272 16.9883 18.9965 17.1582 18.8265C17.3282 18.6566 17.6038 18.6566 17.7737 18.8265L17.9631 19.0159L18.1615 18.8174C18.3315 18.6474 18.6071 18.6474 18.7771 18.8174C18.9471 18.9874 18.9471 19.263 18.7771 19.4329L18.0584 20.1515C17.9829 20.2271 17.9414 20.3274 17.9414 20.4343C17.9414 20.5412 17.983 20.6417 18.0587 20.7173C18.2148 20.8734 18.4686 20.8734 18.6245 20.7175L18.8369 20.5051C18.8369 20.5051 18.8369 20.505 18.837 20.505L19.0491 20.2927C19.5446 19.7974 20.3506 19.7976 20.846 20.293C21.3092 20.7561 21.3393 21.4908 20.9365 21.9892L21.1309 22.1838C21.3009 22.3538 21.3009 22.6294 21.1309 22.7993ZM24.2101 17.6124C23.9556 17.8669 23.6212 17.9942 23.2869 17.9942C22.9525 17.9942 22.6181 17.8669 22.3636 17.6124C22.117 17.3658 21.9811 17.0379 21.9811 16.6891C21.9811 16.3404 22.117 16.0125 22.3636 15.7659C22.8726 15.2569 23.7011 15.2568 24.2101 15.7659C24.7192 16.2749 24.7192 17.1034 24.2101 17.6124Z" fill="white"/>
</g>
<defs>
<clipPath id="clip0">
<rect width="15" height="15" fill="white" transform="translate(12 13)"/>
</clipPath>
</defs>
</svg>
