<svg width="40" height="40" viewBox="0 0 40 40" fill="none" xmlns="http://www.w3.org/2000/svg">
<circle cx="20" cy="20" r="19.25" fill="white" stroke="#FF8992" stroke-width="1.5"/>
<g clip-path="url(#clip0)">
<path d="M26.7635 13.6034C26.7567 13.3732 26.5718 13.1883 26.3418 13.1813L20.408 13.0006C20.287 12.9972 20.1705 13.0435 20.0854 13.1295L12.7613 20.529C11.8637 21.4358 11.8637 22.9112 12.7613 23.818L16.2246 27.317C16.6608 27.7577 17.2411 28.0004 17.8585 28.0004C18.476 28.0004 19.0564 27.7577 19.4925 27.317L26.8167 19.9173C26.9005 19.8326 26.9459 19.7173 26.9424 19.5981L26.7635 13.6034ZM21.1312 22.7993C21.0462 22.8842 20.9348 22.9268 20.8233 22.9268C20.712 22.9268 20.6006 22.8843 20.5156 22.7993L20.3263 22.6099L20.013 22.9232C19.928 23.0081 19.8166 23.0506 19.7053 23.0506C19.5938 23.0506 19.4824 23.0081 19.3975 22.9231C19.2275 22.7532 19.2275 22.4776 19.3975 22.3076L20.2309 21.4743C20.3869 21.3183 20.3867 21.0645 20.2308 20.9085C20.0747 20.7524 19.821 20.7523 19.665 20.9083L19.4527 21.1204C19.4527 21.1205 19.4527 21.1205 19.4526 21.1205L19.2403 21.333C18.9926 21.5806 18.6673 21.7044 18.342 21.7044C18.0166 21.7044 17.6912 21.5806 17.4434 21.3327C17.2035 21.0927 17.0713 20.7738 17.0712 20.4344C17.0712 20.1404 17.1704 19.8617 17.3529 19.6365L17.1585 19.4419C16.9885 19.272 16.9885 18.9964 17.1585 18.8265C17.3284 18.6565 17.604 18.6565 17.7739 18.8265L17.9633 19.0159L18.1618 18.8173C18.3317 18.6474 18.6073 18.6474 18.7774 18.8173C18.9473 18.9874 18.9473 19.2629 18.7774 19.4329L18.0587 20.1515C17.9831 20.227 17.9416 20.3274 17.9416 20.4342C17.9416 20.5411 17.9833 20.6416 18.0589 20.7173C18.215 20.8734 18.4688 20.8734 18.6247 20.7175L18.8371 20.5051C18.8371 20.5051 18.8371 20.505 18.8372 20.505L19.0494 20.2927C19.5448 19.7974 20.3508 19.7975 20.8462 20.2929C21.3095 20.7561 21.3396 21.4908 20.9368 21.9892L21.1312 22.1837C21.3011 22.3538 21.3011 22.6293 21.1312 22.7993ZM24.2103 17.6124C23.9558 17.8669 23.6214 17.9941 23.2871 17.9941C22.9527 17.9941 22.6183 17.8669 22.3638 17.6124C22.1172 17.3657 21.9814 17.0379 21.9814 16.689C21.9814 16.3403 22.1172 16.0125 22.3638 15.7658C22.8729 15.2568 23.7013 15.2567 24.2103 15.7658C24.7195 16.2749 24.7195 17.1033 24.2103 17.6124Z" fill="#FF8992"/>
</g>
<defs>
<clipPath id="clip0">
<rect width="15" height="15" fill="white" transform="translate(12 13)"/>
</clipPath>
</defs>
</svg>
