<svg width="13" height="13" viewBox="0 0 13 13" fill="none" xmlns="http://www.w3.org/2000/svg">
<path d="M2.16084 2.96621H10.8388C11.1337 2.96621 11.3727 2.72719 11.3727 2.43233C11.3727 2.13746 11.1337 1.89844 10.8388 1.89844H2.16084C1.86598 1.89844 1.62695 2.13746 1.62695 2.43233C1.62695 2.72719 1.86596 2.96621 2.16084 2.96621Z" fill="#3C4252"/>
<path d="M2.97334 1.06778H10.0242C10.319 1.06778 10.558 0.82875 10.558 0.533889C10.558 0.239027 10.319 0 10.0242 0H2.97334C2.67848 0 2.43945 0.239027 2.43945 0.533889C2.43945 0.82875 2.67845 1.06778 2.97334 1.06778Z" fill="#3C4252"/>
<path d="M4.48179 6.3802C3.7118 7.15017 3.7118 8.40305 4.48179 9.17304C5.25179 9.94302 6.50464 9.94302 7.27466 9.17304C8.04466 8.40305 8.04463 7.1502 7.27464 6.3802C6.50464 5.61026 5.25179 5.61023 4.48179 6.3802ZM7.21149 7.59611C7.17635 7.61096 7.13994 7.618 7.10409 7.618C6.99666 7.618 6.89446 7.5548 6.84995 7.44955C6.59539 6.8479 5.89869 6.56555 5.29704 6.82012C5.1567 6.87948 4.99489 6.8139 4.93547 6.67359C4.87611 6.53331 4.94177 6.37147 5.082 6.31208C5.96385 5.93891 6.98483 6.35276 7.35799 7.2346C7.41738 7.37488 7.35175 7.53677 7.21149 7.59611Z" fill="#3C4252"/>
<path d="M10.9559 3.79688H2.04376C0.923428 3.79688 0.0555762 4.78447 0.204086 5.8981L0.936301 11.3896C1.05873 12.3078 1.84963 13.0003 2.77595 13.0003H10.2237C11.1501 13.0003 11.941 12.3078 12.0634 11.3896L12.7956 5.8981C12.944 4.78554 12.0772 3.79688 10.9559 3.79688ZM9.64424 11.5015L9.60278 11.5429C9.3621 11.7836 8.98256 11.7191 8.71116 11.4476C8.71116 11.4476 7.69064 10.4271 7.35043 10.0869C7.28782 10.0243 7.21362 10.0685 7.21362 10.0685C6.18688 10.6844 4.87203 10.5506 3.98795 9.66648C2.94589 8.6244 2.94592 6.92876 3.98795 5.8867C5.03006 4.84462 6.72567 4.84462 7.76772 5.8867C8.65178 6.77075 8.78571 8.08561 8.16976 9.11235C8.16976 9.11235 8.12553 9.18659 8.18527 9.24629C8.52614 9.58713 9.54888 10.6099 9.54888 10.6099C9.82033 10.8813 9.88492 11.2608 9.64424 11.5015Z" fill="#3C4252"/>
</svg>
