<svg width="16" height="11" viewBox="0 0 16 11" fill="none" xmlns="http://www.w3.org/2000/svg">
<path d="M15.2155 1.36405V5.96994C15.2155 5.96994 14.2297 6.16415 14.0266 6.18969C13.8242 6.21517 13.1881 6.42059 12.727 5.97743C12.016 5.29599 9.4898 2.78373 9.4898 2.78373C9.4898 2.78373 9.05423 2.35633 8.35486 2.72571C7.71286 3.06408 6.7612 3.55998 6.3637 3.75308C5.61226 4.15304 4.98945 3.51847 4.98945 3.0351C4.98945 2.66017 5.22342 2.4057 5.55786 2.21855C6.46424 1.66908 8.37463 0.59677 9.17031 0.174003C9.65395 -0.0832302 10.0024 -0.105273 10.6664 0.454108C11.4842 1.14188 12.212 1.7688 12.212 1.7688C12.212 1.7688 12.4494 1.9669 12.8279 1.88711C13.7575 1.69057 15.2155 1.36405 15.2155 1.36405ZM5.16058 9.16828C5.28291 8.85397 5.24202 8.50243 5.00747 8.26125C4.79672 8.04553 4.48902 7.98867 4.19562 8.0559C4.27768 7.7649 4.23237 7.45517 4.02048 7.23659C3.80908 7.02141 3.50196 6.96342 3.20859 7.03127C3.29004 6.74069 3.24485 6.43099 3.03283 6.21305C2.70085 5.87253 2.12661 5.88715 1.74937 6.24673C1.37412 6.60681 1.13374 7.25918 1.46865 7.64317C1.803 8.02523 2.18718 7.79277 2.48005 7.72603C2.39858 8.01661 2.15445 8.28689 2.45509 8.66723C2.75546 9.04775 3.17359 8.81689 3.46678 8.75076C3.38502 9.04023 3.15155 9.33765 3.44065 9.6903C3.73236 10.044 4.21014 9.85555 4.5257 9.75753C4.40392 10.0706 4.14325 10.4082 4.47815 10.7864C4.81253 11.1673 5.58528 10.9911 5.96273 10.6309C6.33917 10.2709 6.3753 9.70018 6.04421 9.35859C5.81562 9.12422 5.47485 9.0697 5.16058 9.16828ZM12.0479 6.77204C9.31929 4.04341 10.6027 5.32736 9.1343 3.8558C9.1343 3.8558 8.69299 3.41646 8.11135 3.67166C7.70304 3.85058 7.17737 4.09443 6.78183 4.28059C6.34718 4.50851 6.03438 4.57906 5.88752 4.57807C5.04726 4.57258 4.36554 3.89721 4.36554 3.05779C4.36554 2.51324 4.65464 2.03914 5.08582 1.77003C5.69214 1.35045 7.08776 0.60813 7.08776 0.60813C7.08776 0.60813 6.66259 0.0693786 5.73122 0.0693786C4.80013 0.0693786 2.8548 1.34379 2.8548 1.34379C2.8548 1.34379 2.30295 1.69727 1.51626 1.37888L0 0.850873V6.12132C0 6.12132 0.432959 6.24664 0.821987 6.40554C0.90985 6.15497 1.05162 5.92359 1.24828 5.73248C1.89369 5.11775 2.96345 5.11136 3.55065 5.71599C3.72754 5.89979 3.85098 6.11905 3.91398 6.36143C4.15058 6.43446 4.3649 6.56383 4.53712 6.74127C4.71454 6.92385 4.83752 7.14433 4.90104 7.38548C5.13737 7.45858 5.35137 7.58844 5.52418 7.766C5.71879 7.96669 5.84843 8.20909 5.90897 8.47173C6.15602 8.54369 6.37926 8.67757 6.55907 8.8614C6.91197 9.22388 7.03722 9.71566 6.96133 10.19C6.96195 10.19 6.96311 10.19 6.96367 10.1911C6.96944 10.1987 7.18231 10.436 7.31506 10.5698C7.57521 10.8302 8 10.8302 8.26095 10.5698C8.52018 10.3095 8.52131 9.88555 8.26095 9.62393C8.25162 9.61462 7.32239 8.64267 7.39718 8.5673C7.47141 8.49245 8.65529 9.72431 8.67733 9.74685C8.93714 10.0067 9.36166 10.0067 9.62264 9.74685C9.883 9.48654 9.88245 9.06258 9.62264 8.80157C9.60987 8.78941 9.55657 8.73836 9.5368 8.71804C9.5368 8.71804 8.36302 7.6724 8.45236 7.58306C8.5428 7.49318 10.0008 8.85379 10.0032 8.85379C10.2652 9.08981 10.6689 9.08806 10.9211 8.8358C11.1664 8.59051 11.1717 8.20249 10.9542 7.94102C10.9496 7.92712 9.84303 6.77072 9.92939 6.68371C10.017 6.59557 11.1119 7.72299 11.1142 7.72533C11.3734 7.98514 11.7985 7.98514 12.0595 7.72533C12.3193 7.46548 12.3193 7.041 12.0595 6.77885C12.056 6.77664 12.0514 6.77431 12.0479 6.77204Z" fill="#FF8992"/>
</svg>
