<svg width="40" height="40" viewBox="0 0 40 40" fill="none" xmlns="http://www.w3.org/2000/svg">
<circle cx="20" cy="20" r="19.25" fill="white" stroke="#FF8992" stroke-width="1.5"/>
<path d="M27.2155 16.3641V20.9699C27.2155 20.9699 26.2297 21.1641 26.0266 21.1897C25.8242 21.2152 25.1881 21.4206 24.727 20.9774C24.016 20.296 21.4898 17.7837 21.4898 17.7837C21.4898 17.7837 21.0542 17.3563 20.3549 17.7257C19.7129 18.0641 18.7612 18.56 18.3637 18.7531C17.6123 19.153 16.9895 18.5185 16.9895 18.0351C16.9895 17.6602 17.2234 17.4057 17.5579 17.2185C18.4642 16.6691 20.3746 15.5968 21.1703 15.174C21.654 14.9168 22.0024 14.8947 22.6664 15.4541C23.4842 16.1419 24.212 16.7688 24.212 16.7688C24.212 16.7688 24.4494 16.9669 24.8279 16.8871C25.7575 16.6906 27.2155 16.3641 27.2155 16.3641ZM17.1606 24.1683C17.2829 23.854 17.242 23.5024 17.0075 23.2613C16.7967 23.0455 16.489 22.9887 16.1956 23.0559C16.2777 22.7649 16.2324 22.4552 16.0205 22.2366C15.8091 22.0214 15.502 21.9634 15.2086 22.0313C15.29 21.7407 15.2448 21.431 15.0328 21.2131C14.7008 20.8725 14.1266 20.8871 13.7494 21.2467C13.3741 21.6068 13.1337 22.2592 13.4686 22.6432C13.803 23.0252 14.1872 22.7928 14.4801 22.726C14.3986 23.0166 14.1545 23.2869 14.4551 23.6672C14.7555 24.0478 15.1736 23.8169 15.4668 23.7508C15.385 24.0402 15.1515 24.3376 15.4406 24.6903C15.7324 25.044 16.2101 24.8556 16.5257 24.7575C16.4039 25.0706 16.1432 25.4082 16.4781 25.7864C16.8125 26.1673 17.5853 25.9911 17.9627 25.6309C18.3392 25.2709 18.3753 24.7002 18.0442 24.3586C17.8156 24.1242 17.4748 24.0697 17.1606 24.1683ZM24.0479 21.772C21.3193 19.0434 22.6027 20.3274 21.1343 18.8558C21.1343 18.8558 20.693 18.4165 20.1113 18.6717C19.703 18.8506 19.1774 19.0944 18.7818 19.2806C18.3472 19.5085 18.0344 19.5791 17.8875 19.5781C17.0473 19.5726 16.3655 18.8972 16.3655 18.0578C16.3655 17.5132 16.6546 17.0391 17.0858 16.77C17.6921 16.3505 19.0878 15.6081 19.0878 15.6081C19.0878 15.6081 18.6626 15.0694 17.7312 15.0694C16.8001 15.0694 14.8548 16.3438 14.8548 16.3438C14.8548 16.3438 14.3029 16.6973 13.5163 16.3789L12 15.8509V21.1213C12 21.1213 12.433 21.2466 12.822 21.4055C12.9099 21.155 13.0516 20.9236 13.2483 20.7325C13.8937 20.1177 14.9635 20.1114 15.5506 20.716C15.7275 20.8998 15.851 21.1191 15.914 21.3614C16.1506 21.4345 16.3649 21.5638 16.5371 21.7413C16.7145 21.9238 16.8375 22.1443 16.901 22.3855C17.1374 22.4586 17.3514 22.5884 17.5242 22.766C17.7188 22.9667 17.8484 23.2091 17.909 23.4717C18.156 23.5437 18.3793 23.6776 18.5591 23.8614C18.912 24.2239 19.0372 24.7157 18.9613 25.19C18.9619 25.19 18.9631 25.19 18.9637 25.1911C18.9694 25.1987 19.1823 25.436 19.3151 25.5698C19.5752 25.8302 20 25.8302 20.2609 25.5698C20.5202 25.3095 20.5213 24.8855 20.2609 24.6239C20.2516 24.6146 19.3224 23.6427 19.3972 23.5673C19.4714 23.4925 20.6553 24.7243 20.6773 24.7468C20.9371 25.0067 21.3617 25.0067 21.6226 24.7468C21.883 24.4865 21.8825 24.0626 21.6226 23.8016C21.6099 23.7894 21.5566 23.7384 21.5368 23.718C21.5368 23.718 20.363 22.6724 20.4524 22.5831C20.5428 22.4932 22.0008 23.8538 22.0032 23.8538C22.2652 24.0898 22.6689 24.0881 22.9211 23.8358C23.1664 23.5905 23.1717 23.2025 22.9542 22.941C22.9496 22.9271 21.843 21.7707 21.9294 21.6837C22.017 21.5956 23.1119 22.723 23.1142 22.7253C23.3734 22.9851 23.7985 22.9851 24.0595 22.7253C24.3193 22.4655 24.3193 22.041 24.0595 21.7789C24.056 21.7766 24.0514 21.7743 24.0479 21.772Z" fill="#FF8992"/>
</svg>
