<svg width="13" height="13" viewBox="0 0 13 13" fill="none" xmlns="http://www.w3.org/2000/svg">
<g clip-path="url(#clip0)">
<path d="M12.881 6.00818L7.8287 0.955645C7.09592 0.223118 5.90408 0.223118 5.1713 0.955645L0.11902 6.00818C-0.0396732 6.16687 -0.0396732 6.42408 0.11902 6.58277C0.277459 6.74146 0.534922 6.74146 0.693361 6.58277L1.01557 6.26056V11.4251C1.01557 12.0701 1.5385 12.593 2.18355 12.593H4.21482C4.35505 12.593 4.46873 12.4794 4.46873 12.3391V8.58129C4.46873 7.88014 5.03713 7.31174 5.73827 7.31174H7.26173C7.96287 7.31174 8.53127 7.88014 8.53127 8.58129V12.3391C8.53127 12.4794 8.64494 12.593 8.78518 12.593H10.8164C11.4615 12.593 11.9844 12.0701 11.9844 11.4251V6.26056L12.3066 6.58277C12.3859 6.66199 12.49 6.70185 12.5938 6.70185C12.6977 6.70185 12.8018 6.66199 12.881 6.58277C13.0397 6.42408 13.0397 6.16687 12.881 6.00818Z" fill="#E81D2C"/>
</g>
<defs>
<clipPath id="clip0">
<rect width="13" height="13" fill="white"/>
</clipPath>
</defs>
</svg>
