<svg width="60" height="60" viewBox="0 0 60 60" fill="none" xmlns="http://www.w3.org/2000/svg">
<path d="M49.6875 7.5H39.375V5.625C39.375 2.51836 36.8566 0 33.75 0H26.25C23.1434 0 20.625 2.51836 20.625 5.625V7.5H10.3125C7.72371 7.5 5.625 9.59871 5.625 12.1875V15.9375C5.625 16.9731 6.46441 17.8125 7.5 17.8125H52.5C53.5356 17.8125 54.375 16.9731 54.375 15.9375V12.1875C54.375 9.59871 52.2763 7.5 49.6875 7.5ZM24.375 5.625C24.375 4.59141 25.2164 3.75 26.25 3.75H33.75C34.7836 3.75 35.625 4.59141 35.625 5.625V7.5H24.375V5.625Z" fill="#E81D2C"/>
<path d="M9.1831 21.5625C8.84853 21.5625 8.58192 21.8421 8.59786 22.1763L10.1447 54.6422C10.2877 57.6469 12.7557 60 15.7627 60H44.2369C47.244 60 49.7119 57.6469 49.8549 54.6422L51.4018 22.1763C51.4177 21.8421 51.1511 21.5625 50.8165 21.5625H9.1831ZM37.4998 26.25C37.4998 25.2141 38.3389 24.375 39.3748 24.375C40.4108 24.375 41.2498 25.2141 41.2498 26.25V50.625C41.2498 51.6609 40.4108 52.5 39.3748 52.5C38.3389 52.5 37.4998 51.6609 37.4998 50.625V26.25ZM28.1248 26.25C28.1248 25.2141 28.9639 24.375 29.9998 24.375C31.0358 24.375 31.8748 25.2141 31.8748 26.25V50.625C31.8748 51.6609 31.0358 52.5 29.9998 52.5C28.9639 52.5 28.1248 51.6609 28.1248 50.625V26.25ZM18.7498 26.25C18.7498 25.2141 19.5889 24.375 20.6248 24.375C21.6608 24.375 22.4998 25.2141 22.4998 26.25V50.625C22.4998 51.6609 21.6608 52.5 20.6248 52.5C19.5889 52.5 18.7498 51.6609 18.7498 50.625V26.25Z" fill="#E81D2C"/>
</svg>
