<svg width="70" height="70" viewBox="0 0 70 70" fill="none" xmlns="http://www.w3.org/2000/svg">
<path d="M35.002 0C15.6785 0 0.00195312 15.6567 0.00195312 34.9816C0.00195312 54.3249 15.6785 70 35.0019 70C54.336 70 69.9992 54.3248 69.9992 34.9816C69.9994 15.6567 54.336 0 35.002 0ZM37.4961 54.4566C36.6832 55.18 35.7412 55.5435 34.674 55.5435C33.5698 55.5435 32.6066 55.1865 31.7845 54.471C30.9611 53.7568 30.5486 52.7569 30.5486 51.4721C30.5486 50.3325 30.9478 49.3732 31.7437 48.5958C32.5395 47.8184 33.5158 47.4297 34.674 47.4297C35.8136 47.4297 36.7729 47.8184 37.5516 48.5958C38.329 49.3732 38.7189 50.3323 38.7189 51.4721C38.7175 52.7384 38.3103 53.7333 37.4961 54.4566ZM47.6322 29.3279C47.0077 30.486 46.2659 31.4846 45.4055 32.3267C44.5478 33.1686 43.005 34.5837 40.7782 36.5732C40.1642 37.1345 39.6701 37.6273 39.2999 38.0515C38.9297 38.4771 38.653 38.8656 38.4724 39.2188C38.2905 39.5719 38.151 39.9251 38.0521 40.2781C37.9532 40.6298 37.8044 41.2505 37.6028 42.1371C37.2603 44.0187 36.1838 44.9593 34.3747 44.9593C33.434 44.9593 32.6434 44.6523 31.9991 44.037C31.3574 43.4217 31.0373 42.5086 31.0373 41.2965C31.0373 39.7774 31.2731 38.4611 31.7435 37.3478C32.2113 36.2344 32.8371 35.2581 33.6145 34.4162C34.3932 33.5743 35.4419 32.5755 36.7635 31.4174C37.9216 30.4041 38.7583 29.64 39.2735 29.1248C39.7899 28.6083 40.2235 28.0339 40.5752 27.4014C40.9297 26.7676 41.1036 26.0812 41.1036 25.3394C41.1036 23.8915 40.5674 22.6714 39.4897 21.6766C38.4132 20.6819 37.0244 20.1838 35.3235 20.1838C33.3327 20.1838 31.8675 20.6858 30.9267 21.6898C29.986 22.6938 29.1915 24.172 28.5393 26.1261C27.9227 28.171 26.7553 29.1933 25.0384 29.1933C24.0252 29.1933 23.1702 28.8362 22.4732 28.1221C21.7775 27.4079 21.4296 26.6345 21.4296 25.8019C21.4296 24.0837 21.9817 22.3419 23.0846 20.5777C24.1887 18.8135 25.7988 17.3522 27.916 16.1954C30.032 15.0372 32.5026 14.4574 35.3235 14.4574C37.9467 14.4574 40.2617 14.9422 42.2697 15.9107C44.2777 16.8778 45.8297 18.1941 46.9247 19.8594C48.0183 21.5235 48.5663 23.3326 48.5663 25.2866C48.5689 26.8218 48.2567 28.1697 47.6322 29.3279Z" fill="#E81D2C"/>
</svg>
