<svg width="222" height="93" viewBox="0 0 222 93" fill="none" xmlns="http://www.w3.org/2000/svg">
<path d="M9.56836 65.9072C9.56836 67.557 9.11035 68.8193 8.19434 69.6943C7.27832 70.5648 5.95898 71 4.23633 71H1.44043V61.0059H4.53027C6.12077 61.0059 7.35807 61.4342 8.24219 62.291C9.1263 63.1478 9.56836 64.3532 9.56836 65.9072ZM7.8457 65.9619C7.8457 63.5693 6.72689 62.373 4.48926 62.373H3.07422V69.626H4.23633C6.64258 69.626 7.8457 68.4046 7.8457 65.9619ZM15.3857 63.3027C15.7093 63.3027 15.9759 63.3255 16.1855 63.3711L16.0283 64.8682C15.8005 64.8135 15.5635 64.7861 15.3174 64.7861C14.6748 64.7861 14.153 64.9958 13.752 65.415C13.3555 65.8343 13.1572 66.3789 13.1572 67.0488V71H11.5508V63.4395H12.8086L13.0205 64.7725H13.1025C13.3532 64.3213 13.679 63.9635 14.0801 63.6992C14.4857 63.4349 14.9209 63.3027 15.3857 63.3027ZM22.3242 71L22.0029 69.9473H21.9482C21.5837 70.4076 21.2168 70.722 20.8477 70.8906C20.4785 71.0547 20.0046 71.1367 19.4258 71.1367C18.6829 71.1367 18.1019 70.9362 17.6826 70.5352C17.2679 70.1341 17.0605 69.5667 17.0605 68.833C17.0605 68.0537 17.3499 67.4658 17.9287 67.0693C18.5075 66.6729 19.3893 66.4564 20.5742 66.4199L21.8799 66.3789V65.9756C21.8799 65.4925 21.766 65.1325 21.5381 64.8955C21.3148 64.654 20.9661 64.5332 20.4922 64.5332C20.1048 64.5332 19.7334 64.5902 19.3779 64.7041C19.0225 64.818 18.6807 64.9525 18.3525 65.1074L17.833 63.959C18.2432 63.7448 18.6921 63.583 19.1797 63.4736C19.6673 63.3597 20.1276 63.3027 20.5605 63.3027C21.5221 63.3027 22.2467 63.5124 22.7344 63.9316C23.2266 64.3509 23.4727 65.0094 23.4727 65.9072V71H22.3242ZM19.9316 69.9062C20.515 69.9062 20.9821 69.7445 21.333 69.4209C21.6885 69.0928 21.8662 68.6348 21.8662 68.0469V67.3906L20.8955 67.4316C20.139 67.459 19.5876 67.5866 19.2412 67.8145C18.8994 68.0378 18.7285 68.3818 18.7285 68.8467C18.7285 69.1839 18.8288 69.446 19.0293 69.6328C19.2298 69.8151 19.5306 69.9062 19.9316 69.9062ZM32.0996 63.4395V64.3213L30.8076 64.5605C30.9261 64.7201 31.0241 64.916 31.1016 65.1484C31.179 65.3809 31.2178 65.627 31.2178 65.8867C31.2178 66.666 30.9489 67.279 30.4111 67.7256C29.8734 68.1722 29.1328 68.3955 28.1895 68.3955C27.9479 68.3955 27.7292 68.3773 27.5332 68.3408C27.1868 68.555 27.0137 68.8057 27.0137 69.0928C27.0137 69.266 27.0934 69.3958 27.2529 69.4824C27.417 69.569 27.7155 69.6123 28.1484 69.6123H29.4678C30.3018 69.6123 30.9352 69.79 31.3682 70.1455C31.8011 70.501 32.0176 71.0137 32.0176 71.6836C32.0176 72.5404 31.6644 73.2012 30.958 73.666C30.2516 74.1309 29.2308 74.3633 27.8955 74.3633C26.8656 74.3633 26.0794 74.181 25.5371 73.8164C24.9948 73.4518 24.7236 72.9323 24.7236 72.2578C24.7236 71.793 24.8695 71.401 25.1611 71.082C25.4574 70.7676 25.8698 70.5488 26.3984 70.4258C26.1842 70.3346 26.0065 70.1888 25.8652 69.9883C25.7285 69.7832 25.6602 69.569 25.6602 69.3457C25.6602 69.0632 25.7399 68.8239 25.8994 68.6279C26.0589 68.432 26.2959 68.2383 26.6104 68.0469C26.2184 67.8783 25.8994 67.6048 25.6533 67.2266C25.4118 66.8438 25.291 66.3971 25.291 65.8867C25.291 65.0664 25.5485 64.4307 26.0635 63.9795C26.583 63.5283 27.3213 63.3027 28.2783 63.3027C28.4925 63.3027 28.7158 63.3187 28.9482 63.3506C29.1852 63.3779 29.363 63.4076 29.4814 63.4395H32.0996ZM26.1592 72.1758C26.1592 72.5221 26.3141 72.7887 26.624 72.9756C26.9385 73.1624 27.3783 73.2559 27.9434 73.2559C28.8184 73.2559 29.4701 73.1305 29.8984 72.8799C30.3268 72.6292 30.541 72.2965 30.541 71.8818C30.541 71.5537 30.4225 71.319 30.1855 71.1777C29.9531 71.041 29.5179 70.9727 28.8799 70.9727H27.6631C27.2028 70.9727 26.8359 71.0798 26.5625 71.2939C26.2936 71.5127 26.1592 71.8066 26.1592 72.1758ZM26.8496 65.8867C26.8496 66.3607 26.9704 66.7253 27.2119 66.9805C27.458 67.2357 27.8089 67.3633 28.2646 67.3633C29.1943 67.3633 29.6592 66.8665 29.6592 65.873C29.6592 65.3809 29.543 65.0026 29.3105 64.7383C29.0827 64.4694 28.734 64.335 28.2646 64.335C27.7998 64.335 27.4466 64.4671 27.2051 64.7314C26.9681 64.9958 26.8496 65.3809 26.8496 65.8867ZM35.9961 63.4395H37.7461L39.2842 67.7256C39.5166 68.3363 39.6715 68.9105 39.749 69.4482H39.8037C39.8447 69.1976 39.9199 68.8945 40.0293 68.5391C40.1387 68.179 40.7174 66.4792 41.7656 63.4395H43.502L40.2686 72.0049C39.6807 73.5771 38.7008 74.3633 37.3291 74.3633C36.9736 74.3633 36.6273 74.3245 36.29 74.2471V72.9756C36.5316 73.0303 36.8073 73.0576 37.1172 73.0576C37.8919 73.0576 38.4365 72.6087 38.751 71.7109L39.0312 71L35.9961 63.4395ZM51.3564 67.2061C51.3564 68.4411 51.0397 69.4049 50.4062 70.0977C49.7728 70.7904 48.891 71.1367 47.7607 71.1367C47.0544 71.1367 46.43 70.9772 45.8877 70.6582C45.3454 70.3392 44.9284 69.8812 44.6367 69.2842C44.3451 68.6872 44.1992 67.9945 44.1992 67.2061C44.1992 65.9801 44.5137 65.0231 45.1426 64.335C45.7715 63.6468 46.6579 63.3027 47.8018 63.3027C48.8955 63.3027 49.7614 63.6559 50.3994 64.3623C51.0374 65.0641 51.3564 66.012 51.3564 67.2061ZM45.8535 67.2061C45.8535 68.9515 46.4984 69.8242 47.7881 69.8242C49.0641 69.8242 49.7021 68.9515 49.7021 67.2061C49.7021 65.4788 49.0596 64.6152 47.7744 64.6152C47.0999 64.6152 46.61 64.8385 46.3047 65.2852C46.0039 65.7318 45.8535 66.3721 45.8535 67.2061ZM58.541 71L58.3154 70.0088H58.2334C58.0101 70.3597 57.6911 70.6354 57.2764 70.8359C56.8662 71.0365 56.3968 71.1367 55.8682 71.1367C54.9521 71.1367 54.2686 70.9089 53.8174 70.4531C53.3662 69.9974 53.1406 69.307 53.1406 68.3818V63.4395H54.7607V68.1016C54.7607 68.6803 54.8792 69.1156 55.1162 69.4072C55.3532 69.6943 55.7246 69.8379 56.2305 69.8379C56.9049 69.8379 57.3994 69.6374 57.7139 69.2363C58.0329 68.8307 58.1924 68.154 58.1924 67.2061V63.4395H59.8057V71H58.541ZM65.9307 63.3027C66.2542 63.3027 66.5208 63.3255 66.7305 63.3711L66.5732 64.8682C66.3454 64.8135 66.1084 64.7861 65.8623 64.7861C65.2197 64.7861 64.6979 64.9958 64.2969 65.415C63.9004 65.8343 63.7021 66.3789 63.7021 67.0488V71H62.0957V63.4395H63.3535L63.5654 64.7725H63.6475C63.8981 64.3213 64.224 63.9635 64.625 63.6992C65.0306 63.4349 65.4658 63.3027 65.9307 63.3027ZM73.3818 71H71.7754V63.4395H73.3818V71ZM71.6797 61.4365C71.6797 61.1494 71.7572 60.9284 71.9121 60.7734C72.0716 60.6185 72.2972 60.541 72.5889 60.541C72.8714 60.541 73.0902 60.6185 73.2451 60.7734C73.4046 60.9284 73.4844 61.1494 73.4844 61.4365C73.4844 61.71 73.4046 61.9264 73.2451 62.0859C73.0902 62.2409 72.8714 62.3184 72.5889 62.3184C72.2972 62.3184 72.0716 62.2409 71.9121 62.0859C71.7572 61.9264 71.6797 61.71 71.6797 61.4365ZM82.0566 71H80.4434V66.3379C80.4434 65.7591 80.334 65.3285 80.1152 65.0459C79.8965 64.7588 79.5547 64.6152 79.0898 64.6152C78.4701 64.6152 78.0143 64.818 77.7227 65.2236C77.4355 65.6247 77.292 66.2946 77.292 67.2334V71H75.6855V63.4395H76.9434L77.1689 64.4307H77.251C77.4606 64.0706 77.7637 63.7926 78.1602 63.5967C78.5612 63.4007 79.001 63.3027 79.4795 63.3027C80.6416 63.3027 81.4118 63.6992 81.79 64.4922H81.8994C82.1227 64.1185 82.4372 63.8268 82.8428 63.6172C83.2484 63.4076 83.7132 63.3027 84.2373 63.3027C85.1396 63.3027 85.7959 63.5306 86.2061 63.9863C86.6208 64.4421 86.8281 65.137 86.8281 66.0713V71H85.2217V66.3379C85.2217 65.7591 85.11 65.3285 84.8867 65.0459C84.668 64.7588 84.3262 64.6152 83.8613 64.6152C83.237 64.6152 82.779 64.8112 82.4873 65.2031C82.2002 65.5905 82.0566 66.1875 82.0566 66.9941V71ZM93.8008 71L93.4795 69.9473H93.4248C93.0602 70.4076 92.6934 70.722 92.3242 70.8906C91.9551 71.0547 91.4811 71.1367 90.9023 71.1367C90.1595 71.1367 89.5785 70.9362 89.1592 70.5352C88.7445 70.1341 88.5371 69.5667 88.5371 68.833C88.5371 68.0537 88.8265 67.4658 89.4053 67.0693C89.984 66.6729 90.8659 66.4564 92.0508 66.4199L93.3564 66.3789V65.9756C93.3564 65.4925 93.2425 65.1325 93.0146 64.8955C92.7913 64.654 92.4427 64.5332 91.9688 64.5332C91.5814 64.5332 91.21 64.5902 90.8545 64.7041C90.499 64.818 90.1572 64.9525 89.8291 65.1074L89.3096 63.959C89.7197 63.7448 90.1686 63.583 90.6562 63.4736C91.1439 63.3597 91.6042 63.3027 92.0371 63.3027C92.9987 63.3027 93.7233 63.5124 94.2109 63.9316C94.7031 64.3509 94.9492 65.0094 94.9492 65.9072V71H93.8008ZM91.4082 69.9062C91.9915 69.9062 92.4587 69.7445 92.8096 69.4209C93.165 69.0928 93.3428 68.6348 93.3428 68.0469V67.3906L92.3721 67.4316C91.6156 67.459 91.0641 67.5866 90.7178 67.8145C90.376 68.0378 90.2051 68.3818 90.2051 68.8467C90.2051 69.1839 90.3053 69.446 90.5059 69.6328C90.7064 69.8151 91.0072 69.9062 91.4082 69.9062ZM103.576 63.4395V64.3213L102.284 64.5605C102.403 64.7201 102.501 64.916 102.578 65.1484C102.656 65.3809 102.694 65.627 102.694 65.8867C102.694 66.666 102.425 67.279 101.888 67.7256C101.35 68.1722 100.609 68.3955 99.666 68.3955C99.4245 68.3955 99.2057 68.3773 99.0098 68.3408C98.6634 68.555 98.4902 68.8057 98.4902 69.0928C98.4902 69.266 98.57 69.3958 98.7295 69.4824C98.8936 69.569 99.1921 69.6123 99.625 69.6123H100.944C101.778 69.6123 102.412 69.79 102.845 70.1455C103.278 70.501 103.494 71.0137 103.494 71.6836C103.494 72.5404 103.141 73.2012 102.435 73.666C101.728 74.1309 100.707 74.3633 99.3721 74.3633C98.3421 74.3633 97.556 74.181 97.0137 73.8164C96.4714 73.4518 96.2002 72.9323 96.2002 72.2578C96.2002 71.793 96.346 71.401 96.6377 71.082C96.9339 70.7676 97.3464 70.5488 97.875 70.4258C97.6608 70.3346 97.4831 70.1888 97.3418 69.9883C97.2051 69.7832 97.1367 69.569 97.1367 69.3457C97.1367 69.0632 97.2165 68.8239 97.376 68.6279C97.5355 68.432 97.7725 68.2383 98.0869 68.0469C97.695 67.8783 97.376 67.6048 97.1299 67.2266C96.8883 66.8438 96.7676 66.3971 96.7676 65.8867C96.7676 65.0664 97.0251 64.4307 97.54 63.9795C98.0596 63.5283 98.7979 63.3027 99.7549 63.3027C99.9691 63.3027 100.192 63.3187 100.425 63.3506C100.662 63.3779 100.84 63.4076 100.958 63.4395H103.576ZM97.6357 72.1758C97.6357 72.5221 97.7907 72.7887 98.1006 72.9756C98.415 73.1624 98.8548 73.2559 99.4199 73.2559C100.295 73.2559 100.947 73.1305 101.375 72.8799C101.803 72.6292 102.018 72.2965 102.018 71.8818C102.018 71.5537 101.899 71.319 101.662 71.1777C101.43 71.041 100.994 70.9727 100.356 70.9727H99.1396C98.6794 70.9727 98.3125 71.0798 98.0391 71.2939C97.7702 71.5127 97.6357 71.8066 97.6357 72.1758ZM98.3262 65.8867C98.3262 66.3607 98.4469 66.7253 98.6885 66.9805C98.9346 67.2357 99.2855 67.3633 99.7412 67.3633C100.671 67.3633 101.136 66.8665 101.136 65.873C101.136 65.3809 101.02 65.0026 100.787 64.7383C100.559 64.4694 100.211 64.335 99.7412 64.335C99.2764 64.335 98.9232 64.4671 98.6816 64.7314C98.4447 64.9958 98.3262 65.3809 98.3262 65.8867ZM108.286 71.1367C107.11 71.1367 106.19 70.7949 105.524 70.1113C104.864 69.4232 104.533 68.4775 104.533 67.2744C104.533 66.0394 104.841 65.0687 105.456 64.3623C106.071 63.6559 106.917 63.3027 107.992 63.3027C108.99 63.3027 109.779 63.6058 110.357 64.2119C110.936 64.818 111.226 65.652 111.226 66.7139V67.582H106.188C106.21 68.3158 106.409 68.8809 106.782 69.2773C107.156 69.6693 107.682 69.8652 108.361 69.8652C108.808 69.8652 109.223 69.8242 109.605 69.7422C109.993 69.6556 110.408 69.5143 110.85 69.3184V70.624C110.458 70.8109 110.061 70.943 109.66 71.0205C109.259 71.098 108.801 71.1367 108.286 71.1367ZM107.992 64.5195C107.482 64.5195 107.072 64.6813 106.762 65.0049C106.456 65.3285 106.274 65.8001 106.215 66.4199H109.646C109.637 65.7956 109.487 65.3239 109.195 65.0049C108.904 64.6813 108.503 64.5195 107.992 64.5195ZM123.339 71H121.726V66.3516C121.726 65.7682 121.607 65.333 121.37 65.0459C121.138 64.7588 120.766 64.6152 120.256 64.6152C119.581 64.6152 119.085 64.818 118.766 65.2236C118.451 65.6247 118.294 66.2992 118.294 67.2471V71H116.688V60.3633H118.294V63.0635C118.294 63.4964 118.267 63.959 118.212 64.4512H118.314C118.533 64.0866 118.836 63.804 119.224 63.6035C119.616 63.403 120.071 63.3027 120.591 63.3027C122.423 63.3027 123.339 64.2256 123.339 66.0713V71ZM128.876 71.1367C127.7 71.1367 126.78 70.7949 126.114 70.1113C125.453 69.4232 125.123 68.4775 125.123 67.2744C125.123 66.0394 125.431 65.0687 126.046 64.3623C126.661 63.6559 127.507 63.3027 128.582 63.3027C129.58 63.3027 130.368 63.6058 130.947 64.2119C131.526 64.818 131.815 65.652 131.815 66.7139V67.582H126.777C126.8 68.3158 126.998 68.8809 127.372 69.2773C127.746 69.6693 128.272 69.8652 128.951 69.8652C129.398 69.8652 129.812 69.8242 130.195 69.7422C130.583 69.6556 130.997 69.5143 131.439 69.3184V70.624C131.048 70.8109 130.651 70.943 130.25 71.0205C129.849 71.098 129.391 71.1367 128.876 71.1367ZM128.582 64.5195C128.072 64.5195 127.661 64.6813 127.352 65.0049C127.046 65.3285 126.864 65.8001 126.805 66.4199H130.236C130.227 65.7956 130.077 65.3239 129.785 65.0049C129.493 64.6813 129.092 64.5195 128.582 64.5195ZM137.476 63.3027C137.799 63.3027 138.066 63.3255 138.275 63.3711L138.118 64.8682C137.89 64.8135 137.653 64.7861 137.407 64.7861C136.765 64.7861 136.243 64.9958 135.842 65.415C135.445 65.8343 135.247 66.3789 135.247 67.0488V71H133.641V63.4395H134.898L135.11 64.7725H135.192C135.443 64.3213 135.769 63.9635 136.17 63.6992C136.576 63.4349 137.011 63.3027 137.476 63.3027ZM142.985 71.1367C141.81 71.1367 140.889 70.7949 140.224 70.1113C139.563 69.4232 139.232 68.4775 139.232 67.2744C139.232 66.0394 139.54 65.0687 140.155 64.3623C140.771 63.6559 141.616 63.3027 142.691 63.3027C143.689 63.3027 144.478 63.6058 145.057 64.2119C145.635 64.818 145.925 65.652 145.925 66.7139V67.582H140.887C140.91 68.3158 141.108 68.8809 141.481 69.2773C141.855 69.6693 142.382 69.8652 143.061 69.8652C143.507 69.8652 143.922 69.8242 144.305 69.7422C144.692 69.6556 145.107 69.5143 145.549 69.3184V70.624C145.157 70.8109 144.76 70.943 144.359 71.0205C143.958 71.098 143.5 71.1367 142.985 71.1367ZM142.691 64.5195C142.181 64.5195 141.771 64.6813 141.461 65.0049C141.156 65.3285 140.973 65.8001 140.914 66.4199H144.346C144.337 65.7956 144.186 65.3239 143.895 65.0049C143.603 64.6813 143.202 64.5195 142.691 64.5195ZM149.418 69.5303C149.199 70.3779 148.798 71.4694 148.215 72.8047H147.032C147.347 71.5742 147.581 70.4303 147.736 69.373H149.315L149.418 69.5303ZM161.839 67.2061C161.839 68.4411 161.522 69.4049 160.889 70.0977C160.255 70.7904 159.373 71.1367 158.243 71.1367C157.537 71.1367 156.912 70.9772 156.37 70.6582C155.828 70.3392 155.411 69.8812 155.119 69.2842C154.827 68.6872 154.682 67.9945 154.682 67.2061C154.682 65.9801 154.996 65.0231 155.625 64.335C156.254 63.6468 157.14 63.3027 158.284 63.3027C159.378 63.3027 160.244 63.6559 160.882 64.3623C161.52 65.0641 161.839 66.012 161.839 67.2061ZM156.336 67.2061C156.336 68.9515 156.981 69.8242 158.271 69.8242C159.547 69.8242 160.185 68.9515 160.185 67.2061C160.185 65.4788 159.542 64.6152 158.257 64.6152C157.582 64.6152 157.092 64.8385 156.787 65.2852C156.486 65.7318 156.336 66.3721 156.336 67.2061ZM167.526 63.3027C167.85 63.3027 168.117 63.3255 168.326 63.3711L168.169 64.8682C167.941 64.8135 167.704 64.7861 167.458 64.7861C166.815 64.7861 166.294 64.9958 165.893 65.415C165.496 65.8343 165.298 66.3789 165.298 67.0488V71H163.691V63.4395H164.949L165.161 64.7725H165.243C165.494 64.3213 165.82 63.9635 166.221 63.6992C166.626 63.4349 167.062 63.3027 167.526 63.3027Z" fill="#3C4252"/>
<path d="M177.233 63.3027C178.177 63.3027 178.91 63.6445 179.435 64.3281C179.963 65.0117 180.228 65.971 180.228 67.2061C180.228 68.4456 179.961 69.4118 179.428 70.1045C178.895 70.7926 178.154 71.1367 177.206 71.1367C176.249 71.1367 175.506 70.7926 174.978 70.1045H174.868L174.574 71H173.371V60.3633H174.978V62.8926C174.978 63.0794 174.968 63.3574 174.95 63.7266C174.932 64.0957 174.918 64.3304 174.909 64.4307H174.978C175.488 63.6787 176.24 63.3027 177.233 63.3027ZM176.816 64.6152C176.169 64.6152 175.702 64.8066 175.415 65.1895C175.132 65.5677 174.987 66.2035 174.978 67.0967V67.2061C174.978 68.1266 175.123 68.7943 175.415 69.209C175.707 69.6191 176.183 69.8242 176.844 69.8242C177.413 69.8242 177.844 69.5986 178.136 69.1475C178.432 68.6963 178.58 68.0446 178.58 67.1924C178.58 65.4743 177.992 64.6152 176.816 64.6152ZM185.929 63.3027C186.252 63.3027 186.519 63.3255 186.729 63.3711L186.571 64.8682C186.343 64.8135 186.106 64.7861 185.86 64.7861C185.218 64.7861 184.696 64.9958 184.295 65.415C183.898 65.8343 183.7 66.3789 183.7 67.0488V71H182.094V63.4395H183.352L183.563 64.7725H183.646C183.896 64.3213 184.222 63.9635 184.623 63.6992C185.029 63.4349 185.464 63.3027 185.929 63.3027ZM194.843 67.2061C194.843 68.4411 194.526 69.4049 193.893 70.0977C193.259 70.7904 192.377 71.1367 191.247 71.1367C190.541 71.1367 189.916 70.9772 189.374 70.6582C188.832 70.3392 188.415 69.8812 188.123 69.2842C187.831 68.6872 187.686 67.9945 187.686 67.2061C187.686 65.9801 188 65.0231 188.629 64.335C189.258 63.6468 190.144 63.3027 191.288 63.3027C192.382 63.3027 193.248 63.6559 193.886 64.3623C194.524 65.0641 194.843 66.012 194.843 67.2061ZM189.34 67.2061C189.34 68.9515 189.985 69.8242 191.274 69.8242C192.55 69.8242 193.188 68.9515 193.188 67.2061C193.188 65.4788 192.546 64.6152 191.261 64.6152C190.586 64.6152 190.096 64.8385 189.791 65.2852C189.49 65.7318 189.34 66.3721 189.34 67.2061ZM202.896 71L201.918 67.4727C201.799 67.099 201.585 66.2308 201.275 64.8682H201.214C200.95 66.0986 200.74 66.9714 200.585 67.4863L199.58 71H197.803L195.684 63.4395H197.324L198.288 67.165C198.507 68.0856 198.662 68.874 198.753 69.5303H198.794C198.84 69.1976 198.908 68.8171 198.999 68.3887C199.095 67.9557 199.177 67.6322 199.245 67.418L200.394 63.4395H202.157L203.271 67.418C203.34 67.6413 203.424 67.9831 203.524 68.4434C203.629 68.9036 203.691 69.2614 203.709 69.5166H203.764C203.832 68.9561 203.992 68.1722 204.242 67.165L205.22 63.4395H206.833L204.7 71H202.896ZM213.218 68.8467C213.218 69.585 212.949 70.1523 212.411 70.5488C211.873 70.9408 211.103 71.1367 210.101 71.1367C209.093 71.1367 208.285 70.984 207.674 70.6787V69.291C208.562 69.7012 209.39 69.9062 210.155 69.9062C211.144 69.9062 211.639 69.6077 211.639 69.0107C211.639 68.8193 211.584 68.6598 211.475 68.5322C211.365 68.4046 211.185 68.2725 210.935 68.1357C210.684 67.999 210.335 67.8441 209.889 67.6709C209.018 67.3337 208.428 66.9964 208.118 66.6592C207.813 66.3219 207.66 65.8844 207.66 65.3467C207.66 64.6995 207.92 64.1982 208.439 63.8428C208.964 63.4827 209.674 63.3027 210.572 63.3027C211.461 63.3027 212.302 63.4827 213.095 63.8428L212.575 65.0527C211.759 64.7155 211.074 64.5469 210.518 64.5469C209.67 64.5469 209.246 64.7884 209.246 65.2715C209.246 65.5085 209.355 65.709 209.574 65.873C209.798 66.0371 210.281 66.2627 211.023 66.5498C211.648 66.7913 212.101 67.0124 212.384 67.2129C212.666 67.4134 212.876 67.6458 213.013 67.9102C213.149 68.1699 213.218 68.4821 213.218 68.8467ZM218.263 71.1367C217.087 71.1367 216.166 70.7949 215.501 70.1113C214.84 69.4232 214.51 68.4775 214.51 67.2744C214.51 66.0394 214.817 65.0687 215.433 64.3623C216.048 63.6559 216.893 63.3027 217.969 63.3027C218.967 63.3027 219.755 63.6058 220.334 64.2119C220.913 64.818 221.202 65.652 221.202 66.7139V67.582H216.164C216.187 68.3158 216.385 68.8809 216.759 69.2773C217.132 69.6693 217.659 69.8652 218.338 69.8652C218.785 69.8652 219.199 69.8242 219.582 69.7422C219.969 69.6556 220.384 69.5143 220.826 69.3184V70.624C220.434 70.8109 220.038 70.943 219.637 71.0205C219.236 71.098 218.778 71.1367 218.263 71.1367ZM217.969 64.5195C217.458 64.5195 217.048 64.6813 216.738 65.0049C216.433 65.3285 216.251 65.8001 216.191 66.4199H219.623C219.614 65.7956 219.464 65.3239 219.172 65.0049C218.88 64.6813 218.479 64.5195 217.969 64.5195Z" fill="#E81D2C"/>
<path d="M52.0098 88.1006C52.0098 88.7288 51.7819 89.2188 51.3262 89.5703C50.8704 89.9219 50.252 90.0977 49.4707 90.0977C48.6243 90.0977 47.9733 89.9886 47.5176 89.7705V88.9697C47.8105 89.0934 48.1296 89.1911 48.4746 89.2627C48.8197 89.3343 49.1615 89.3701 49.5 89.3701C50.0534 89.3701 50.4701 89.266 50.75 89.0576C51.0299 88.846 51.1699 88.5531 51.1699 88.1787C51.1699 87.9313 51.1195 87.7295 51.0186 87.5732C50.9209 87.4137 50.7549 87.2673 50.5205 87.1338C50.2894 87.0003 49.9362 86.849 49.4609 86.6797C48.7969 86.4421 48.3216 86.1605 48.0352 85.835C47.752 85.5094 47.6104 85.0846 47.6104 84.5605C47.6104 84.0104 47.8171 83.5726 48.2305 83.2471C48.6439 82.9215 49.1908 82.7588 49.8711 82.7588C50.5807 82.7588 51.2334 82.889 51.8291 83.1494L51.5703 83.8721C50.9811 83.6247 50.4082 83.501 49.8516 83.501C49.4121 83.501 49.0687 83.5954 48.8213 83.7842C48.5739 83.973 48.4502 84.235 48.4502 84.5703C48.4502 84.8177 48.4958 85.0212 48.5869 85.1807C48.6781 85.3369 48.8311 85.4818 49.0459 85.6152C49.264 85.7454 49.596 85.8903 50.042 86.0498C50.7907 86.3167 51.305 86.6032 51.585 86.9092C51.8682 87.2152 52.0098 87.6123 52.0098 88.1006ZM54.1094 84.6484V88.1201C54.1094 88.5563 54.2087 88.8818 54.4072 89.0967C54.6058 89.3115 54.9167 89.4189 55.3398 89.4189C55.8997 89.4189 56.3083 89.266 56.5654 88.96C56.8258 88.654 56.9561 88.1543 56.9561 87.4609V84.6484H57.7666V90H57.0977L56.9805 89.2822H56.9365C56.7705 89.5459 56.5394 89.7477 56.2432 89.8877C55.9502 90.0277 55.6149 90.0977 55.2373 90.0977C54.5863 90.0977 54.098 89.943 53.7725 89.6338C53.4502 89.3245 53.2891 88.8298 53.2891 88.1494V84.6484H54.1094ZM61.9805 90.0977C61.6322 90.0977 61.3132 90.0342 61.0234 89.9072C60.737 89.777 60.4961 89.5785 60.3008 89.3115H60.2422C60.2812 89.624 60.3008 89.9202 60.3008 90.2002V92.4023H59.4902V84.6484H60.1494L60.2617 85.3809H60.3008C60.5091 85.0879 60.7516 84.8763 61.0283 84.7461C61.305 84.6159 61.6224 84.5508 61.9805 84.5508C62.6901 84.5508 63.237 84.7933 63.6211 85.2783C64.0085 85.7633 64.2021 86.4437 64.2021 87.3193C64.2021 88.1982 64.0052 88.8818 63.6113 89.3701C63.2207 89.8551 62.6771 90.0977 61.9805 90.0977ZM61.8633 85.2393C61.3164 85.2393 60.9209 85.3906 60.6768 85.6934C60.4326 85.9961 60.3073 86.4779 60.3008 87.1387V87.3193C60.3008 88.0713 60.4261 88.61 60.6768 88.9355C60.9274 89.2578 61.3294 89.4189 61.8828 89.4189C62.3451 89.4189 62.7064 89.2318 62.9668 88.8574C63.2305 88.4831 63.3623 87.9671 63.3623 87.3096C63.3623 86.6423 63.2305 86.1312 62.9668 85.7764C62.7064 85.4183 62.3385 85.2393 61.8633 85.2393ZM68.1133 90.0977C67.765 90.0977 67.446 90.0342 67.1562 89.9072C66.8698 89.777 66.6289 89.5785 66.4336 89.3115H66.375C66.4141 89.624 66.4336 89.9202 66.4336 90.2002V92.4023H65.623V84.6484H66.2822L66.3945 85.3809H66.4336C66.6419 85.0879 66.8844 84.8763 67.1611 84.7461C67.4378 84.6159 67.7552 84.5508 68.1133 84.5508C68.8229 84.5508 69.3698 84.7933 69.7539 85.2783C70.1413 85.7633 70.335 86.4437 70.335 87.3193C70.335 88.1982 70.138 88.8818 69.7441 89.3701C69.3535 89.8551 68.8099 90.0977 68.1133 90.0977ZM67.9961 85.2393C67.4492 85.2393 67.0537 85.3906 66.8096 85.6934C66.5654 85.9961 66.4401 86.4779 66.4336 87.1387V87.3193C66.4336 88.0713 66.5589 88.61 66.8096 88.9355C67.0602 89.2578 67.4622 89.4189 68.0156 89.4189C68.4779 89.4189 68.8392 89.2318 69.0996 88.8574C69.3633 88.4831 69.4951 87.9671 69.4951 87.3096C69.4951 86.6423 69.3633 86.1312 69.0996 85.7764C68.8392 85.4183 68.4714 85.2393 67.9961 85.2393ZM76.375 87.3193C76.375 88.1917 76.1553 88.8737 75.7158 89.3652C75.2764 89.8535 74.6693 90.0977 73.8945 90.0977C73.416 90.0977 72.9912 89.9854 72.6201 89.7607C72.249 89.5361 71.9626 89.2139 71.7607 88.7939C71.5589 88.374 71.458 87.8825 71.458 87.3193C71.458 86.4469 71.6761 85.7682 72.1123 85.2832C72.5485 84.7949 73.154 84.5508 73.9287 84.5508C74.6774 84.5508 75.2715 84.7998 75.7109 85.2979C76.1536 85.7959 76.375 86.4697 76.375 87.3193ZM72.2979 87.3193C72.2979 88.0029 72.4346 88.5238 72.708 88.8818C72.9814 89.2399 73.3835 89.4189 73.9141 89.4189C74.4447 89.4189 74.8467 89.2415 75.1201 88.8867C75.3968 88.5286 75.5352 88.0062 75.5352 87.3193C75.5352 86.639 75.3968 86.123 75.1201 85.7715C74.8467 85.4167 74.4414 85.2393 73.9043 85.2393C73.3737 85.2393 72.9733 85.4134 72.7031 85.7617C72.4329 86.11 72.2979 86.6292 72.2979 87.3193ZM80.2422 84.5508C80.4798 84.5508 80.693 84.5703 80.8818 84.6094L80.7695 85.3613C80.5482 85.3125 80.3529 85.2881 80.1836 85.2881C79.7507 85.2881 79.3796 85.4639 79.0703 85.8154C78.7643 86.167 78.6113 86.6048 78.6113 87.1289V90H77.8008V84.6484H78.4697L78.5625 85.6396H78.6016C78.8001 85.2913 79.0394 85.0228 79.3193 84.834C79.5993 84.6452 79.9069 84.5508 80.2422 84.5508ZM83.6113 89.4287C83.7546 89.4287 83.8929 89.4189 84.0264 89.3994C84.1598 89.3766 84.2656 89.3538 84.3438 89.3311V89.9512C84.2559 89.9935 84.1257 90.0277 83.9531 90.0537C83.7839 90.083 83.6309 90.0977 83.4941 90.0977C82.459 90.0977 81.9414 89.5524 81.9414 88.4619V85.2783H81.1748V84.8877L81.9414 84.5508L82.2832 83.4082H82.752V84.6484H84.3047V85.2783H82.752V88.4277C82.752 88.75 82.8285 88.9974 82.9814 89.1699C83.1344 89.3424 83.3444 89.4287 83.6113 89.4287ZM88.8701 88.54C88.8701 89.0381 88.6846 89.4222 88.3135 89.6924C87.9424 89.9626 87.4215 90.0977 86.751 90.0977C86.0413 90.0977 85.488 89.9854 85.0908 89.7607V89.0088C85.348 89.139 85.623 89.2415 85.916 89.3164C86.2122 89.3913 86.4971 89.4287 86.7705 89.4287C87.1937 89.4287 87.5192 89.362 87.7471 89.2285C87.9749 89.0918 88.0889 88.8851 88.0889 88.6084C88.0889 88.4001 87.9977 88.2227 87.8154 88.0762C87.6364 87.9264 87.2848 87.7507 86.7607 87.5488C86.2627 87.3633 85.9079 87.2021 85.6963 87.0654C85.488 86.9255 85.3317 86.7676 85.2275 86.5918C85.1266 86.416 85.0762 86.2061 85.0762 85.9619C85.0762 85.5257 85.2536 85.1823 85.6084 84.9316C85.9632 84.6777 86.4499 84.5508 87.0684 84.5508C87.6445 84.5508 88.2077 84.668 88.7578 84.9023L88.4697 85.5615C87.9326 85.3402 87.446 85.2295 87.0098 85.2295C86.6257 85.2295 86.3359 85.2897 86.1406 85.4102C85.9453 85.5306 85.8477 85.6966 85.8477 85.9082C85.8477 86.0514 85.8835 86.1735 85.9551 86.2744C86.0299 86.3753 86.1488 86.4714 86.3115 86.5625C86.4743 86.6536 86.7868 86.7855 87.249 86.958C87.8838 87.1891 88.3118 87.4219 88.5332 87.6562C88.7578 87.8906 88.8701 88.1852 88.8701 88.54ZM91.873 91.8799C91.5671 91.8799 91.3262 91.8359 91.1504 91.748V91.04C91.3815 91.1051 91.6224 91.1377 91.873 91.1377C92.1953 91.1377 92.4395 91.04 92.6055 90.8447C92.7747 90.6494 92.8594 90.3678 92.8594 90V82.8613H93.6895V89.9316C93.6895 90.5501 93.5332 91.0286 93.2207 91.3672C92.9082 91.709 92.459 91.8799 91.873 91.8799ZM100.115 84.9414C100.115 85.6641 99.8678 86.2207 99.373 86.6113C98.8815 86.9987 98.1768 87.1924 97.2588 87.1924H96.4189V90H95.5889V82.8613H97.4395C99.2233 82.8613 100.115 83.5547 100.115 84.9414ZM96.4189 86.4795H97.166C97.9017 86.4795 98.4339 86.3607 98.7627 86.123C99.0915 85.8854 99.2559 85.5046 99.2559 84.9805C99.2559 84.5085 99.1012 84.1569 98.792 83.9258C98.4827 83.6947 98.001 83.5791 97.3467 83.5791H96.4189V86.4795ZM104.754 86.2598H107.181V89.7314C106.803 89.8519 106.419 89.943 106.028 90.0049C105.638 90.0667 105.185 90.0977 104.671 90.0977C103.59 90.0977 102.749 89.777 102.146 89.1357C101.544 88.4912 101.243 87.5895 101.243 86.4307C101.243 85.6885 101.391 85.0391 101.688 84.4824C101.987 83.9225 102.417 83.4961 102.977 83.2031C103.536 82.9069 104.192 82.7588 104.944 82.7588C105.706 82.7588 106.416 82.8988 107.073 83.1787L106.751 83.9111C106.106 83.6377 105.486 83.501 104.891 83.501C104.021 83.501 103.343 83.7598 102.854 84.2773C102.366 84.7949 102.122 85.5127 102.122 86.4307C102.122 87.3942 102.356 88.125 102.825 88.623C103.297 89.1211 103.989 89.3701 104.9 89.3701C105.395 89.3701 105.879 89.3132 106.351 89.1992V87.002H104.754V86.2598ZM109.627 88.8379L109.7 88.9502C109.616 89.2757 109.493 89.6533 109.334 90.083C109.174 90.516 109.008 90.918 108.836 91.2891H108.226C108.313 90.9505 108.41 90.5322 108.514 90.0342C108.621 89.5361 108.696 89.1374 108.738 88.8379H109.627ZM112.908 91.8799C112.602 91.8799 112.361 91.8359 112.186 91.748V91.04C112.417 91.1051 112.658 91.1377 112.908 91.1377C113.23 91.1377 113.475 91.04 113.641 90.8447C113.81 90.6494 113.895 90.3678 113.895 90V82.8613H114.725V89.9316C114.725 90.5501 114.568 91.0286 114.256 91.3672C113.943 91.709 113.494 91.8799 112.908 91.8799ZM121.15 84.9414C121.15 85.6641 120.903 86.2207 120.408 86.6113C119.917 86.9987 119.212 87.1924 118.294 87.1924H117.454V90H116.624V82.8613H118.475C120.258 82.8613 121.15 83.5547 121.15 84.9414ZM117.454 86.4795H118.201C118.937 86.4795 119.469 86.3607 119.798 86.123C120.127 85.8854 120.291 85.5046 120.291 84.9805C120.291 84.5085 120.136 84.1569 119.827 83.9258C119.518 83.6947 119.036 83.5791 118.382 83.5791H117.454V86.4795ZM126.629 90H122.649V82.8613H126.629V83.5986H123.479V85.8984H126.438V86.6309H123.479V89.2578H126.629V90ZM131.355 86.2598H133.782V89.7314C133.405 89.8519 133.021 89.943 132.63 90.0049C132.239 90.0667 131.787 90.0977 131.272 90.0977C130.192 90.0977 129.35 89.777 128.748 89.1357C128.146 88.4912 127.845 87.5895 127.845 86.4307C127.845 85.6885 127.993 85.0391 128.289 84.4824C128.589 83.9225 129.018 83.4961 129.578 83.2031C130.138 82.9069 130.794 82.7588 131.546 82.7588C132.308 82.7588 133.017 82.8988 133.675 83.1787L133.353 83.9111C132.708 83.6377 132.088 83.501 131.492 83.501C130.623 83.501 129.944 83.7598 129.456 84.2773C128.968 84.7949 128.724 85.5127 128.724 86.4307C128.724 87.3942 128.958 88.125 129.427 88.623C129.899 89.1211 130.59 89.3701 131.502 89.3701C131.997 89.3701 132.48 89.3132 132.952 89.1992V87.002H131.355V86.2598ZM141.268 90L141.106 89.2383H141.067C140.8 89.5736 140.534 89.8014 140.267 89.9219C140.003 90.0391 139.673 90.0977 139.275 90.0977C138.745 90.0977 138.328 89.9609 138.025 89.6875C137.726 89.4141 137.576 89.0251 137.576 88.5205C137.576 87.4398 138.44 86.8734 140.169 86.8213L141.077 86.792V86.46C141.077 86.04 140.986 85.7308 140.804 85.5322C140.625 85.3304 140.337 85.2295 139.939 85.2295C139.493 85.2295 138.989 85.3662 138.426 85.6396L138.177 85.0195C138.44 84.8763 138.729 84.764 139.041 84.6826C139.357 84.6012 139.673 84.5605 139.988 84.5605C140.626 84.5605 141.098 84.7021 141.404 84.9854C141.714 85.2686 141.868 85.7227 141.868 86.3477V90H141.268ZM139.437 89.4287C139.941 89.4287 140.337 89.2904 140.623 89.0137C140.913 88.737 141.058 88.3496 141.058 87.8516V87.3682L140.247 87.4023C139.603 87.4251 139.137 87.526 138.851 87.7051C138.567 87.8809 138.426 88.1559 138.426 88.5303C138.426 88.8232 138.514 89.0462 138.689 89.1992C138.868 89.3522 139.118 89.4287 139.437 89.4287ZM147.205 90V86.5381C147.205 86.1019 147.106 85.7764 146.907 85.5615C146.709 85.3467 146.398 85.2393 145.975 85.2393C145.415 85.2393 145.005 85.3906 144.744 85.6934C144.484 85.9961 144.354 86.4958 144.354 87.1924V90H143.543V84.6484H144.202L144.334 85.3809H144.373C144.539 85.1172 144.772 84.9137 145.071 84.7705C145.371 84.624 145.704 84.5508 146.072 84.5508C146.717 84.5508 147.202 84.707 147.527 85.0195C147.853 85.3288 148.016 85.8252 148.016 86.5088V90H147.205ZM153.328 89.2822H153.284C152.91 89.8258 152.35 90.0977 151.604 90.0977C150.905 90.0977 150.359 89.8584 149.969 89.3799C149.581 88.9014 149.388 88.221 149.388 87.3389C149.388 86.4567 149.583 85.7715 149.974 85.2832C150.364 84.7949 150.908 84.5508 151.604 84.5508C152.33 84.5508 152.887 84.8145 153.274 85.3418H153.338L153.304 84.9561L153.284 84.5801V82.4023H154.095V90H153.436L153.328 89.2822ZM151.707 89.4189C152.26 89.4189 152.661 89.2692 152.908 88.9697C153.159 88.667 153.284 88.1803 153.284 87.5098V87.3389C153.284 86.5804 153.157 86.04 152.903 85.7178C152.653 85.3923 152.251 85.2295 151.697 85.2295C151.222 85.2295 150.857 85.415 150.604 85.7861C150.353 86.154 150.228 86.6748 150.228 87.3486C150.228 88.0322 150.353 88.5482 150.604 88.8965C150.854 89.2448 151.222 89.4189 151.707 89.4189ZM163.064 84.9414C163.064 85.6641 162.817 86.2207 162.322 86.6113C161.831 86.9987 161.126 87.1924 160.208 87.1924H159.368V90H158.538V82.8613H160.389C162.173 82.8613 163.064 83.5547 163.064 84.9414ZM159.368 86.4795H160.115C160.851 86.4795 161.383 86.3607 161.712 86.123C162.041 85.8854 162.205 85.5046 162.205 84.9805C162.205 84.5085 162.05 84.1569 161.741 83.9258C161.432 83.6947 160.95 83.5791 160.296 83.5791H159.368V86.4795ZM170.14 90H169.192L165.291 84.0088H165.252C165.304 84.7119 165.33 85.3564 165.33 85.9424V90H164.563V82.8613H165.501L169.393 88.8281H169.432C169.425 88.7402 169.41 88.4587 169.388 87.9834C169.365 87.5049 169.357 87.1631 169.363 86.958V82.8613H170.14V90ZM175.242 86.2598H177.669V89.7314C177.291 89.8519 176.907 89.943 176.517 90.0049C176.126 90.0667 175.674 90.0977 175.159 90.0977C174.078 90.0977 173.237 89.777 172.635 89.1357C172.033 88.4912 171.731 87.5895 171.731 86.4307C171.731 85.6885 171.88 85.0391 172.176 84.4824C172.475 83.9225 172.905 83.4961 173.465 83.2031C174.025 82.9069 174.681 82.7588 175.433 82.7588C176.194 82.7588 176.904 82.8988 177.562 83.1787L177.239 83.9111C176.595 83.6377 175.975 83.501 175.379 83.501C174.51 83.501 173.831 83.7598 173.343 84.2773C172.854 84.7949 172.61 85.5127 172.61 86.4307C172.61 87.3942 172.845 88.125 173.313 88.623C173.785 89.1211 174.477 89.3701 175.389 89.3701C175.883 89.3701 176.367 89.3132 176.839 89.1992V87.002H175.242V86.2598Z" fill="#BCBCBC"/>
<path d="M80.6406 45H79.6914V38.8945C79.6914 38.3867 79.707 37.9062 79.7383 37.4531C79.6562 37.5352 79.5645 37.6211 79.4629 37.7109C79.3613 37.8008 78.8965 38.1816 78.0684 38.8535L77.5527 38.1855L79.8203 36.4336H80.6406V45ZM89.5352 45H83.9043V44.1621L86.1602 41.8945C86.8477 41.1992 87.3008 40.7031 87.5195 40.4062C87.7383 40.1094 87.9023 39.8203 88.0117 39.5391C88.1211 39.2578 88.1758 38.9551 88.1758 38.6309C88.1758 38.1738 88.0371 37.8125 87.7598 37.5469C87.4824 37.2773 87.0977 37.1426 86.6055 37.1426C86.25 37.1426 85.9121 37.2012 85.5918 37.3184C85.2754 37.4355 84.9219 37.6484 84.5312 37.957L84.0156 37.2949C84.8047 36.6387 85.6641 36.3105 86.5938 36.3105C87.3984 36.3105 88.0293 36.5176 88.4863 36.9316C88.9434 37.3418 89.1719 37.8945 89.1719 38.5898C89.1719 39.1328 89.0195 39.6699 88.7148 40.2012C88.4102 40.7324 87.8398 41.4043 87.0039 42.2168L85.1289 44.0508V44.0977H89.5352V45ZM96.4492 40.7051C96.4492 42.1855 96.2148 43.291 95.7461 44.0215C95.2812 44.752 94.5684 45.1172 93.6074 45.1172C92.6855 45.1172 91.9844 44.7441 91.5039 43.998C91.0234 43.248 90.7832 42.1504 90.7832 40.7051C90.7832 39.2129 91.0156 38.1055 91.4805 37.3828C91.9453 36.6602 92.6543 36.2988 93.6074 36.2988C94.5371 36.2988 95.2422 36.6758 95.7227 37.4297C96.207 38.1836 96.4492 39.2754 96.4492 40.7051ZM91.7676 40.7051C91.7676 41.9512 91.9141 42.8594 92.207 43.4297C92.5 43.9961 92.9668 44.2793 93.6074 44.2793C94.2559 44.2793 94.7246 43.9922 95.0137 43.418C95.3066 42.8398 95.4531 41.9355 95.4531 40.7051C95.4531 39.4746 95.3066 38.5742 95.0137 38.0039C94.7246 37.4297 94.2559 37.1426 93.6074 37.1426C92.9668 37.1426 92.5 37.4258 92.207 37.9922C91.9141 38.5547 91.7676 39.459 91.7676 40.7051ZM103.316 40.7051C103.316 42.1855 103.082 43.291 102.613 44.0215C102.148 44.752 101.436 45.1172 100.475 45.1172C99.5527 45.1172 98.8516 44.7441 98.3711 43.998C97.8906 43.248 97.6504 42.1504 97.6504 40.7051C97.6504 39.2129 97.8828 38.1055 98.3477 37.3828C98.8125 36.6602 99.5215 36.2988 100.475 36.2988C101.404 36.2988 102.109 36.6758 102.59 37.4297C103.074 38.1836 103.316 39.2754 103.316 40.7051ZM98.6348 40.7051C98.6348 41.9512 98.7812 42.8594 99.0742 43.4297C99.3672 43.9961 99.834 44.2793 100.475 44.2793C101.123 44.2793 101.592 43.9922 101.881 43.418C102.174 42.8398 102.32 41.9355 102.32 40.7051C102.32 39.4746 102.174 38.5742 101.881 38.0039C101.592 37.4297 101.123 37.1426 100.475 37.1426C99.834 37.1426 99.3672 37.4258 99.0742 37.9922C98.7812 38.5547 98.6348 39.459 98.6348 40.7051ZM113.916 45H112.785L110.482 41.2324L108.139 45H107.084L109.932 40.5234L107.277 36.4336H108.379L110.506 39.8262L112.65 36.4336H113.711L111.057 40.4883L113.916 45ZM121.27 45H120.32V38.8945C120.32 38.3867 120.336 37.9062 120.367 37.4531C120.285 37.5352 120.193 37.6211 120.092 37.7109C119.99 37.8008 119.525 38.1816 118.697 38.8535L118.182 38.1855L120.449 36.4336H121.27V45ZM130.164 45H124.533V44.1621L126.789 41.8945C127.477 41.1992 127.93 40.7031 128.148 40.4062C128.367 40.1094 128.531 39.8203 128.641 39.5391C128.75 39.2578 128.805 38.9551 128.805 38.6309C128.805 38.1738 128.666 37.8125 128.389 37.5469C128.111 37.2773 127.727 37.1426 127.234 37.1426C126.879 37.1426 126.541 37.2012 126.221 37.3184C125.904 37.4355 125.551 37.6484 125.16 37.957L124.645 37.2949C125.434 36.6387 126.293 36.3105 127.223 36.3105C128.027 36.3105 128.658 36.5176 129.115 36.9316C129.572 37.3418 129.801 37.8945 129.801 38.5898C129.801 39.1328 129.648 39.6699 129.344 40.2012C129.039 40.7324 128.469 41.4043 127.633 42.2168L125.758 44.0508V44.0977H130.164V45ZM137.078 40.7051C137.078 42.1855 136.844 43.291 136.375 44.0215C135.91 44.752 135.197 45.1172 134.236 45.1172C133.314 45.1172 132.613 44.7441 132.133 43.998C131.652 43.248 131.412 42.1504 131.412 40.7051C131.412 39.2129 131.645 38.1055 132.109 37.3828C132.574 36.6602 133.283 36.2988 134.236 36.2988C135.166 36.2988 135.871 36.6758 136.352 37.4297C136.836 38.1836 137.078 39.2754 137.078 40.7051ZM132.396 40.7051C132.396 41.9512 132.543 42.8594 132.836 43.4297C133.129 43.9961 133.596 44.2793 134.236 44.2793C134.885 44.2793 135.354 43.9922 135.643 43.418C135.936 42.8398 136.082 41.9355 136.082 40.7051C136.082 39.4746 135.936 38.5742 135.643 38.0039C135.354 37.4297 134.885 37.1426 134.236 37.1426C133.596 37.1426 133.129 37.4258 132.836 37.9922C132.543 38.5547 132.396 39.459 132.396 40.7051ZM143.945 40.7051C143.945 42.1855 143.711 43.291 143.242 44.0215C142.777 44.752 142.064 45.1172 141.104 45.1172C140.182 45.1172 139.48 44.7441 139 43.998C138.52 43.248 138.279 42.1504 138.279 40.7051C138.279 39.2129 138.512 38.1055 138.977 37.3828C139.441 36.6602 140.15 36.2988 141.104 36.2988C142.033 36.2988 142.738 36.6758 143.219 37.4297C143.703 38.1836 143.945 39.2754 143.945 40.7051ZM139.264 40.7051C139.264 41.9512 139.41 42.8594 139.703 43.4297C139.996 43.9961 140.463 44.2793 141.104 44.2793C141.752 44.2793 142.221 43.9922 142.51 43.418C142.803 42.8398 142.949 41.9355 142.949 40.7051C142.949 39.4746 142.803 38.5742 142.51 38.0039C142.221 37.4297 141.752 37.1426 141.104 37.1426C140.463 37.1426 139.996 37.4258 139.703 37.9922C139.41 38.5547 139.264 39.459 139.264 40.7051Z" fill="#BCBCBC"/>
<g clip-path="url(#clip0_1209:4)">
<path d="M105.583 7.58328C105.583 8.78001 104.613 9.75002 103.417 9.75002C102.22 9.75002 101.25 8.78001 101.25 7.58328C101.25 6.38675 102.22 5.41675 103.417 5.41675C104.613 5.41675 105.583 6.38675 105.583 7.58328Z" fill="#D3D3D3"/>
<path d="M108.292 18.9583C108.292 14.7355 111.329 11.2135 115.333 10.4498V3.25C115.333 1.45818 113.875 0 112.083 0H101.25C99.4582 0 98 1.45818 98 3.25V18.4167C98 20.2086 99.4582 21.6667 101.25 21.6667H108.732C108.45 20.813 108.292 19.9053 108.292 18.9583ZM103.135 13.195C102.42 12.4801 101.163 12.4801 100.448 13.195L100.167 13.4757V3.25C100.167 2.65193 100.652 2.16673 101.25 2.16673H112.083C112.681 2.16673 113.167 2.65193 113.167 3.25V10.2257L112.343 9.40227C111.602 8.66118 110.397 8.66118 109.657 9.40227L104.5 14.5589L103.135 13.195Z" fill="#D3D3D3"/>
<path d="M116.959 11.9167C113.076 11.9167 109.917 15.0757 109.917 18.9583C109.917 22.8411 113.076 26 116.959 26C120.841 26 124 22.8411 124 18.9583C124 15.0757 120.841 11.9167 116.959 11.9167ZM119.938 20.0417H118.042V21.9375C118.042 22.5366 117.558 23.0208 116.959 23.0208C116.359 23.0208 115.875 22.5366 115.875 21.9375V20.0417H113.979C113.38 20.0417 112.896 19.5573 112.896 18.9583C112.896 18.3592 113.38 17.875 113.979 17.875H115.875V15.9792C115.875 15.3802 116.359 14.8958 116.959 14.8958C117.558 14.8958 118.042 15.3802 118.042 15.9792V17.875H119.938C120.537 17.875 121.021 18.3592 121.021 18.9583C121.021 19.5573 120.537 20.0417 119.938 20.0417Z" fill="#D3D3D3"/>
</g>
<defs>
<clipPath id="clip0_1209:4">
<rect width="26" height="26" fill="white" transform="translate(98)"/>
</clipPath>
</defs>
</svg>
