<svg width="13" height="13" viewBox="0 0 13 13" fill="none" xmlns="http://www.w3.org/2000/svg">
<g clip-path="url(#clip0)">
<path d="M12.9022 4.15789L11.7912 1.93591C11.741 1.8357 11.6387 1.77246 11.5267 1.77246H1.47211C1.35919 1.77246 1.25609 1.83686 1.20643 1.93824C1.20643 1.93824 0.368647 3.64992 0.105258 4.15703C0.0232417 4.31442 -0.0119913 4.48047 0.00360316 4.63785C0.107557 5.70177 0.993284 6.50404 2.06354 6.50404C2.50221 6.50404 2.91778 6.36773 3.26695 6.11418C3.6395 6.714 4.30169 7.09549 5.02078 7.09549C5.58363 7.09549 6.11356 6.86792 6.49941 6.47285C6.88522 6.86792 7.41516 7.09549 7.97803 7.09549C8.69712 7.09549 9.35932 6.714 9.73187 6.11418C10.081 6.36773 10.4966 6.50404 10.9353 6.50404C12.0139 6.50404 12.9002 5.69484 12.997 4.62226C13.0108 4.47005 12.9779 4.30948 12.9022 4.15789Z" fill="#E81D2C"/>
<path d="M1.53172 1.18183H11.4687C11.5648 1.18183 11.6548 1.13507 11.7102 1.0566C11.7653 0.978408 11.7792 0.877999 11.7471 0.787396C11.5798 0.316515 11.1334 0 10.6366 0H2.36383C1.86699 0 1.42062 0.316515 1.25329 0.787396C1.22127 0.877999 1.23512 0.978408 1.29022 1.0566C1.34561 1.13507 1.43564 1.18183 1.53172 1.18183Z" fill="#E81D2C"/>
<path d="M11.7089 7.08831C11.6399 7.03206 11.5496 7.00984 11.4628 7.02771C10.9934 7.12263 10.5031 7.09003 10.0473 6.92758C9.94485 6.89066 9.83087 6.91345 9.7501 6.98616C8.90816 7.74558 7.61238 7.87424 6.64724 7.31653C6.55547 7.26343 6.44296 7.26343 6.35119 7.31653C5.38578 7.87396 4.08969 7.745 3.24834 6.98616C3.16696 6.91345 3.0527 6.89093 2.95116 6.92758C2.49556 7.09003 2.00626 7.12263 1.53624 7.02771C1.44968 7.01068 1.35938 7.03234 1.29014 7.08831C1.22147 7.14429 1.18164 7.22853 1.18164 7.31711V11.8086C1.18164 12.4604 1.71166 12.9905 2.36347 12.9905H6.20436C6.36767 12.9905 6.49983 12.8583 6.49983 12.695V8.8635C6.49983 8.7005 6.63225 8.56804 6.79529 8.56804L9.7586 8.57743C9.92161 8.57743 10.0541 8.70986 10.0541 8.87289V12.7044C10.0541 12.8677 10.1862 12.9999 10.3495 12.9999L10.6356 12.9905C11.2874 12.9905 11.8174 12.4605 11.8174 11.8087V7.31713C11.8174 7.22855 11.7776 7.14429 11.7089 7.08831ZM5.318 10.6268C5.318 10.79 5.18571 10.9223 5.02253 10.9223H3.24981C3.08663 10.9223 2.95434 10.79 2.95434 10.6268V8.85411C2.95434 8.69091 3.08663 8.55865 3.24981 8.55865H5.02253C5.18571 8.55865 5.318 8.69091 5.318 8.85411V10.6268Z" fill="#E81D2C"/>
</g>
<defs>
<clipPath id="clip0">
<rect width="13" height="13" fill="white"/>
</clipPath>
</defs>
</svg>
