<svg width="16" height="16" viewBox="0 0 16 16" fill="none" xmlns="http://www.w3.org/2000/svg">
<path d="M13.25 2H10.5V1.5C10.5 0.671562 9.82844 0 9 0H7C6.17156 0 5.5 0.671562 5.5 1.5V2H2.75C2.05966 2 1.5 2.55966 1.5 3.25V4.25C1.5 4.52616 1.72384 4.75 2 4.75H14C14.2762 4.75 14.5 4.52616 14.5 4.25V3.25C14.5 2.55966 13.9403 2 13.25 2ZM6.5 1.5C6.5 1.22438 6.72437 1 7 1H9C9.27563 1 9.5 1.22438 9.5 1.5V2H6.5V1.5Z" fill="#E81D2C"/>
<path d="M2.44848 5.75C2.35926 5.75 2.28817 5.82456 2.29242 5.91369L2.70492 14.5712C2.74304 15.3725 3.40117 16 4.20304 16H11.7962C12.598 16 13.2562 15.3725 13.2943 14.5712L13.7068 5.91369C13.711 5.82456 13.6399 5.75 13.5507 5.75H2.44848ZM9.9996 7C9.9996 6.72375 10.2233 6.5 10.4996 6.5C10.7758 6.5 10.9996 6.72375 10.9996 7V13.5C10.9996 13.7762 10.7758 14 10.4996 14C10.2233 14 9.9996 13.7762 9.9996 13.5V7ZM7.4996 7C7.4996 6.72375 7.72335 6.5 7.9996 6.5C8.27585 6.5 8.4996 6.72375 8.4996 7V13.5C8.4996 13.7762 8.27585 14 7.9996 14C7.72335 14 7.4996 13.7762 7.4996 13.5V7ZM4.9996 7C4.9996 6.72375 5.22335 6.5 5.4996 6.5C5.77585 6.5 5.9996 6.72375 5.9996 7V13.5C5.9996 13.7762 5.77585 14 5.4996 14C5.22335 14 4.9996 13.7762 4.9996 13.5V7Z" fill="#E81D2C"/>
</svg>
