<svg width="16" height="16" viewBox="0 0 16 16" fill="none" xmlns="http://www.w3.org/2000/svg">
<g opacity="0.5">
<path d="M13.25 2H10.5V1.5C10.5 0.671562 9.82844 0 9 0H7C6.17156 0 5.5 0.671562 5.5 1.5V2H2.75C2.05966 2 1.5 2.55966 1.5 3.25V4.25C1.5 4.52616 1.72384 4.75 2 4.75H14C14.2762 4.75 14.5 4.52616 14.5 4.25V3.25C14.5 2.55966 13.9403 2 13.25 2ZM6.5 1.5C6.5 1.22438 6.72437 1 7 1H9C9.27563 1 9.5 1.22438 9.5 1.5V2H6.5V1.5Z" fill="#E81D2C"/>
<path d="M2.44836 5.75C2.35914 5.75 2.28805 5.82456 2.2923 5.91369L2.70479 14.5712C2.74292 15.3725 3.40104 16 4.20292 16H11.796C12.5979 16 13.256 15.3725 13.2942 14.5712L13.7067 5.91369C13.7109 5.82456 13.6398 5.75 13.5506 5.75H2.44836ZM9.99948 7C9.99948 6.72375 10.2232 6.5 10.4995 6.5C10.7757 6.5 10.9995 6.72375 10.9995 7V13.5C10.9995 13.7762 10.7757 14 10.4995 14C10.2232 14 9.99948 13.7762 9.99948 13.5V7ZM7.49948 7C7.49948 6.72375 7.72323 6.5 7.99948 6.5C8.27573 6.5 8.49948 6.72375 8.49948 7V13.5C8.49948 13.7762 8.27573 14 7.99948 14C7.72323 14 7.49948 13.7762 7.49948 13.5V7ZM4.99948 7C4.99948 6.72375 5.22323 6.5 5.49948 6.5C5.77573 6.5 5.99948 6.72375 5.99948 7V13.5C5.99948 13.7762 5.77573 14 5.49948 14C5.22323 14 4.99948 13.7762 4.99948 13.5V7Z" fill="#E81D2C"/>
</g>
</svg>
