<svg width="52" height="30" viewBox="0 0 52 30" fill="none" xmlns="http://www.w3.org/2000/svg">
<path d="M1.16298 26.3294C1.21612 27.0929 1.90317 27.5183 2.56406 27.5093C3.1276 27.5093 3.506 27.2578 3.72614 26.867H4.91565C4.68693 27.3964 4.34273 27.7959 3.93771 28.0645C3.53261 28.3422 3.05713 28.4809 2.55459 28.4809C1.0668 28.4809 0 27.2925 0 25.9645C0 24.6111 1.07528 23.4221 2.53699 23.4221C3.25959 23.4221 3.89396 23.6914 4.34273 24.151C4.9336 24.7496 5.1533 25.4955 5.05685 26.3294H1.16298V26.3294ZM3.92093 25.4609C3.87582 25.0094 3.39177 24.3769 2.54647 24.3852C1.69124 24.3852 1.22514 24.9933 1.18057 25.4609H3.92093Z" fill="#E81D2C"/>
<path d="M7.81407 24.8537C7.8055 24.6021 7.67332 24.3416 7.22401 24.3416C6.83605 24.3416 6.65109 24.5847 6.65109 24.819C6.6602 25.1225 7.0128 25.2874 7.47032 25.4176C8.24615 25.6257 9.08261 25.8515 9.0911 26.8758C9.10878 27.8563 8.27241 28.4807 7.2592 28.4807C6.51079 28.4807 5.49722 28.099 5.41016 26.9448H6.56357C6.60733 27.4573 7.05619 27.5613 7.27634 27.5613C7.63859 27.5613 7.94661 27.3269 7.93723 27.0057C7.93723 26.5981 7.57633 26.4853 6.68637 26.1813C6.0345 25.9821 5.50624 25.6258 5.49722 24.9409C5.49722 24.0039 6.29886 23.4221 7.23303 23.4221C7.88445 23.4221 8.85299 23.7088 8.95035 24.8537H7.81407Z" fill="#E81D2C"/>
<path d="M9.73447 21.9121H10.8879V23.4569V24.1342C11.1604 23.6302 11.7418 23.4138 12.3143 23.4222C13.0636 23.4222 13.53 23.6733 13.8119 24.0902C14.1033 24.5064 14.1909 25.0703 14.1909 25.7129V28.3339H13.0369V25.7653C13.0369 25.4008 12.9756 25.0889 12.8168 24.8622C12.6494 24.6365 12.3846 24.4894 11.9795 24.4894C11.5221 24.4894 11.2496 24.6716 11.0899 24.9062C10.932 25.1404 10.8878 25.4267 10.8878 25.6699V28.3339H9.73438V21.9121H9.73447Z" fill="#E81D2C"/>
<path d="M14.8438 25.9384C14.8438 24.7238 15.7514 23.4304 17.4335 23.4304C19.1161 23.4304 20.0229 24.7238 20.0229 25.9473C20.0229 27.1794 19.1162 28.4727 17.4335 28.4727C15.7514 28.4727 14.8438 27.1794 14.8438 25.9473V25.9384ZM15.9982 25.9554C15.9982 26.7891 16.641 27.4053 17.4335 27.4053C18.2266 27.4053 18.8603 26.7891 18.8603 25.9475C18.8603 25.1057 18.2265 24.4893 17.4335 24.4893C16.6409 24.4893 15.9982 25.1058 15.9982 25.9475V25.9554Z" fill="#E81D2C"/>
<path d="M20.6953 23.5701H21.7784V24.2635C22.1221 23.7861 22.6855 23.4221 23.4876 23.4221C25.1784 23.4221 25.8924 24.8368 25.8924 25.9909C25.8924 27.3445 24.9145 28.4808 23.4958 28.4808C22.5539 28.4808 22.0423 28.0039 21.8488 27.6999V28.3342V30H20.6953V23.5701ZM24.7381 25.9475C24.7381 25.2617 24.236 24.4804 23.2577 24.4804C22.8354 24.4804 22.4745 24.6452 22.2097 24.9146C21.9547 25.1751 21.7964 25.548 21.7964 25.9648C21.7964 26.3723 21.9547 26.7368 22.2186 26.9972C22.4829 27.2577 22.8533 27.4225 23.2674 27.4225C24.148 27.4225 24.738 26.7368 24.738 25.9554V25.9475H24.7381Z" fill="#E81D2C"/>
<path d="M37.0769 28.3342H35.9754V27.6483C35.7646 28.0039 35.3067 28.4808 34.3197 28.4808C32.8311 28.4808 31.8711 27.3363 31.8711 25.9474C31.8711 24.4029 32.9894 23.4221 34.3025 23.4221C35.2268 23.4221 35.747 23.9074 35.9224 24.1857V23.4913V21.9119H37.0768V28.3342H37.0769ZM33.0246 25.9474C33.0246 26.7545 33.6148 27.4141 34.5047 27.4141C34.9274 27.4141 35.3067 27.2492 35.5796 26.9799C35.8525 26.7106 36.0108 26.3376 35.9933 25.9216C35.9933 25.5048 35.826 25.1488 35.5612 24.8968C35.2978 24.6372 34.9274 24.4803 34.5137 24.4803C33.5709 24.4803 33.0246 25.1919 33.0246 25.9384V25.9474Z" fill="#1C1B1A"/>
<path d="M38.0039 23.5697H39.0964V24.1942C39.3075 23.7689 39.704 23.4306 40.4352 23.4221V24.5679H40.3825C39.5719 24.5679 39.1582 24.9409 39.1582 25.7653V28.3339H38.0039V23.5697Z" fill="#1C1B1A"/>
<path d="M40.3828 25.9384C40.3828 24.7238 41.2896 23.4304 42.9726 23.4304C44.6548 23.4304 45.5618 24.7238 45.5618 25.9473C45.5618 27.1794 44.6547 28.4727 42.9726 28.4727C41.2896 28.4727 40.3828 27.1794 40.3828 25.9473V25.9384ZM41.5364 25.9554C41.5364 26.7891 42.1796 27.4053 42.9727 27.4053C43.7658 27.4053 44.3994 26.7891 44.3994 25.9475C44.3994 25.1057 43.7658 24.4893 42.9727 24.4893C42.1796 24.4893 41.5364 25.1058 41.5364 25.9475V25.9554Z" fill="#1C1B1A"/>
<path d="M46.2305 23.5701H47.3141V24.2635C47.6574 23.7861 48.2213 23.4221 49.022 23.4221C50.714 23.4221 51.4272 24.8368 51.4272 25.9909C51.4272 27.3445 50.4498 28.4808 49.0315 28.4808C48.089 28.4808 47.578 28.0039 47.384 27.6999V28.3342V30H46.2305V23.5701ZM50.2737 25.9475C50.2737 25.2617 49.7712 24.4804 48.7933 24.4804C48.3708 24.4804 48.0099 24.6452 47.7452 24.9146C47.49 25.1751 47.3321 25.548 47.3321 25.9648C47.3321 26.3723 47.49 26.7368 47.7543 26.9972C48.0183 27.2577 48.3885 27.4225 48.8018 27.4225C49.6841 27.4225 50.2737 26.7368 50.2737 25.9554V25.9475Z" fill="#1C1B1A"/>
<path d="M26.78 27.3185C27.4143 26.7544 28.0481 26.1989 28.6827 25.6348C29.3342 25.07 29.8538 24.6278 29.8628 23.8904C29.8628 23.257 29.4573 22.9273 28.9204 22.9273C28.2864 22.9273 28.0215 23.4905 28.0132 24.1509H26.7539C26.7707 23.6559 26.8504 23.1265 27.2113 22.6491C27.7224 21.9287 28.5682 21.79 29.0342 21.79C30.4002 21.79 31.1755 22.7184 31.1755 23.7775C31.1661 24.5238 30.8932 25.0531 30.1272 25.7736C29.6162 26.2597 29.0964 26.7456 28.5767 27.2402H31.2107V28.3336H26.7799V27.3185H26.78Z" fill="#1C1B1A"/>
<path d="M23.8086 9.09553L29.0379 6.27691C28.4749 5.46096 26.8786 4.75017 25.2736 5.63688C23.643 6.51568 23.3958 8.15566 23.8086 9.09553Z" fill="#E81D2C"/>
<path d="M32.2624 15.8388C31.8512 15.8388 24.2703 15.9288 23.5627 15.8616C22.8542 15.7944 21.6359 15.8963 21.5217 14.7033C21.5217 14.7033 21.4969 13.8806 22.5208 13.8653C22.7418 13.8625 23.879 13.8713 25.3131 13.8806C23.9623 13.4614 22.7898 12.5358 22.087 11.2714C20.6524 8.68654 21.4437 5.31137 24.2344 3.80712C24.4841 3.67227 24.739 3.56462 24.9948 3.46924C22.051 3.48835 19.4783 3.50773 19.1547 3.50773C18.3776 3.50773 17.3958 3.46293 16.6649 2.15772C15.9341 0.852948 14.1142 -0.789614 12.7633 0.425551C12.4766 0.683429 12.9422 0.875615 13.4666 1.07811C13.9936 1.27999 14.9291 1.61832 15.5002 2.87784C16.071 4.13816 19.9996 14.624 20.5016 15.7944C21.0041 16.9638 22.3976 17.1216 22.9228 17.1445C23.448 17.1664 31.5773 17.032 32.1936 17.032C32.8102 17.032 32.8789 16.6717 32.9021 16.3563C32.9245 16.0416 32.6735 15.8388 32.2624 15.8388Z" fill="#E81D2C"/>
<path d="M34.3886 3.44055C34.0898 3.42241 31.6164 3.43041 28.7442 3.4465C30.3465 4.022 31.4682 5.17111 32.1269 6.76443L24.6953 10.7704C25.6055 12.1739 27.3676 12.2787 28.6198 11.5824C29.6956 11.0026 30.1521 10.1324 30.1582 9.16072L32.4278 7.93666C32.5514 9.18356 32.3192 10.2982 31.8309 11.229C31.352 12.1757 30.592 12.9306 29.6334 13.447C29.2768 13.639 28.9134 13.788 28.5473 13.8977C30.3014 13.9031 31.8864 13.8984 32.4076 13.8661C33.4105 13.8033 33.4551 13.9494 33.9989 12.1529C34.3311 11.053 35.3842 5.55709 35.4987 4.72496C35.6128 3.89257 35.1198 3.48562 34.3886 3.44055Z" fill="#E81D2C"/>
<path d="M23.3596 19.644C22.5279 19.644 21.8516 18.9777 21.8516 18.1583C21.8516 17.3394 22.5279 16.6726 23.3596 16.6726C24.1916 16.6726 24.868 17.3394 24.868 18.1583C24.8679 18.9777 24.1916 19.644 23.3596 19.644ZM23.3596 17.5893C23.0416 17.5893 22.7824 17.8451 22.7824 18.1583C22.7824 18.4721 23.0416 18.7267 23.3596 18.7267C23.6775 18.7267 23.9366 18.4722 23.9366 18.1583C23.9366 17.8451 23.6775 17.5893 23.3596 17.5893Z" fill="#E81D2C"/>
<path d="M30.3087 19.644C29.4771 19.644 28.8008 18.9777 28.8008 18.1583C28.8008 17.3394 29.4771 16.6726 30.3087 16.6726C31.1409 16.6726 31.8171 17.3394 31.8171 18.1583C31.8171 18.9777 31.1408 19.644 30.3087 19.644ZM30.3087 17.5893C29.9912 17.5893 29.732 17.8451 29.732 18.1583C29.732 18.4721 29.9912 18.7267 30.3087 18.7267C30.6272 18.7267 30.8858 18.4722 30.8858 18.1583C30.8858 17.8451 30.6272 17.5893 30.3087 17.5893Z" fill="#E81D2C"/>
</svg>
