<svg width="254" height="148" viewBox="0 0 254 148" fill="none" xmlns="http://www.w3.org/2000/svg">
<g clip-path="url(#clip0)">
<path d="M5.74383 129.859C6.0063 133.624 9.39957 135.722 12.6636 135.678C15.4469 135.678 17.3157 134.437 18.403 132.51H24.2778C23.1482 135.121 21.4483 137.091 19.4479 138.416C17.4472 139.785 15.0988 140.47 12.6168 140.47C5.26882 140.47 0 134.608 0 128.058C0 121.383 5.31071 115.52 12.5299 115.52C16.0988 115.52 19.2318 116.848 21.4483 119.114C24.3665 122.067 25.4516 125.745 24.9752 129.858H5.74383V129.859ZM19.3651 125.575C19.1423 123.348 16.7516 120.229 12.5767 120.269C8.35285 120.269 6.05086 123.269 5.83073 125.575H19.3651Z" fill="#E81D2C"/>
<path d="M38.5934 122.58C38.551 121.339 37.8982 120.055 35.6791 120.055C33.763 120.055 32.8495 121.253 32.8495 122.409C32.8945 123.906 34.636 124.719 36.8956 125.361C40.7274 126.388 44.8586 127.501 44.9004 132.553C44.9878 137.389 40.857 140.469 35.8529 140.469C32.1566 140.469 27.1507 138.586 26.7207 132.893H32.4173C32.6334 135.421 34.8503 135.934 35.9376 135.934C37.7267 135.934 39.248 134.778 39.2016 133.194C39.2016 131.184 37.4192 130.627 33.0238 129.128C29.8043 128.146 27.1953 126.388 27.1507 123.01C27.1507 118.389 31.1099 115.52 35.7237 115.52C38.9409 115.52 43.7245 116.933 44.2053 122.58H38.5934Z" fill="#E81D2C"/>
<path d="M48.0864 108.071H53.783V115.69V119.031C55.1291 116.545 58.0006 115.478 60.828 115.519C64.5287 115.519 66.832 116.758 68.2245 118.814C69.6634 120.866 70.0961 123.648 70.0961 126.817V139.744H64.3968V127.076C64.3968 125.278 64.0938 123.739 63.3095 122.621C62.4829 121.508 61.1751 120.782 59.1743 120.782C56.9151 120.782 55.5694 121.681 54.7807 122.838C54.0009 123.993 53.7825 125.405 53.7825 126.605V139.744H48.0859V108.071H48.0864Z" fill="#E81D2C"/>
<path d="M73.3115 127.93C73.3115 121.94 77.7943 115.561 86.1021 115.561C94.4122 115.561 98.891 121.94 98.891 127.974C98.891 134.051 94.4127 140.429 86.1021 140.429C77.7943 140.429 73.3115 134.051 73.3115 127.974V127.93ZM79.013 128.014C79.013 132.126 82.188 135.165 86.1021 135.165C90.019 135.165 93.1489 132.126 93.1489 127.975C93.1489 123.823 90.0186 120.783 86.1021 120.783C82.1875 120.783 79.013 123.824 79.013 127.975V128.014Z" fill="#E81D2C"/>
<path d="M102.202 116.25H107.551V119.669C109.249 117.315 112.032 115.52 115.993 115.52C124.344 115.52 127.87 122.497 127.87 128.189C127.87 134.865 123.04 140.469 116.033 140.469C111.382 140.469 108.855 138.117 107.899 136.618V139.746V147.962H102.202V116.25ZM122.169 127.975C122.169 124.592 119.689 120.739 114.857 120.739C112.772 120.739 110.989 121.552 109.682 122.881C108.422 124.165 107.64 126.004 107.64 128.06C107.64 130.07 108.422 131.868 109.726 133.152C111.031 134.437 112.86 135.249 114.905 135.249C119.255 135.249 122.169 131.867 122.169 128.014V127.975H122.169Z" fill="#E81D2C"/>
<path d="M183.129 139.746H177.688V136.364C176.648 138.117 174.386 140.469 169.511 140.469C162.159 140.469 157.418 134.825 157.418 127.975C157.418 120.357 162.941 115.52 169.427 115.52C173.991 115.52 176.561 117.913 177.427 119.286V115.861V108.071H183.128V139.746H183.129ZM163.115 127.975C163.115 131.955 166.03 135.208 170.425 135.208C172.513 135.208 174.386 134.395 175.734 133.067C177.082 131.739 177.864 129.899 177.777 127.848C177.777 125.792 176.951 124.036 175.643 122.793C174.342 121.513 172.513 120.739 170.47 120.739C165.813 120.739 163.115 124.249 163.115 127.931V127.975Z" fill="#1C1B1A"/>
<path d="M187.697 116.247H193.093V119.328C194.135 117.23 196.094 115.561 199.705 115.52V121.17H199.445C195.441 121.17 193.398 123.01 193.398 127.076V139.745H187.697V116.247Z" fill="#1C1B1A"/>
<path d="M199.446 127.93C199.446 121.94 203.925 115.561 212.237 115.561C220.545 115.561 225.025 121.94 225.025 127.974C225.025 134.051 220.545 140.429 212.237 140.429C203.925 140.429 199.446 134.051 199.446 127.974V127.93ZM205.144 128.014C205.144 132.126 208.321 135.165 212.237 135.165C216.154 135.165 219.284 132.126 219.284 127.975C219.284 123.823 216.154 120.783 212.237 120.783C208.321 120.783 205.144 123.824 205.144 127.975V128.014Z" fill="#1C1B1A"/>
<path d="M228.336 116.25H233.688V119.669C235.384 117.315 238.169 115.52 242.123 115.52C250.48 115.52 254.002 122.497 254.002 128.189C254.002 134.865 249.175 140.469 242.17 140.469C237.515 140.469 234.991 138.117 234.033 136.618V139.746V147.962H228.336V116.25ZM248.305 127.975C248.305 124.592 245.823 120.739 240.993 120.739C238.907 120.739 237.125 121.552 235.817 122.881C234.557 124.165 233.777 126.004 233.777 128.06C233.777 130.07 234.557 131.868 235.862 133.152C237.166 134.437 238.994 135.249 241.036 135.249C245.393 135.249 248.305 131.867 248.305 128.014V127.975Z" fill="#1C1B1A"/>
<path d="M132.264 134.737C135.397 131.955 138.527 129.215 141.661 126.433C144.879 123.648 147.445 121.466 147.489 117.83C147.489 114.706 145.486 113.08 142.835 113.08C139.703 113.08 138.396 115.857 138.355 119.114H132.135C132.218 116.673 132.612 114.062 134.394 111.708C136.918 108.155 141.095 107.471 143.397 107.471C150.143 107.471 153.973 112.05 153.973 117.273C153.926 120.954 152.578 123.564 148.795 127.118C146.271 129.515 143.704 131.912 141.137 134.351H154.146V139.744H132.263V134.737H132.264Z" fill="#1C1B1A"/>
<path d="M117.588 44.8605L143.415 30.959C140.634 26.9347 132.75 23.429 124.823 27.8023C116.77 32.1366 115.549 40.225 117.588 44.8605Z" fill="#E81D2C"/>
<path d="M159.35 78.1184C157.32 78.1184 119.878 78.5625 116.383 78.2311C112.884 77.8996 106.867 78.4021 106.303 72.5184C106.303 72.5184 106.181 68.4608 111.237 68.3854C112.329 68.3714 117.946 68.4148 125.028 68.4608C118.357 66.3932 112.566 61.8279 109.095 55.5918C102.01 42.8433 105.918 26.1968 119.701 18.7779C120.934 18.1128 122.193 17.5818 123.456 17.1114C108.917 17.2057 96.2113 17.3012 94.6129 17.3012C90.7749 17.3012 85.9259 17.0803 82.316 10.6429C78.7067 4.20775 69.7184 -3.89343 63.0464 2.09981C61.6307 3.37168 63.93 4.31955 66.5198 5.31827C69.1226 6.31393 73.7431 7.98257 76.5637 14.1946C79.3826 20.4105 98.786 72.1269 101.265 77.8996C103.747 83.6671 110.629 84.4453 113.223 84.5584C115.817 84.6662 155.967 84.0033 159.011 84.0033C162.056 84.0033 162.395 82.2264 162.51 80.6709C162.62 79.1189 161.381 78.1184 159.35 78.1184Z" fill="#E81D2C"/>
<path d="M169.831 16.9691C168.356 16.8797 156.139 16.9191 141.954 16.9985C149.867 19.8368 155.408 25.5043 158.661 33.3626L121.957 53.1202C126.452 60.0424 135.155 60.5593 141.339 57.1252C146.653 54.2653 148.908 49.9736 148.937 45.1812L160.147 39.1441C160.758 45.2939 159.611 50.7913 157.199 55.382C154.834 60.0512 151.08 63.7743 146.346 66.3215C144.584 67.2681 142.789 68.0033 140.982 68.5443C149.645 68.5706 157.473 68.5478 160.047 68.3883C165 68.0787 165.221 68.7991 167.906 59.939C169.547 54.5139 174.748 27.408 175.314 23.3039C175.877 19.1985 173.443 17.1914 169.831 16.9691Z" fill="#E81D2C"/>
<path d="M115.361 96.8856C111.253 96.8856 107.913 93.5992 107.913 89.5578C107.913 85.5191 111.253 82.2305 115.361 82.2305C119.47 82.2305 122.811 85.5191 122.811 89.5578C122.811 93.5992 119.47 96.8856 115.361 96.8856ZM115.361 86.7515C113.791 86.7515 112.51 88.0133 112.51 89.5578C112.51 91.1055 113.791 92.3611 115.361 92.3611C116.931 92.3611 118.211 91.1059 118.211 89.5578C118.211 88.0133 116.931 86.7515 115.361 86.7515Z" fill="#E81D2C"/>
<path d="M149.7 96.8856C145.593 96.8856 142.253 93.5992 142.253 89.5578C142.253 85.5191 145.593 82.2305 149.7 82.2305C153.811 82.2305 157.15 85.5191 157.15 89.5578C157.15 93.5992 153.81 96.8856 149.7 96.8856ZM149.7 86.7515C148.132 86.7515 146.852 88.0133 146.852 89.5578C146.852 91.1055 148.132 92.3611 149.7 92.3611C151.273 92.3611 152.551 91.1059 152.551 89.5578C152.551 88.0133 151.273 86.7515 149.7 86.7515Z" fill="#E81D2C"/>
</g>
<defs>
<clipPath id="clip0">
<rect width="254" height="147.961" fill="white"/>
</clipPath>
</defs>
</svg>
