<svg id="Layer_1" data-name="Layer 1" xmlns="http://www.w3.org/2000/svg" viewBox="0 0 40 40"><defs><style>.cls-1,.cls-3{fill:#fff;}.cls-1{stroke:#e81d2c;stroke-width:1.5px;}.cls-2{fill:#e81d2c;}</style></defs><circle class="cls-1" cx="20" cy="20" r="19.25"/><circle class="cls-2" cx="20" cy="20" r="15"/><path class="cls-3" d="M23.25,15.67H19.1a.58.58,0,0,0-.59.57v0a.58.58,0,0,0,.58.58h4.16a.58.58,0,0,0,.59-.57h0a.58.58,0,0,0-.57-.59Z"/><path class="cls-3" d="M23.25,18H19.1a.58.58,0,0,0-.59.59h0a.58.58,0,0,0,.59.59h4.15a.58.58,0,0,0,.59-.59h0a.58.58,0,0,0-.59-.59Z"/><path class="cls-3" d="M20.88,20.36H19.1a.58.58,0,0,0-.59.57h0a.58.58,0,0,0,.57.59h1.8a.58.58,0,0,0,.59-.57v0a.58.58,0,0,0-.58-.58Z"/><path class="cls-3" d="M25.63,20.43a.58.58,0,0,0,.58-.58v-5a2.36,2.36,0,0,0-2.34-2.35H18.48a2.36,2.36,0,0,0-2.35,2.35,2.34,2.34,0,0,0-2.34,2.34h0v8a2.34,2.34,0,0,0,2.34,2.34h5.69a2.34,2.34,0,0,0,2.34-2.34h0a2.35,2.35,0,0,0,2-2.32.59.59,0,0,0-.51-.64h0a.58.58,0,0,0-.59.57v0A1.17,1.17,0,0,1,23.87,24H18.48a1.16,1.16,0,0,1-1.17-1.17v-8a1.18,1.18,0,0,1,1.17-1.14h5.39A1.17,1.17,0,0,1,25,14.85h0v5a.58.58,0,0,0,.58.58Zm-7.15,4.69H23a1.17,1.17,0,0,1-1.17,1.17H16.13A1.17,1.17,0,0,1,15,25.12h0v-8A1.17,1.17,0,0,1,16.13,16v6.8a2.34,2.34,0,0,0,2.35,2.34Z"/></svg>