<?xml version="1.0" encoding="utf-8"?>
<!-- Generator: Adobe Illustrator 25.2.3, SVG Export Plug-In . SVG Version: 6.00 Build 0)  -->
<svg version="1.1" id="Layer_1" xmlns="http://www.w3.org/2000/svg" xmlns:xlink="http://www.w3.org/1999/xlink" x="0px" y="0px"
	 viewBox="0 0 40 40" style="enable-background:new 0 0 40 40;" xml:space="preserve">
<style type="text/css">
	.st0{fill:#FFFFFF;stroke:#E81D2C;stroke-width:1.5;}
	.st1{fill:#E81D2C;}
	.st2{fill:#FFFFFF;}
</style>
<circle class="st0" cx="19.8" cy="20" r="19.2"/>
<circle class="st1" cx="19.8" cy="20" r="15"/>
<path class="st2" d="M25.8,19v-1.5h1.8l-2-4.7H12.8l-2,4.7h1.8v7.3h8.2c0.7,1.5,2.1,2.4,3.8,2.4c2.3,0,4.1-1.9,4.1-4.2
	C28.8,21.2,27.6,19.6,25.8,19z M24.9,13.9l1.1,2.6h-4.9L20,13.9H24.9z M13.5,13.9h4.9l-1.1,2.6h-4.9L13.5,13.9z M13.7,17.5H18
	l0.7-1.6v7.8h-5C13.7,23.7,13.7,17.5,13.7,17.5z M19.7,23.7v-7.8l0.7,1.6h4.3v1.4h-0.1c-2.3,0-4.1,1.9-4.1,4.2c0,0.2,0,0.5,0,0.7
	L19.7,23.7z M24.6,26.1c-1.7,0-3.1-1.4-3.1-3.1s1.4-3.1,3.1-3.1l0,0c1.7,0,3.1,1.4,3.1,3.1l0,0C27.7,24.7,26.3,26.1,24.6,26.1
	L24.6,26.1z"/>
</svg>
