<?xml version="1.0" encoding="utf-8"?>
<!-- Generator: Adobe Illustrator 25.2.3, SVG Export Plug-In . SVG Version: 6.00 Build 0)  -->
<svg version="1.1" id="Layer_1" xmlns="http://www.w3.org/2000/svg" xmlns:xlink="http://www.w3.org/1999/xlink" x="0px" y="0px"
	 viewBox="0 0 40.5 40" style="enable-background:new 0 0 40.5 40;" xml:space="preserve">
<style type="text/css">
	.st0{fill:#FFFFFF;stroke:#FF8992;stroke-width:1.5;}
	.st1{fill:#FF8992;}
	.st2{fill:#FFFFFF;}
</style>
<circle class="st0" cx="20" cy="20" r="19.2"/>
<circle class="st1" cx="20" cy="20" r="15"/>
<path class="st2" d="M23.3,15.7h-4.1c-0.3,0-0.6,0.2-0.6,0.6c0,0,0,0,0,0c0,0.3,0.3,0.6,0.6,0.6c0,0,0,0,0,0h4.1
	c0.3,0,0.6-0.2,0.6-0.6c0,0,0,0,0,0C23.8,15.9,23.6,15.7,23.3,15.7C23.3,15.7,23.3,15.7,23.3,15.7z"/>
<path class="st2" d="M23.3,18h-4.1c-0.3,0-0.6,0.3-0.6,0.6c0,0,0,0,0,0c0,0.3,0.3,0.6,0.6,0.6l0,0h4.1c0.3,0,0.6-0.3,0.6-0.6
	c0,0,0,0,0,0C23.8,18.3,23.6,18,23.3,18L23.3,18z"/>
<path class="st2" d="M20.9,20.4h-1.8c-0.3,0-0.6,0.2-0.6,0.6c0,0,0,0,0,0c0,0.3,0.2,0.6,0.6,0.6c0,0,0,0,0,0h1.8
	c0.3,0,0.6-0.2,0.6-0.6c0,0,0,0,0,0C21.5,20.6,21.2,20.4,20.9,20.4C20.9,20.4,20.9,20.4,20.9,20.4z"/>
<path class="st2" d="M25.6,20.4c0.3,0,0.6-0.3,0.6-0.6v-5c0-1.3-1-2.3-2.3-2.4h-5.4c-1.3,0-2.3,1.1-2.4,2.4c-1.3,0-2.3,1-2.3,2.3
	l0,0v8c0,1.3,1,2.3,2.3,2.3l0,0h5.7c1.3,0,2.3-1,2.3-2.3l0,0l0,0c1.2-0.2,2-1.2,2-2.3c0-0.3-0.2-0.6-0.5-0.6c0,0,0,0,0,0
	c-0.3,0-0.6,0.2-0.6,0.6c0,0,0,0,0,0c0,0.6-0.5,1.2-1.2,1.2l0,0h-5.4c-0.3,0-0.6-0.1-0.8-0.3c-0.2-0.2-0.3-0.5-0.3-0.8v-8
	c0-0.6,0.5-1.1,1.2-1.1h5.4c0.6,0,1.2,0.5,1.2,1.2l0,0v5C25,20.2,25.3,20.4,25.6,20.4C25.6,20.4,25.6,20.4,25.6,20.4z M18.5,25.1H23
	c0,0.6-0.5,1.2-1.2,1.2l0,0h-5.7c-0.6,0-1.2-0.5-1.2-1.2l0,0v-8c0-0.6,0.6-1.1,1.2-1.1v6.8c0,0.6,0.3,1.2,0.7,1.7
	C17.3,24.9,17.9,25.2,18.5,25.1L18.5,25.1z"/>
</svg>
