<svg width="40" height="40" viewBox="0 0 40 40" fill="none" xmlns="http://www.w3.org/2000/svg">
<circle cx="20" cy="20" r="19.25" fill="white" stroke="#E81D2C" stroke-width="1.5"/>
<circle cx="20" cy="20" r="15" fill="#E81D2C"/>
<g clip-path="url(#clip0)">
<path d="M24.1875 23C22.6369 23 21.375 21.7381 21.375 20.1875C21.375 18.6369 22.6369 17.375 24.1875 17.375H25.75V16.5938C25.75 15.6456 24.9794 14.875 24.0312 14.875H13.7188C12.7706 14.875 12 15.6456 12 16.5938V24.4062C12 25.3544 12.7706 26.125 13.7188 26.125H24.0312C24.9794 26.125 25.75 25.3544 25.75 24.4062V23H24.1875Z" fill="white"/>
<path d="M26.5312 18.3125H24.1875C23.1537 18.3125 22.3125 19.1537 22.3125 20.1875C22.3125 21.2212 23.1537 22.0625 24.1875 22.0625H26.5312C26.79 22.0625 27 21.8525 27 21.5937V18.7812C27 18.5225 26.79 18.3125 26.5312 18.3125ZM24.1875 20.8125C23.8425 20.8125 23.5625 20.5325 23.5625 20.1875C23.5625 19.8425 23.8425 19.5625 24.1875 19.5625C24.5325 19.5625 24.8125 19.8425 24.8125 20.1875C24.8125 20.5325 24.5325 20.8125 24.1875 20.8125Z" fill="white"/>
</g>
<defs>
<clipPath id="clip0">
<rect width="15" height="15" fill="white" transform="translate(12 13)"/>
</clipPath>
</defs>
</svg>
