<svg width="15" height="15" viewBox="0 0 15 15" fill="none" xmlns="http://www.w3.org/2000/svg">
<g clip-path="url(#clip0)">
<path d="M12.1875 10C10.6369 10 9.375 8.73812 9.375 7.1875C9.375 5.63688 10.6369 4.375 12.1875 4.375H13.75V3.59375C13.75 2.64562 12.9794 1.875 12.0312 1.875H1.71875C0.770625 1.875 0 2.64562 0 3.59375V11.4062C0 12.3544 0.770625 13.125 1.71875 13.125H12.0312C12.9794 13.125 13.75 12.3544 13.75 11.4062V10H12.1875Z" fill="#FF8992"/>
<path d="M14.5312 5.31244H12.1875C11.1537 5.31244 10.3125 6.15369 10.3125 7.18744C10.3125 8.22119 11.1537 9.06244 12.1875 9.06244H14.5312C14.79 9.06244 15 8.85244 15 8.59369V5.78119C15 5.52244 14.79 5.31244 14.5312 5.31244ZM12.1875 7.81244C11.8425 7.81244 11.5625 7.53244 11.5625 7.18744C11.5625 6.84244 11.8425 6.56244 12.1875 6.56244C12.5325 6.56244 12.8125 6.84244 12.8125 7.18744C12.8125 7.53244 12.5325 7.81244 12.1875 7.81244Z" fill="#FF8992"/>
</g>
<defs>
<clipPath id="clip0">
<rect width="15" height="15" fill="white"/>
</clipPath>
</defs>
</svg>
