<svg width="40" height="40" viewBox="0 0 40 40" fill="none" xmlns="http://www.w3.org/2000/svg">
<circle cx="20" cy="20" r="19.25" fill="white" stroke="#FF8992" stroke-width="1.5"/>
<g clip-path="url(#clip0)">
<path d="M24.1875 23C22.6369 23 21.375 21.7381 21.375 20.1875C21.375 18.6369 22.6369 17.375 24.1875 17.375H25.75V16.5938C25.75 15.6456 24.9794 14.875 24.0312 14.875H13.7188C12.7706 14.875 12 15.6456 12 16.5938V24.4062C12 25.3544 12.7706 26.125 13.7188 26.125H24.0312C24.9794 26.125 25.75 25.3544 25.75 24.4062V23H24.1875Z" fill="#FF8992"/>
<path d="M26.5312 18.3124H24.1875C23.1537 18.3124 22.3125 19.1537 22.3125 20.1874C22.3125 21.2212 23.1537 22.0624 24.1875 22.0624H26.5312C26.79 22.0624 27 21.8524 27 21.5937V18.7812C27 18.5224 26.79 18.3124 26.5312 18.3124ZM24.1875 20.8124C23.8425 20.8124 23.5625 20.5324 23.5625 20.1874C23.5625 19.8424 23.8425 19.5624 24.1875 19.5624C24.5325 19.5624 24.8125 19.8424 24.8125 20.1874C24.8125 20.5324 24.5325 20.8124 24.1875 20.8124Z" fill="#FF8992"/>
</g>
<circle cx="20" cy="20" r="19.25" fill="white" stroke="#FF8992" stroke-width="1.5"/>
<g clip-path="url(#clip1)">
<path d="M24.1875 23C22.6369 23 21.375 21.7381 21.375 20.1875C21.375 18.6369 22.6369 17.375 24.1875 17.375H25.75V16.5938C25.75 15.6456 24.9794 14.875 24.0312 14.875H13.7188C12.7706 14.875 12 15.6456 12 16.5938V24.4062C12 25.3544 12.7706 26.125 13.7188 26.125H24.0312C24.9794 26.125 25.75 25.3544 25.75 24.4062V23H24.1875Z" fill="#FF8992"/>
<path d="M26.5312 18.3124H24.1875C23.1537 18.3124 22.3125 19.1537 22.3125 20.1874C22.3125 21.2212 23.1537 22.0624 24.1875 22.0624H26.5312C26.79 22.0624 27 21.8524 27 21.5937V18.7812C27 18.5224 26.79 18.3124 26.5312 18.3124ZM24.1875 20.8124C23.8425 20.8124 23.5625 20.5324 23.5625 20.1874C23.5625 19.8424 23.8425 19.5624 24.1875 19.5624C24.5325 19.5624 24.8125 19.8424 24.8125 20.1874C24.8125 20.5324 24.5325 20.8124 24.1875 20.8124Z" fill="#FF8992"/>
</g>
<defs>
<clipPath id="clip0">
<rect width="15" height="15" fill="white" transform="translate(12 13)"/>
</clipPath>
<clipPath id="clip1">
<rect width="15" height="15" fill="white" transform="translate(12 13)"/>
</clipPath>
</defs>
</svg>
