<svg width="32" height="32" viewBox="0 0 32 32" fill="none" xmlns="http://www.w3.org/2000/svg">
<path d="M26.6667 2.66699H10.6667C9.196 2.66699 8 3.86299 8 5.33366V21.3337C8 22.8043 9.196 24.0003 10.6667 24.0003H26.6667C28.1373 24.0003 29.3333 22.8043 29.3333 21.3337V5.33366C29.3333 3.86299 28.1373 2.66699 26.6667 2.66699ZM10.6667 21.3337V5.33366H26.6667L26.6693 21.3337H10.6667Z" fill="#D3D3D3"/>
<path d="M5.33268 10.667H2.66602V26.667C2.66602 28.1377 3.86202 29.3337 5.33268 29.3337H21.3327V26.667H5.33268V10.667Z" fill="#D3D3D3"/>
<path d="M16 16.0003L14.6667 14.667L12 18.667H25.3333L20 10.667L16 16.0003Z" fill="#D3D3D3"/>
</svg>
