<svg width="13" height="13" viewBox="0 0 13 13" fill="none" xmlns="http://www.w3.org/2000/svg">
<g clip-path="url(#clip0)">
<path d="M11.8643 4.55121C12.2886 3.60112 12.1115 2.44773 11.3319 1.66813C10.5523 0.888536 9.39891 0.71148 8.44879 1.1357L7.3131 0L0 7.3131L1.13572 8.44882C0.711454 9.39891 0.888562 10.5523 1.66816 11.3319C2.44775 12.1115 3.60112 12.2885 4.55124 11.8643L5.68696 13.0001L13.0001 5.68698L11.8643 4.55121ZM5.00481 7.18196C4.65062 7.53615 4.07635 7.53615 3.72216 7.18196C3.36797 6.82777 3.36797 6.2535 3.72216 5.89931C4.07635 5.54512 4.65062 5.54512 5.00481 5.89931C5.35902 6.2535 5.35902 6.82777 5.00481 7.18196ZM6.40056 9.56392L5.75639 3.52603L6.59942 3.43608L7.24359 9.474L6.40056 9.56392ZM9.28299 7.10584C8.9288 7.46003 8.35453 7.46003 8.00034 7.10584C7.64615 6.75165 7.64615 6.17738 8.00034 5.82319C8.35453 5.469 8.9288 5.469 9.28299 5.82319C9.63718 6.17738 9.63718 6.75165 9.28299 7.10584Z" fill="#E81D2C"/>
</g>
<defs>
<clipPath id="clip0">
<rect width="13" height="13" fill="white"/>
</clipPath>
</defs>
</svg>
