<svg width="13" height="15" viewBox="0 0 13 15" fill="none" xmlns="http://www.w3.org/2000/svg">
<g clip-path="url(#clip0)">
<path d="M12.9022 4.1663L11.7912 1.94013C11.741 1.83972 11.6387 1.77637 11.5267 1.77637H1.47212C1.35919 1.77637 1.2561 1.84088 1.20643 1.94246C1.20643 1.94246 0.368658 3.65738 0.105265 4.16544C0.0232355 4.32313 -0.0119945 4.4895 0.00360549 4.64718C0.107566 5.71311 0.993295 6.51689 2.06355 6.51689C2.50222 6.51689 2.91778 6.38033 3.26694 6.1263C3.6395 6.72725 4.30169 7.10946 5.02079 7.10946C5.58362 7.10946 6.11357 6.88145 6.49941 6.48563C6.88522 6.88145 7.41515 7.10946 7.97801 7.10946C8.69711 7.10946 9.35932 6.72724 9.73186 6.1263C10.081 6.38033 10.4966 6.51689 10.9353 6.51689C12.0139 6.51689 12.9002 5.70617 12.997 4.63155C13.0108 4.47906 12.9779 4.31818 12.9022 4.1663Z" fill="#3C4252"/>
<path d="M1.53173 1.18406H11.4687C11.5648 1.18406 11.6548 1.13721 11.7102 1.0586C11.7653 0.980255 11.7792 0.879666 11.7471 0.788885C11.5798 0.317109 11.1334 0 10.6366 0H2.36383C1.867 0 1.42063 0.317122 1.25329 0.788885C1.22127 0.879666 1.23513 0.980255 1.29022 1.0586C1.34562 1.13721 1.43563 1.18406 1.53173 1.18406Z" fill="#3C4252"/>
<path d="M8.31334 8.5887H11.8174V7.3306C11.8174 7.24186 11.7776 7.15744 11.7089 7.10134C11.6399 7.04499 11.5496 7.02273 11.4628 7.04062C10.9934 7.13573 10.5032 7.10306 10.0473 6.94031C9.94485 6.90332 9.83088 6.92615 9.75011 6.99901C8.90816 7.75985 7.6124 7.88876 6.64724 7.32999C6.55548 7.2768 6.44296 7.2768 6.35121 7.32999C5.38579 7.88848 4.0897 7.75928 3.24835 6.99901C3.16696 6.92615 3.0527 6.90359 2.95117 6.94031C2.49558 7.10306 2.00627 7.13573 1.53625 7.04062C1.4497 7.02355 1.3594 7.04526 1.29015 7.10134C1.22149 7.15744 1.18164 7.24181 1.18164 7.33057V11.8306C1.18164 12.4836 1.71166 13.0147 2.36347 13.0147H6.20436C6.36768 13.0147 6.49984 12.8823 6.49984 12.7186V8.8799C6.49984 8.71658 6.63227 8.58386 6.7953 8.58386L8.31334 8.5887ZM5.31802 10.6466C5.31802 10.8101 5.18572 10.9426 5.02254 10.9426H3.24982C3.08665 10.9426 2.95436 10.8101 2.95436 10.6466V8.87048C2.95436 8.70697 3.08665 8.57446 3.24982 8.57446H5.02254C5.18573 8.57446 5.31802 8.70697 5.31802 8.87048V10.6466Z" fill="#3C4252"/>
<path d="M12.4155 10.5619C12.2773 10.3207 11.9404 10.2561 11.7263 10.4563C11.6462 10.5317 11.5099 10.5256 11.4274 10.4474C11.3289 10.3542 11.2208 10.2706 11.1057 10.1991C11.0031 10.1354 10.9665 10.0116 11.0197 9.91119C11.0834 9.79159 11.0888 9.6516 11.0346 9.52745C10.9795 9.4012 10.8712 9.30883 10.7374 9.27365C10.5173 9.21604 10.2909 9.18598 10.0643 9.18458C10.0031 9.18429 9.94393 9.19576 9.88829 9.21886C9.6871 9.30228 9.57658 9.51593 9.62536 9.72687C9.651 9.83775 9.58203 9.94888 9.4666 9.98271C9.33857 10.0205 9.21091 10.0735 9.09386 10.1373C8.98875 10.1949 8.86117 10.1652 8.80108 10.0687C8.6868 9.88488 8.45793 9.81196 8.25675 9.89538C8.20109 9.91845 8.1511 9.95224 8.10826 9.99563C7.9487 10.1572 7.80962 10.3385 7.69464 10.5353C7.62498 10.6549 7.61353 10.7969 7.6635 10.9251C7.71279 11.0515 7.81527 11.1465 7.94489 11.1864C8.0535 11.2195 8.1145 11.3332 8.08699 11.4506C8.05596 11.5827 8.03824 11.7185 8.0343 11.8542C8.03109 11.9679 7.94853 12.0682 7.82648 12.0722C7.77315 12.0741 7.72141 12.0852 7.67268 12.1054C7.46771 12.1904 7.35756 12.4179 7.41598 12.635C7.44584 12.7448 7.48299 12.8544 7.52655 12.9598C7.5701 13.0652 7.62107 13.169 7.67761 13.2678C7.81554 13.5088 8.15221 13.5735 8.36689 13.3733C8.44675 13.2981 8.58329 13.3041 8.66575 13.3822C8.76427 13.4754 8.87236 13.559 8.9875 13.6306C9.09006 13.6942 9.12672 13.8181 9.07347 13.9185C9.00973 14.0381 9.00435 14.1781 9.05857 14.3022C9.11368 14.4285 9.22196 14.5208 9.35579 14.556C9.57587 14.6136 9.80228 14.6437 10.0289 14.6451C10.0901 14.6454 10.1492 14.6339 10.2049 14.6108C10.4061 14.5274 10.5166 14.3137 10.4678 14.1028C10.4422 13.9919 10.5118 13.8817 10.6266 13.847C10.7544 13.8092 10.8821 13.7563 10.9993 13.6924C11.1052 13.6354 11.232 13.6644 11.2921 13.761C11.4064 13.9448 11.6352 14.0175 11.8364 13.9343C11.8921 13.9112 11.9421 13.8774 11.9849 13.834C12.1443 13.6726 12.2836 13.4911 12.3984 13.2944C12.468 13.1748 12.4797 13.0327 12.4297 12.9046C12.3804 12.7782 12.2779 12.6831 12.1483 12.6432C12.0397 12.6102 11.9787 12.4964 12.0062 12.3791C12.0372 12.2469 12.055 12.1112 12.0589 11.9755C12.062 11.8616 12.1449 11.7614 12.2667 11.7575C12.3201 11.7558 12.3719 11.7447 12.4206 11.7245C12.6256 11.6395 12.7357 11.4119 12.6773 11.1949C12.6469 11.0838 12.61 10.9747 12.5667 10.8699C12.5234 10.7651 12.4725 10.6617 12.4155 10.5619ZM10.3942 12.7564C9.93095 12.9486 9.39829 12.7273 9.20654 12.2632C9.01482 11.799 9.23563 11.2653 9.69891 11.0732C10.1622 10.8811 10.6949 11.1024 10.8866 11.5665C11.0783 12.0307 10.8575 12.5644 10.3942 12.7564Z" fill="#3C4252"/>
</g>
<defs>
<clipPath id="clip0">
<rect width="13" height="14.6456" fill="white"/>
</clipPath>
</defs>
</svg>
