<svg width="40" height="40" viewBox="0 0 40 40" fill="none" xmlns="http://www.w3.org/2000/svg">
<circle cx="20" cy="20" r="19.25" fill="white" stroke="#FF8992" stroke-width="1.5"/>
<path d="M26.9941 23.6067V21.0891C26.9941 20.7142 26.8871 20.3392 26.7263 20.0178L25.1235 17.286C24.9628 16.9646 24.5879 16.7503 24.2129 16.7503H21.8025C21.4276 16.7503 21.1061 17.0717 21.1061 17.4467V23.1782H20.5705V15.679C20.5705 15.0898 20.0884 14.6077 19.4991 14.6077H12V24.2495H13.607C13.8748 23.3389 14.6783 22.6425 15.6959 22.6425C16.7137 22.6425 17.5707 23.3389 17.7851 24.2495H21.6954C21.9632 23.3389 22.7667 22.6425 23.7843 22.6425C24.6415 22.6425 25.3377 23.1246 25.6591 23.821C25.8199 24.0888 26.0836 24.2495 26.3515 24.2495C26.7263 24.2495 27.0477 23.9281 26.9941 23.6067ZM22.1774 20.4999V17.8216H24.32L25.8734 20.4999H22.1774Z" fill="#FF8992"/>
<path d="M23.7847 23.1785C22.8741 23.1785 22.1777 23.8748 22.1777 24.7854C22.1777 25.696 22.8741 26.3924 23.7847 26.3924C24.6953 26.3924 25.3917 25.696 25.3917 24.7854C25.3917 23.8748 24.6953 23.1785 23.7847 23.1785ZM23.7847 25.5353C23.3561 25.5353 23.0348 25.214 23.0348 24.7854C23.0348 24.3569 23.3562 24.0355 23.7847 24.0355C24.2133 24.0355 24.5345 24.3569 24.5345 24.7854C24.5345 25.214 24.2133 25.5353 23.7847 25.5353Z" fill="#FF8992"/>
<path d="M15.7492 23.1785C14.8386 23.1785 14.1422 23.8748 14.1422 24.7854C14.1422 25.696 14.8386 26.3924 15.7492 26.3924C16.6597 26.3924 17.3561 25.696 17.3561 24.7854C17.3561 23.8748 16.6597 23.1785 15.7492 23.1785ZM15.7492 25.5353C15.3206 25.5353 14.9993 25.214 14.9993 24.7854C14.9993 24.3569 15.3206 24.0355 15.7492 24.0355C16.1777 24.0355 16.499 24.3569 16.499 24.7854C16.499 25.214 16.1777 25.5353 15.7492 25.5353Z" fill="#FF8992"/>
<path d="M15.7495 25.0529C15.8974 25.0529 16.0173 24.933 16.0173 24.785C16.0173 24.6371 15.8974 24.5172 15.7495 24.5172C15.6016 24.5172 15.4817 24.6371 15.4817 24.785C15.4817 24.933 15.6016 25.0529 15.7495 25.0529Z" fill="#FF8992"/>
<path d="M23.7842 25.0529C23.9321 25.0529 24.052 24.933 24.052 24.785C24.052 24.6371 23.9321 24.5172 23.7842 24.5172C23.6363 24.5172 23.5164 24.6371 23.5164 24.785C23.5164 24.933 23.6363 25.0529 23.7842 25.0529Z" fill="#FF8992"/>
</svg>
