<svg width="40" height="40" viewBox="0 0 40 40" fill="none" xmlns="http://www.w3.org/2000/svg">
<circle cx="20" cy="20" r="19.25" fill="white" stroke="#E81D2C" stroke-width="1.5"/>
<circle cx="20" cy="20" r="15" fill="#E81D2C"/>
<path d="M26.9941 23.6066V21.0891C26.9941 20.7141 26.8871 20.3392 26.7263 20.0178L25.1235 17.2859C24.9628 16.9645 24.5879 16.7503 24.2129 16.7503H21.8025C21.4276 16.7503 21.1061 17.0717 21.1061 17.4466V23.1781H20.5705V15.679C20.5705 15.0898 20.0884 14.6077 19.4991 14.6077H12V24.2494H13.607C13.8748 23.3388 14.6783 22.6425 15.6959 22.6425C16.7137 22.6425 17.5707 23.3388 17.7851 24.2494H21.6954C21.9632 23.3388 22.7667 22.6425 23.7843 22.6425C24.6415 22.6425 25.3377 23.1246 25.6591 23.8209C25.8199 24.0887 26.0836 24.2494 26.3515 24.2494C26.7263 24.2494 27.0477 23.928 26.9941 23.6066ZM22.1774 20.4999V17.8216H24.32L25.8734 20.4999H22.1774Z" fill="white"/>
<path d="M23.7847 23.1785C22.8741 23.1785 22.1777 23.8748 22.1777 24.7854C22.1777 25.696 22.8741 26.3924 23.7847 26.3924C24.6953 26.3924 25.3917 25.696 25.3917 24.7854C25.3917 23.8748 24.6953 23.1785 23.7847 23.1785ZM23.7847 25.5353C23.3561 25.5353 23.0348 25.214 23.0348 24.7854C23.0348 24.3569 23.3562 24.0355 23.7847 24.0355C24.2133 24.0355 24.5345 24.3569 24.5345 24.7854C24.5345 25.214 24.2133 25.5353 23.7847 25.5353Z" fill="white"/>
<path d="M15.749 23.1785C14.8385 23.1785 14.1421 23.8748 14.1421 24.7854C14.1421 25.696 14.8385 26.3924 15.749 26.3924C16.6596 26.3924 17.356 25.696 17.356 24.7854C17.356 23.8748 16.6596 23.1785 15.749 23.1785ZM15.749 25.5353C15.3205 25.5353 14.9992 25.214 14.9992 24.7854C14.9992 24.3569 15.3205 24.0355 15.749 24.0355C16.1776 24.0355 16.4989 24.3569 16.4989 24.7854C16.4989 25.214 16.1776 25.5353 15.749 25.5353Z" fill="white"/>
<path d="M15.7495 25.053C15.8974 25.053 16.0173 24.9331 16.0173 24.7852C16.0173 24.6372 15.8974 24.5173 15.7495 24.5173C15.6016 24.5173 15.4817 24.6372 15.4817 24.7852C15.4817 24.9331 15.6016 25.053 15.7495 25.053Z" fill="white"/>
<path d="M23.7842 25.053C23.9321 25.053 24.052 24.9331 24.052 24.7852C24.052 24.6372 23.9321 24.5173 23.7842 24.5173C23.6363 24.5173 23.5164 24.6372 23.5164 24.7852C23.5164 24.9331 23.6363 25.053 23.7842 25.053Z" fill="white"/>
</svg>
