<svg width="15" height="15" viewBox="0 0 15 15" fill="none" xmlns="http://www.w3.org/2000/svg">
<path d="M14.9941 10.6067V8.08913C14.9941 7.71418 14.8871 7.33922 14.7263 7.01783L13.1235 4.28599C12.9628 3.9646 12.5879 3.75034 12.2129 3.75034H9.80249C9.42756 3.75034 9.10611 4.07173 9.10611 4.44669V10.1782H8.57045V2.67903C8.57045 2.08982 8.08843 1.60773 7.49915 1.60773H0V11.2495H1.60696C1.87479 10.3389 2.67827 9.64253 3.69594 9.64253C4.71375 9.64253 5.57073 10.3389 5.78506 11.2495H9.69536C9.96319 10.3389 10.7667 9.64253 11.7843 9.64253C12.6415 9.64253 13.3377 10.1246 13.6591 10.821C13.8199 11.0888 14.0836 11.2495 14.3515 11.2495C14.7263 11.2495 15.0477 10.9281 14.9941 10.6067ZM10.1774 7.49991V4.82165H12.32L13.8734 7.49991H10.1774Z" fill="#FF8992"/>
<path d="M11.7847 10.1785C10.8741 10.1785 10.1777 10.8748 10.1777 11.7854C10.1777 12.696 10.8741 13.3924 11.7847 13.3924C12.6953 13.3924 13.3917 12.696 13.3917 11.7854C13.3917 10.8748 12.6953 10.1785 11.7847 10.1785ZM11.7847 12.5353C11.3561 12.5353 11.0348 12.214 11.0348 11.7854C11.0348 11.3569 11.3562 11.0355 11.7847 11.0355C12.2133 11.0355 12.5345 11.3569 12.5345 11.7854C12.5345 12.214 12.2133 12.5353 11.7847 12.5353Z" fill="#FF8992"/>
<path d="M3.74917 10.1785C2.83859 10.1785 2.14221 10.8748 2.14221 11.7854C2.14221 12.696 2.83859 13.3924 3.74917 13.3924C4.65975 13.3924 5.35613 12.696 5.35613 11.7854C5.35613 10.8748 4.65975 10.1785 3.74917 10.1785ZM3.74917 12.5353C3.32062 12.5353 2.99932 12.214 2.99932 11.7854C2.99932 11.3569 3.32065 11.0355 3.74917 11.0355C4.17769 11.0355 4.49902 11.3569 4.49902 11.7854C4.49902 12.214 4.17773 12.5353 3.74917 12.5353Z" fill="#FF8992"/>
<path d="M3.74952 12.0529C3.89743 12.0529 4.01734 11.933 4.01734 11.785C4.01734 11.6371 3.89743 11.5172 3.74952 11.5172C3.6016 11.5172 3.48169 11.6371 3.48169 11.785C3.48169 11.933 3.6016 12.0529 3.74952 12.0529Z" fill="#FF8992"/>
<path d="M11.7842 12.0529C11.9321 12.0529 12.052 11.933 12.052 11.785C12.052 11.6371 11.9321 11.5172 11.7842 11.5172C11.6363 11.5172 11.5164 11.6371 11.5164 11.785C11.5164 11.933 11.6363 12.0529 11.7842 12.0529Z" fill="#FF8992"/>
</svg>
