<svg width="40" height="40" viewBox="0 0 40 40" fill="none" xmlns="http://www.w3.org/2000/svg">
<circle cx="20" cy="20" r="19.25" fill="white" stroke="#E81D2C" stroke-width="1.5"/>
<path d="M26.9941 23.6064V21.0888C26.9941 20.7139 26.8871 20.3389 26.7263 20.0175L25.1235 17.2857C24.9628 16.9643 24.5879 16.75 24.2129 16.75H21.8025C21.4276 16.75 21.1061 17.0714 21.1061 17.4464V23.1779H20.5705V15.6787C20.5705 15.0895 20.0884 14.6074 19.4991 14.6074H12V24.2492H13.607C13.8748 23.3386 14.6783 22.6422 15.6959 22.6422C16.7137 22.6422 17.5707 23.3386 17.7851 24.2492H21.6954C21.9632 23.3386 22.7667 22.6422 23.7843 22.6422C24.6415 22.6422 25.3377 23.1243 25.6591 23.8207C25.8199 24.0885 26.0836 24.2492 26.3515 24.2492C26.7263 24.2492 27.0477 23.9278 26.9941 23.6064ZM22.1774 20.4996V17.8213H24.32L25.8734 20.4996H22.1774Z" fill="#E81D2C"/>
<path d="M23.7866 23.1787C22.8761 23.1787 22.1797 23.8751 22.1797 24.7857C22.1797 25.6963 22.8761 26.3926 23.7866 26.3926C24.6972 26.3926 25.3936 25.6963 25.3936 24.7857C25.3936 23.8751 24.6972 23.1787 23.7866 23.1787ZM23.7866 25.5356C23.3581 25.5356 23.0368 25.2142 23.0368 24.7857C23.0368 24.3572 23.3581 24.0358 23.7866 24.0358C24.2152 24.0358 24.5365 24.3572 24.5365 24.7857C24.5365 25.2142 24.2152 25.5356 23.7866 25.5356Z" fill="#E81D2C"/>
<path d="M15.7476 23.1787C14.837 23.1787 14.1406 23.8751 14.1406 24.7857C14.1406 25.6963 14.837 26.3926 15.7476 26.3926C16.6582 26.3926 17.3545 25.6963 17.3545 24.7857C17.3545 23.8751 16.6582 23.1787 15.7476 23.1787ZM15.7476 25.5356C15.319 25.5356 14.9977 25.2142 14.9977 24.7857C14.9977 24.3572 15.3191 24.0358 15.7476 24.0358C16.1761 24.0358 16.4974 24.3572 16.4974 24.7857C16.4974 25.2142 16.1761 25.5356 15.7476 25.5356Z" fill="#E81D2C"/>
<path d="M15.7483 25.0532C15.8962 25.0532 16.0161 24.9333 16.0161 24.7854C16.0161 24.6375 15.8962 24.5176 15.7483 24.5176C15.6004 24.5176 15.4805 24.6375 15.4805 24.7854C15.4805 24.9333 15.6004 25.0532 15.7483 25.0532Z" fill="#E81D2C"/>
<path d="M23.7835 25.0532C23.9314 25.0532 24.0513 24.9333 24.0513 24.7854C24.0513 24.6375 23.9314 24.5176 23.7835 24.5176C23.6355 24.5176 23.5156 24.6375 23.5156 24.7854C23.5156 24.9333 23.6355 25.0532 23.7835 25.0532Z" fill="#E81D2C"/>
</svg>
