<svg width="13" height="13" viewBox="0 0 13 13" fill="none" xmlns="http://www.w3.org/2000/svg">
<g clip-path="url(#clip0)">
<path d="M3.65571 5.14592H2.84321C2.72729 5.14592 2.61679 5.09608 2.53933 5.00942L1.456 3.79066C1.30704 3.62275 1.32221 3.36654 1.49012 3.21704C1.49067 3.2165 5.00879 3.21704 5.00879 3.21704C5.17671 3.36654 5.19187 3.62275 5.04292 3.79066L3.95958 5.00942C3.88212 5.09608 3.77162 5.14592 3.65571 5.14592Z" fill="#E81D2C"/>
<path d="M3.25 7.58301C3.02575 7.58301 2.84375 7.40101 2.84375 7.17676V4.73926C2.84375 4.51501 3.02575 4.33301 3.25 4.33301C3.47425 4.33301 3.65625 4.51501 3.65625 4.73926V7.17676C3.65625 7.40101 3.47425 7.58301 3.25 7.58301Z" fill="#E81D2C"/>
<path d="M4.85392 8.67338L4.31226 7.04838C4.25701 6.88263 4.10209 6.77051 3.92713 6.77051H2.57297C2.39801 6.77051 2.24309 6.88263 2.18784 7.04838L1.64617 8.67338C1.60447 8.79742 1.62505 8.93338 1.70197 9.03901C1.77834 9.14517 1.90076 9.20801 2.0313 9.20801H4.4688C4.59934 9.20801 4.72176 9.14517 4.79813 9.03901C4.87505 8.93338 4.89563 8.79742 4.85392 8.67338Z" fill="#E81D2C"/>
<path d="M3.25 10.833C3.02575 10.833 2.84375 10.651 2.84375 10.4268V8.80176C2.84375 8.57751 3.02575 8.39551 3.25 8.39551C3.47425 8.39551 3.65625 8.57751 3.65625 8.80176V10.4268C3.65625 10.651 3.47425 10.833 3.25 10.833Z" fill="#E81D2C"/>
<path d="M3.24935 12.9997C2.42764 12.9997 1.75977 12.3318 1.75977 11.5101C1.75977 11.2858 1.94177 11.1038 2.16602 11.1038C2.39027 11.1038 2.57227 11.2858 2.57227 11.5101C2.57227 11.8833 2.87614 12.1872 3.24935 12.1872C3.62256 12.1872 3.92643 11.8833 3.92643 11.5101C3.92643 11.1369 3.62256 10.833 3.24935 10.833C3.0251 10.833 2.8431 10.651 2.8431 10.4268C2.8431 10.2025 3.0251 10.0205 3.24935 10.0205C4.07106 10.0205 4.73893 10.6884 4.73893 11.5101C4.73893 12.3318 4.07106 12.9997 3.24935 12.9997Z" fill="#E81D2C"/>
<path d="M11.1042 0H0.40625C0.182 0 0 0.182 0 0.40625V3.38542C0 3.60967 0.182 3.79167 0.40625 3.79167H11.1042C12.1496 3.79167 13 2.94125 13 1.89583C13 0.850417 12.1496 0 11.1042 0ZM8.26042 2.30208H2.03125C1.807 2.30208 1.625 2.12008 1.625 1.89583C1.625 1.67158 1.807 1.48958 2.03125 1.48958H8.26042C8.48467 1.48958 8.66667 1.67158 8.66667 1.89583C8.66667 2.12008 8.48467 2.30208 8.26042 2.30208ZM10.5625 2.4375C10.2635 2.4375 10.0208 2.19483 10.0208 1.89583C10.0208 1.59683 10.2635 1.35417 10.5625 1.35417C10.8615 1.35417 11.1042 1.59683 11.1042 1.89583C11.1042 2.19483 10.8615 2.4375 10.5625 2.4375Z" fill="#E81D2C"/>
<path d="M12.4821 8.83341L9.89672 6.24793C9.52174 5.87308 8.91185 5.87308 8.53687 6.24793L5.95153 8.83341C5.87032 8.91461 5.87032 9.04623 5.95153 9.12744C6.03261 9.20864 6.16435 9.20864 6.24543 9.12744L6.41031 8.96256V11.6053C6.41031 11.9354 6.6779 12.203 7.00799 12.203H8.04743C8.11919 12.203 8.17736 12.1448 8.17736 12.0731V10.1501C8.17736 9.79133 8.46822 9.50047 8.82701 9.50047H9.60659C9.96538 9.50047 10.2562 9.79133 10.2562 10.1501V12.0731C10.2562 12.1448 10.3144 12.203 10.3862 12.203H11.4256C11.7557 12.203 12.0233 11.9354 12.0233 11.6053V8.96256L12.1882 9.12744C12.2287 9.16798 12.282 9.18837 12.3351 9.18837C12.3883 9.18837 12.4415 9.16798 12.4821 9.12744C12.5633 9.04623 12.5633 8.91461 12.4821 8.83341Z" fill="#E81D2C"/>
</g>
<defs>
<clipPath id="clip0">
<rect width="13" height="13" fill="white"/>
</clipPath>
</defs>
</svg>
