<svg id="Layer_1" data-name="Layer 1" xmlns="http://www.w3.org/2000/svg" viewBox="0 0 40 40"><defs><style>.cls-1,.cls-3{fill:#fff;}.cls-1{stroke:#ff8992;stroke-width:1.5px;}.cls-2{fill:#ff8992;}</style></defs><circle class="cls-1" cx="20" cy="20" r="19.25"/><circle class="cls-2" cx="20" cy="20" r="15"/><path class="cls-3" d="M25.12,14.31H23.51a1.65,1.65,0,0,0-.8-.51.8.8,0,0,1-.55-.55,1.73,1.73,0,0,0-3.32,0,.82.82,0,0,1-.55.55,1.65,1.65,0,0,0-.8.51H15.88a1.15,1.15,0,0,0-1.15,1.15V25.85A1.16,1.16,0,0,0,15.88,27h9.23a1.16,1.16,0,0,0,1.16-1.15V15.46A1.15,1.15,0,0,0,25.12,14.31Zm-4.61-1.16a.58.58,0,0,1,0,1.16.58.58,0,0,1,0-1.16Zm4.61,12.7H15.88V15.46H17v1.16H24V15.46h1.16Z"/><path class="cls-3" d="M22.69,18.8,19.49,22,18.15,20.7l-.82.82,2.16,2.12,4-4Z"/></svg>