<svg width="40" height="40" viewBox="0 0 40 40" fill="none" xmlns="http://www.w3.org/2000/svg">
<circle cx="20" cy="20" r="19.25" fill="white" stroke="#E81D2C" stroke-width="1.5"/>
<path d="M25.1151 14.3077H23.5133C23.2996 14.0703 23.0251 13.8887 22.7098 13.798C22.4441 13.7216 22.2396 13.5172 22.1633 13.2515C21.9554 12.5288 21.2893 12 20.4997 12C19.7101 12 19.0441 12.5288 18.8362 13.2515C18.7597 13.5174 18.5547 13.7216 18.2888 13.7982C17.9737 13.889 17.6995 14.0705 17.486 14.3077H15.8843C15.2471 14.3077 14.7305 14.8243 14.7305 15.4615V25.8462C14.7305 26.4834 15.247 27 15.8843 27H25.115C25.7523 27 26.2689 26.4834 26.2689 25.8462V15.4615C26.2689 14.8243 25.7523 14.3077 25.1151 14.3077ZM20.5071 13.1538C20.8257 13.1538 21.084 13.4121 21.084 13.7308C21.084 14.0494 20.8257 14.3077 20.5071 14.3077C20.1885 14.3077 19.9302 14.0494 19.9302 13.7308C19.9302 13.4121 20.1885 13.1538 20.5071 13.1538ZM25.1151 25.8462H15.8843V15.4615H17.0382V16.6154H23.9613V15.4615H25.1151V25.8462Z" fill="#E81D2C"/>
<path d="M22.6949 18.8018L19.4868 22.01L18.1479 20.6995L17.332 21.5159L19.4868 23.6417L23.5108 19.6177L22.6949 18.8018Z" fill="#E81D2C"/>
</svg>
