<svg width="13" height="13" viewBox="0 0 13 13" fill="none" xmlns="http://www.w3.org/2000/svg">
<g clip-path="url(#clip0)">
<path d="M1.62383 5.95801C1.48517 5.95801 1.3465 5.90492 1.24088 5.7993C1.02908 5.58751 1.02908 5.24517 1.24088 5.03338L4.98163 1.29263C5.19342 1.08084 5.53575 1.08084 5.74754 1.29263C5.95933 1.50442 5.95933 1.84676 5.74754 2.05855L2.00679 5.7993C1.90117 5.90492 1.7625 5.95801 1.62383 5.95801Z" fill="#3C4252"/>
<path d="M6.09314 3.24935C5.98752 3.24935 5.88352 3.20818 5.80606 3.13018L3.91022 1.23435C3.79377 1.11843 3.7591 0.943474 3.82193 0.791807C3.88477 0.640141 4.03318 0.541016 4.19731 0.541016H6.09314C6.31739 0.541016 6.49939 0.723016 6.49939 0.947266V2.8431C6.49939 3.00722 6.40027 3.15564 6.2486 3.21847C6.19822 3.23906 6.14568 3.24935 6.09314 3.24935Z" fill="#3C4252"/>
<path d="M3.79102 8.26009V11.3747H0.541016V8.26009C0.541016 7.88634 0.844349 7.58301 1.2181 7.58301H3.11393C3.48768 7.58301 3.79102 7.88634 3.79102 8.26009Z" fill="#3C4252"/>
<path d="M8.125 6.0931V11.3743H4.875V6.0931C4.875 5.71935 5.17833 5.41602 5.55208 5.41602H7.44792C7.82167 5.41602 8.125 5.71935 8.125 6.0931Z" fill="#3C4252"/>
<path d="M12.459 3.92708V11.375H9.20898V3.92708C9.20898 3.55333 9.51232 3.25 9.88607 3.25H11.7819C12.1557 3.25 12.459 3.55333 12.459 3.92708Z" fill="#3C4252"/>
<path d="M12.5938 13H0.40625C0.182 13 0 12.818 0 12.5938C0 12.3695 0.182 12.1875 0.40625 12.1875H12.5938C12.818 12.1875 13 12.3695 13 12.5938C13 12.818 12.818 13 12.5938 13Z" fill="#3C4252"/>
</g>
<defs>
<clipPath id="clip0">
<rect width="13" height="13" fill="white"/>
</clipPath>
</defs>
</svg>
