<?xml version="1.0" encoding="UTF-8"?>
<!DOCTYPE svg PUBLIC "-//W3C//DTD SVG 1.1//EN" "http://www.w3.org/Graphics/SVG/1.1/DTD/svg11.dtd">
<svg xmlns="http://www.w3.org/2000/svg" version="1.1" width="960px" height="960px" style="shape-rendering:geometricPrecision; text-rendering:geometricPrecision; image-rendering:optimizeQuality; fill-rule:evenodd; clip-rule:evenodd" xmlns:xlink="http://www.w3.org/1999/xlink">
<g><path style="opacity:1" fill="#dedede" d="M -0.5,-0.5 C 319.5,-0.5 639.5,-0.5 959.5,-0.5C 959.5,319.5 959.5,639.5 959.5,959.5C 639.5,959.5 319.5,959.5 -0.5,959.5C -0.5,639.5 -0.5,319.5 -0.5,-0.5 Z"/></g>
<g><path style="opacity:1" fill="#040404" d="M 470.5,209.5 C 480.42,208.064 489.42,210.23 497.5,216C 541.667,260.167 585.833,304.333 630,348.5C 638.267,361.258 638.6,374.258 631,387.5C 617.871,400.89 603.038,403.057 586.5,394C 561,368.5 535.5,343 510,317.5C 509.667,317.833 509.333,318.167 509,318.5C 508.667,401.5 508.333,484.5 508,567.5C 501.058,587.392 487.225,594.892 466.5,590C 456.063,585.897 449.563,578.397 447,567.5C 446.667,484.5 446.333,401.5 446,318.5C 445.667,318.167 445.333,317.833 445,317.5C 419.5,343 394,368.5 368.5,394C 351.925,403.145 337.092,400.978 324,387.5C 316.709,374.848 316.709,362.181 324,349.5C 368.5,305 413,260.5 457.5,216C 461.657,213.255 465.99,211.088 470.5,209.5 Z"/></g>
<g><path style="opacity:1" fill="#5e5f5e" d="M 275.5,562.5 C 320.997,561.501 366.664,561.168 412.5,561.5C 412.5,562.5 412.5,563.5 412.5,564.5C 367.051,562.513 321.385,561.846 275.5,562.5 Z"/></g>
<g><path style="opacity:1" fill="#5e5f5e" d="M 679.5,562.5 C 633.615,561.846 587.949,562.513 542.5,564.5C 542.5,563.5 542.5,562.5 542.5,561.5C 588.336,561.168 634.003,561.501 679.5,562.5 Z"/></g>
<g><path style="opacity:1" fill="#020202" d="M 275.5,562.5 C 321.385,561.846 367.051,562.513 412.5,564.5C 415.898,591.099 429.898,609.932 454.5,621C 492.625,631.184 520.458,618.684 538,583.5C 540.008,577.143 541.508,570.81 542.5,564.5C 587.949,562.513 633.615,561.846 679.5,562.5C 706.326,567.489 723.492,583.155 731,609.5C 732.102,619.786 732.602,630.119 732.5,640.5C 737.115,673.434 725.115,697.934 696.5,714C 691.067,716.442 685.4,718.108 679.5,719C 544.833,719.667 410.167,719.667 275.5,719C 248.737,713.571 231.571,697.737 224,671.5C 222.898,661.214 222.398,650.881 222.5,640.5C 217.885,607.566 229.885,583.066 258.5,567C 263.887,564.404 269.553,562.904 275.5,562.5 Z"/></g>
<g><path style="opacity:1" fill="#dedfde" d="M 650.5,615.5 C 666.752,616.085 676.085,624.419 678.5,640.5C 676.501,655.166 668.168,663.499 653.5,665.5C 638.832,663.499 630.499,655.166 628.5,640.5C 630.242,627.099 637.576,618.766 650.5,615.5 Z"/></g>
</svg>
