<svg width="60" height="60" viewBox="0 0 60 60" fill="none" xmlns="http://www.w3.org/2000/svg">
<g opacity="0.2">
<path d="M46.8819 51.8289H37.1843H34.5729H34.009V38.8212H38.2632C39.3421 38.8212 39.9796 37.5952 39.3421 36.7125L31.0666 25.2617C30.5394 24.5261 29.4483 24.5261 28.9211 25.2617L20.6457 36.7125C20.0082 37.5952 20.6334 38.8212 21.7246 38.8212H25.9787V51.8289H25.4148H22.8034H11.5611C5.12464 51.4734 0 45.4538 0 38.9315C0 34.4321 2.43972 30.5089 6.0564 28.388C5.72538 27.493 5.55374 26.5367 5.55374 25.5314C5.55374 20.934 9.26849 17.2192 13.866 17.2192C14.859 17.2192 15.8153 17.3908 16.7103 17.7219C19.3707 12.0823 25.1083 8.17139 31.7777 8.17139C40.4087 8.18365 47.5194 14.7917 48.3286 23.2143C54.9612 24.3545 60 30.4967 60 37.4481C60 44.8776 54.2133 51.314 46.8819 51.8289Z" fill="#6E7892"/>
</g>
</svg>
