<svg width="28" height="28" viewBox="0 0 28 28" fill="none" xmlns="http://www.w3.org/2000/svg">
<g clip-path="url(#clip0)">
<path d="M20.4163 28.0002C16.235 28.0002 12.833 24.5982 12.833 20.4168C12.833 16.2355 16.235 12.8335 20.4163 12.8335C24.5977 12.8335 27.9996 16.2355 27.9996 20.4168C27.9996 24.5982 24.5977 28.0002 20.4163 28.0002ZM20.4163 14.5835C17.1998 14.5835 14.583 17.2003 14.583 20.4168C14.583 23.6333 17.1998 26.2502 20.4163 26.2502C23.6328 26.2502 26.2496 23.6333 26.2496 20.4168C26.2496 17.2003 23.6328 14.5835 20.4163 14.5835Z" fill="#B5B5C3"/>
<path d="M20.417 24.5001C19.934 24.5001 19.542 24.1081 19.542 23.6251V17.2085C19.542 16.7255 19.934 16.3335 20.417 16.3335C20.9 16.3335 21.292 16.7255 21.292 17.2085V23.6251C21.292 24.1081 20.9 24.5001 20.417 24.5001Z" fill="#B5B5C3"/>
<path d="M23.6247 21.2915H17.208C16.725 21.2915 16.333 20.8995 16.333 20.4165C16.333 19.9335 16.725 19.5415 17.208 19.5415H23.6247C24.1077 19.5415 24.4997 19.9335 24.4997 20.4165C24.4997 20.8995 24.1077 21.2915 23.6247 21.2915Z" fill="#B5B5C3"/>
<path d="M10.7217 24.5H3.20833C1.4385 24.5 0 23.0615 0 21.2917V3.20833C0 1.4385 1.4385 0 3.20833 0H16.625C18.3948 0 19.8333 1.4385 19.8333 3.20833V10.3133C19.8333 10.7963 19.4413 11.1883 18.9583 11.1883C18.4753 11.1883 18.0833 10.7963 18.0833 10.3133V3.20833C18.0833 2.4045 17.4288 1.75 16.625 1.75H3.20833C2.4045 1.75 1.75 2.4045 1.75 3.20833V21.2917C1.75 22.0955 2.4045 22.75 3.20833 22.75H10.7217C11.2047 22.75 11.5967 23.142 11.5967 23.625C11.5967 24.108 11.2047 24.5 10.7217 24.5Z" fill="#B5B5C3"/>
<path d="M15.4583 11.0835H4.375C3.892 11.0835 3.5 10.6915 3.5 10.2085C3.5 9.72548 3.892 9.33348 4.375 9.33348H15.4583C15.9413 9.33348 16.3333 9.72548 16.3333 10.2085C16.3333 10.6915 15.9413 11.0835 15.4583 11.0835Z" fill="#B5B5C3"/>
<path d="M10.7917 15.75H4.375C3.892 15.75 3.5 15.358 3.5 14.875C3.5 14.392 3.892 14 4.375 14H10.7917C11.2747 14 11.6667 14.392 11.6667 14.875C11.6667 15.358 11.2747 15.75 10.7917 15.75Z" fill="#B5B5C3"/>
<path d="M9.625 6.41651H4.375C3.892 6.41651 3.5 6.02451 3.5 5.54151C3.5 5.05851 3.892 4.66651 4.375 4.66651H9.625C10.108 4.66651 10.5 5.05851 10.5 5.54151C10.5 6.02451 10.108 6.41651 9.625 6.41651Z" fill="#B5B5C3"/>
</g>
<defs>
<clipPath id="clip0">
<rect width="28" height="28" fill="white"/>
</clipPath>
</defs>
</svg>
