<svg width="65" height="61" viewBox="0 0 65 61" fill="none" xmlns="http://www.w3.org/2000/svg">
<path d="M52.8635 15.692C52.1684 11.5618 50.1234 7.79252 46.9957 4.93214C43.5205 1.75098 39.0027 0 34.2978 0C30.6621 0 27.1201 1.04257 24.086 3.0074C21.5597 4.63808 19.4612 6.84351 17.9776 9.43656C17.336 9.31627 16.6677 9.24943 15.9994 9.24943C10.3187 9.24943 5.69402 13.8742 5.69402 19.5548C5.69402 20.2899 5.77421 20.9984 5.90788 21.6934C2.23216 24.3666 0 28.6706 0 33.2552C0 36.9576 1.37672 40.5532 3.88957 43.4002C6.46926 46.314 9.87765 48.0383 13.5133 48.2387C13.5534 48.2387 13.5801 48.2387 13.6202 48.2387H25.1152C26.1176 48.2387 26.9196 47.4368 26.9196 46.4343C26.9196 45.4318 26.1176 44.6299 25.1152 44.6299H13.6737C8.20687 44.2957 3.60888 39.0962 3.60888 33.2418C3.60888 29.4592 5.64055 25.9305 8.91528 24.0191C9.67715 23.578 9.99794 22.6558 9.70389 21.8271C9.43656 21.1053 9.3029 20.3434 9.3029 19.5281C9.3029 15.839 12.3103 12.8316 15.9994 12.8316C16.788 12.8316 17.5632 12.9652 18.285 13.2326C19.1672 13.5534 20.1429 13.1524 20.5439 12.3103C23.0434 7.00391 28.4434 3.58215 34.3111 3.58215C42.1972 3.58215 48.7066 9.49003 49.4551 17.3226C49.5353 18.138 50.1501 18.7929 50.9521 18.9266C56.9001 19.9424 61.3911 25.4359 61.3911 31.7047C61.3911 38.3477 56.1649 44.1219 49.7224 44.6165H39.8715C38.869 44.6165 38.067 45.4185 38.067 46.4209C38.067 47.4234 38.869 48.2254 39.8715 48.2254H49.7892C49.8293 48.2254 49.8694 48.2254 49.9229 48.2254C53.9996 47.9313 57.809 46.0601 60.6426 42.9324C63.4629 39.8314 65 35.8482 65 31.7047C64.9866 24.2063 59.8674 17.5365 52.8635 15.692Z" fill="#3C4252"/>
<path d="M43.333 34.9661C44.0415 34.2577 44.0415 33.1216 43.333 32.4132L33.7762 22.8563C33.442 22.5221 32.9742 22.3217 32.5064 22.3217C32.0386 22.3217 31.5708 22.5088 31.2366 22.8563L21.6797 32.4132C20.9713 33.1216 20.9713 34.2577 21.6797 34.9661C22.0273 35.3136 22.4951 35.5008 22.9495 35.5008C23.404 35.5008 23.8718 35.327 24.2193 34.9661L30.702 28.4835V58.2768C30.702 59.2793 31.5039 60.0813 32.5064 60.0813C33.5089 60.0813 34.3108 59.2793 34.3108 58.2768V28.4835L40.7935 34.9661C41.4885 35.6745 42.6246 35.6745 43.333 34.9661Z" fill="#3C4252"/>
</svg>
