<svg width="32" height="32" viewBox="0 0 32 32" fill="none" xmlns="http://www.w3.org/2000/svg">
<rect width="32" height="32" rx="4" fill="#32BEA6"/>
<g clip-path="url(#clip0)">
<path d="M24.8581 15.6385C24.6886 15.4493 20.6093 11 15.5 11C10.3907 11 6.31151 15.4493 6.14189 15.6385C5.9527 15.8499 5.9527 16.1696 6.14189 16.381C6.31151 16.5702 10.3908 21.0195 15.5 21.0195C20.6092 21.0195 24.6885 16.5702 24.8581 16.381C25.0473 16.1696 25.0473 15.8499 24.8581 15.6385ZM15.5 19.9062C13.3517 19.9062 11.6035 18.1581 11.6035 16.0098C11.6035 13.8615 13.3517 12.1133 15.5 12.1133C17.6483 12.1133 19.3965 13.8615 19.3965 16.0098C19.3965 18.1581 17.6483 19.9062 15.5 19.9062Z" fill="white"/>
<path d="M16.3398 14.6699C16.3398 14.1099 16.6178 13.6173 17.0407 13.3143C16.6612 13.12 16.238 13 15.7832 13C14.2486 13 13 14.2486 13 15.7832C13 17.3178 14.2486 18.5664 15.7832 18.5664C17.1571 18.5664 18.2943 17.5632 18.519 16.2523C17.3981 16.6132 16.3398 15.7655 16.3398 14.6699Z" fill="white"/>
</g>
<defs>
<clipPath id="clip0">
<rect width="19" height="19" fill="white" transform="translate(6 6)"/>
</clipPath>
</defs>
</svg>
