<svg width="175" height="31" viewBox="0 0 175 31" fill="none" xmlns="http://www.w3.org/2000/svg">
<path d="M47.5302 14.2451C47.5069 13.4989 47.1479 12.7266 45.9273 12.7266C44.8734 12.7266 44.371 13.4472 44.371 14.142C44.3957 15.0419 45.3536 15.5311 46.5964 15.917C48.704 16.5341 50.9762 17.2036 50.9993 20.2409C51.0473 23.1483 48.7753 25 46.0229 25C43.9899 25 41.2365 23.8679 41 20.4455H44.1333C44.2521 21.9653 45.4715 22.2737 46.0695 22.2737C47.0535 22.2737 47.8903 21.5786 47.8648 20.6263C47.8648 19.4175 46.8844 19.083 44.4668 18.1815C42.696 17.5911 41.261 16.5343 41.2365 14.5034C41.2365 11.7252 43.4142 10 45.9518 10C47.7214 10 50.3525 10.8501 50.6169 14.2451H47.5302Z" fill="#E81D2C"/>
<path d="M53.0003 5H56.3649V9.5705V11.5746C57.16 10.0834 58.856 9.44294 60.5259 9.46793C62.7117 9.46793 64.0721 10.2109 64.8946 11.4444C65.7444 12.6755 66 14.344 66 16.2453V24H62.6338V16.4005C62.6338 15.3219 62.4548 14.399 61.9916 13.7283C61.5034 13.0606 60.7309 12.6253 59.5492 12.6253C58.2148 12.6253 57.42 13.1645 56.9542 13.8585C56.4936 14.5516 56.3646 15.3984 56.3646 16.118V24H53V5H53.0003Z" fill="#E81D2C"/>
<path d="M68 17.461C68 13.8477 70.804 10 76.0006 10C81.1985 10 84 13.8476 84 17.4874C84 21.1526 81.1988 25 76.0006 25C70.804 25 68 21.1526 68 17.4874V17.461ZM71.5663 17.5115C71.5663 19.9917 73.5522 21.8246 76.0006 21.8246C78.4506 21.8246 80.4083 19.9917 80.4083 17.488C80.4083 14.9837 78.4503 13.1501 76.0006 13.1501C73.5519 13.1501 71.5663 14.984 71.5663 17.488V17.5115Z" fill="#E81D2C"/>
<path d="M86 10.4275H88.9175V12.4303C89.8435 11.0514 91.3613 10 93.5219 10C98.0766 10 100 14.0864 100 17.42C100 21.3297 97.3657 24.6119 93.5438 24.6119C91.0067 24.6119 89.6286 23.2344 89.1073 22.3562V24.1885V29H86V10.4275ZM96.8905 17.2944C96.8905 15.3135 95.538 13.0568 92.9024 13.0568C91.765 13.0568 90.7928 13.5328 90.0795 14.3111C89.3926 15.0634 88.9661 16.1405 88.9661 17.3445C88.9661 18.5215 89.3926 19.5745 90.1035 20.3265C90.8154 21.0788 91.8131 21.5549 92.9287 21.5549C95.3008 21.5549 96.8903 19.5742 96.8903 17.3172V17.2944H96.8905Z" fill="#E81D2C"/>
<path d="M133 24.5537H129.826V22.4654C129.219 23.548 127.899 25 125.055 25C120.766 25 118 21.5154 118 17.2868C118 12.5843 121.222 9.59802 125.006 9.59802C127.669 9.59802 129.168 11.0758 129.673 11.9229V9.80885V5H133V24.5537H133ZM121.324 17.2868C121.324 19.744 123.024 21.7522 125.589 21.7522C126.806 21.7522 127.899 21.2502 128.686 20.4304C129.472 19.6103 129.928 18.4747 129.878 17.2083C129.878 15.9393 129.396 14.8553 128.633 14.0881C127.874 13.2978 126.806 12.8201 125.615 12.8201C122.898 12.8201 121.324 14.9866 121.324 17.2595V17.2868Z" fill="#1C1B1A"/>
<path d="M136 10.4206H139.146V12.2008C139.753 10.9884 140.895 10.0241 143 10V13.2657H142.848C140.515 13.2657 139.323 14.3288 139.323 16.6789V24H136V10.4206Z" fill="#1C1B1A"/>
<path d="M143 17.461C143 13.8477 145.626 10 150.501 10C155.373 10 158 13.8476 158 17.4874C158 21.1526 155.373 25 150.501 25C145.626 25 143 21.1526 143 17.4874V17.461ZM146.341 17.5115C146.341 19.9917 148.204 21.8246 150.501 21.8246C152.798 21.8246 154.633 19.9917 154.633 17.488C154.633 14.9837 152.798 13.1501 150.501 13.1501C148.204 13.1501 146.341 14.984 146.341 17.488V17.5115Z" fill="#1C1B1A"/>
<path d="M160 10.4275H163.128V12.4303C164.119 11.0514 165.746 10 168.057 10C172.941 10 175 14.0864 175 17.42C175 21.3297 172.179 24.6119 168.085 24.6119C165.364 24.6119 163.89 23.2344 163.329 22.3562V24.1885V29H160V10.4275ZM171.67 17.2944C171.67 15.3135 170.22 13.0568 167.397 13.0568C166.178 13.0568 165.136 13.5328 164.372 14.3111C163.635 15.0634 163.18 16.1405 163.18 17.3445C163.18 18.5215 163.635 19.5745 164.399 20.3265C165.161 21.0788 166.229 21.5549 167.422 21.5549C169.969 21.5549 171.67 19.5742 171.67 17.3172V17.2944Z" fill="#1C1B1A"/>
<path d="M103.076 21.0524C104.926 19.4144 106.775 17.8015 108.626 16.1638C110.527 14.5238 112.042 13.2396 112.068 11.0986C112.068 9.25959 110.885 8.30226 109.32 8.30226C107.47 8.30226 106.698 9.93739 106.673 11.8549H103C103.049 10.4177 103.282 8.88069 104.334 7.49438C105.825 5.40265 108.292 5 109.651 5C113.636 5 115.897 7.6957 115.897 10.7708C115.87 12.9377 115.074 14.4747 112.84 16.5667C111.349 17.9783 109.833 19.3891 108.317 20.8252H116V24H103.076V21.0524H103.076Z" fill="#1C1B1A"/>
<path d="M17.6658 14.3538L25.9653 9.90587C25.0718 8.61825 22.5382 7.49659 19.9909 8.89586C17.4029 10.2827 17.0105 12.8707 17.6658 14.3538Z" fill="#E81D2C"/>
<path d="M31.0864 24.9945C30.4339 24.9945 18.402 25.1366 17.2789 25.0306C16.1545 24.9245 14.2209 25.0853 14.0396 23.2028C14.0396 23.2028 14.0003 21.9045 15.6252 21.8804C15.9761 21.8759 17.7809 21.8897 20.057 21.9045C17.9131 21.2429 16.0523 19.7822 14.9368 17.7869C12.6599 13.7079 13.9158 8.38166 18.345 6.00787C18.7413 5.79507 19.1459 5.62519 19.5518 5.47467C14.8796 5.50483 10.7965 5.53541 10.2829 5.53541C9.04953 5.53541 7.49127 5.46471 6.33124 3.40501C5.17135 1.346 2.28294 -1.24606 0.13886 0.671545C-0.316074 1.07849 0.422818 1.38177 1.25507 1.70133C2.09148 2.0199 3.57629 2.5538 4.48272 4.5414C5.38858 6.53027 11.6239 23.0775 12.4207 24.9245C13.2181 26.7699 15.4298 27.0189 16.2633 27.0551C17.0969 27.0896 29.9991 26.8775 30.9773 26.8775C31.9559 26.8775 32.0649 26.3089 32.1018 25.8112C32.1374 25.3146 31.739 24.9945 31.0864 24.9945Z" fill="#E81D2C"/>
<path d="M34.4548 5.42872C33.9806 5.4001 30.0549 5.41273 25.4964 5.43812C28.0394 6.34628 29.8198 8.15966 30.8653 10.674L19.0703 16.9956C20.5149 19.2105 23.3115 19.3759 25.2989 18.2771C27.0064 17.3621 27.731 15.9889 27.7406 14.4555L31.3428 12.5239C31.539 14.4915 31.1704 16.2505 30.3954 17.7193C29.6353 19.2133 28.4292 20.4046 26.9077 21.2196C26.3417 21.5224 25.7649 21.7577 25.1839 21.9308C27.968 21.9392 30.4835 21.9319 31.3107 21.8808C32.9024 21.7818 32.9732 22.0123 33.8363 19.1774C34.3635 17.4416 36.0349 8.76875 36.2166 7.4556C36.3978 6.14204 35.6154 5.49984 34.4548 5.42872Z" fill="#E81D2C"/>
<path d="M16.95 30.9995C15.63 30.9995 14.5566 29.948 14.5566 28.6549C14.5566 27.3627 15.63 26.3104 16.95 26.3104C18.2706 26.3104 19.3441 27.3627 19.3441 28.6549C19.344 29.948 18.2706 30.9995 16.95 30.9995ZM16.95 27.757C16.4454 27.757 16.034 28.1607 16.034 28.6549C16.034 29.1501 16.4454 29.5518 16.95 29.5518C17.4546 29.5518 17.8659 29.1502 17.8659 28.6549C17.8659 28.1607 17.4546 27.757 16.95 27.757Z" fill="#E81D2C"/>
<path d="M27.985 30.9995C26.6652 30.9995 25.5918 29.948 25.5918 28.6549C25.5918 27.3627 26.6652 26.3104 27.985 26.3104C29.3059 26.3104 30.3791 27.3627 30.3791 28.6549C30.3791 29.948 29.3057 30.9995 27.985 30.9995ZM27.985 27.757C27.4811 27.757 27.0697 28.1607 27.0697 28.6549C27.0697 29.1501 27.4811 29.5518 27.985 29.5518C28.4905 29.5518 28.9011 29.1502 28.9011 28.6549C28.9011 28.1607 28.4905 27.757 27.985 27.757Z" fill="#E81D2C"/>
</svg>
