<svg id="Layer_1" data-name="Layer 1" xmlns="http://www.w3.org/2000/svg" viewBox="0 0 134 24"><defs><style>.cls-1{fill:#e81d2c;}.cls-2{fill:#1c1b1a;}</style></defs><path class="cls-1" d="M7.36,14.25a1.43,1.43,0,0,0-1.6-1.52A1.42,1.42,0,0,0,4.2,14.14c0,.9,1,1.39,2.23,1.78,2.1.61,4.38,1.28,4.4,4.32a4.67,4.67,0,0,1-5,4.76,4.76,4.76,0,0,1-5-4.55H4A1.87,1.87,0,0,0,5.9,22.27a1.68,1.68,0,0,0,1.79-1.64c0-1.21-1-1.55-3.39-2.45-1.77-.59-3.21-1.65-3.23-3.68A4.47,4.47,0,0,1,5.78,10a4.38,4.38,0,0,1,4.67,4.25Z" transform="translate(-0.83 -5)"/><path class="cls-1" d="M12.83,5h3.36v6.57a4.48,4.48,0,0,1,4.17-2.1c2.18,0,3.54.74,4.36,2a8.44,8.44,0,0,1,1.11,4.81V24H22.46V16.4a4.7,4.7,0,0,0-.64-2.67,2.81,2.81,0,0,0-2.44-1.1,2.89,2.89,0,0,0-2.6,1.23,4.1,4.1,0,0,0-.59,2.26V24H12.83V5Z" transform="translate(-0.83 -5)"/><path class="cls-1" d="M27.83,17.46a7.57,7.57,0,0,1,8-7.46,7.52,7.52,0,1,1,0,15,7.58,7.58,0,0,1-8-7.51Zm3.57.05a4.42,4.42,0,1,0,4.43-4.36,4.31,4.31,0,0,0-4.43,4.36Z" transform="translate(-0.83 -5)"/><path class="cls-1" d="M45.83,10.43h2.92v2A5.33,5.33,0,0,1,53.35,10c4.56,0,6.48,4.09,6.48,7.42,0,3.91-2.63,7.19-6.46,7.19a5,5,0,0,1-4.43-2.25V29H45.83Zm10.89,6.86a4,4,0,0,0-4-4.23,3.74,3.74,0,0,0-2.82,1.25,4.47,4.47,0,0,0-1.11,3,4.34,4.34,0,0,0,1.13,3,3.9,3.9,0,0,0,2.83,1.22,4,4,0,0,0,4-4.23v0Z" transform="translate(-0.83 -5)"/><path class="cls-2" d="M92.83,24.55H89.66V22.47A5.07,5.07,0,0,1,84.88,25c-4.28,0-7-3.48-7-7.71,0-4.71,3.22-7.69,7-7.69a5.36,5.36,0,0,1,4.66,2.32V5h3.33V24.55ZM81.15,17.29a4.28,4.28,0,0,0,7.37,3.14,4.39,4.39,0,0,0,1.19-3.22,4.34,4.34,0,0,0-1.25-3.12,4.15,4.15,0,0,0-3-1.27,4.26,4.26,0,0,0-4.29,4.44Z" transform="translate(-0.83 -5)"/><path class="cls-2" d="M95.83,10.42H99V12.2a4,4,0,0,1,3.85-2.2v3.27h-.15c-2.34,0-3.53,1.06-3.53,3.41V24H95.83Z" transform="translate(-0.83 -5)"/><path class="cls-2" d="M102.83,17.46a7.5,7.5,0,0,1,15,0,7.5,7.5,0,1,1-15,0Zm3.34.05a4.15,4.15,0,1,0,8.29,0,4.15,4.15,0,1,0-8.29,0Z" transform="translate(-0.83 -5)"/><path class="cls-2" d="M119.83,10.43H123v2A5.84,5.84,0,0,1,127.89,10c4.88,0,6.94,4.09,6.94,7.42a6.92,6.92,0,0,1-6.92,7.19,5.46,5.46,0,0,1-4.75-2.25V29h-3.33Zm11.67,6.86a4.28,4.28,0,0,0-7.3-3,4.3,4.3,0,0,0-1.19,3,4.15,4.15,0,0,0,1.22,3,4.29,4.29,0,0,0,3,1.22,4.17,4.17,0,0,0,4.25-4.23Z" transform="translate(-0.83 -5)"/><path class="cls-2" d="M62.91,21.05l5.55-4.89c1.9-1.64,3.41-2.92,3.44-5.06a2.59,2.59,0,0,0-2.75-2.8c-1.85,0-2.62,1.64-2.65,3.55H62.83a7.32,7.32,0,0,1,1.33-4.36A6.51,6.51,0,0,1,69.48,5c4,0,6.25,2.7,6.25,5.77,0,2.17-.83,3.7-3.06,5.8-1.49,1.41-3,2.82-4.52,4.26h7.68V24H62.91V21.05Z" transform="translate(-0.83 -5)"/></svg>