<svg id="Layer_1" data-name="Layer 1" xmlns="http://www.w3.org/2000/svg" viewBox="0 0 608.6 859.5"><defs><style>.cls-1{fill:#e60c2b;}.cls-2{fill:#fe934b;}.cls-3{fill:#f98334;}.cls-4{fill:#fa7419;}.cls-5{fill:#ff6700;}.cls-6{isolation:isolate;}</style></defs><g id="Layer_3" data-name="Layer 3"><path class="cls-1" d="M428,534,413,736.9s0,15.1,13.7,15.1H561.5s12.5,0,12.5-17l35-469-67-88-95,98Z" transform="translate(-4 -8)"/></g><g id="Layer_2" data-name="Layer 2"><path class="cls-1" d="M56,408,31,735s-2.6,17,13.8,17H174.1s17.9,0,17.9-16l19-249L56,404Z" transform="translate(-4 -8)"/></g><g id="Layer_8" data-name="Layer 8"><path class="cls-2" d="M607,355S498,568,112,40l-7,75S331,455,539,417c0,0,50-3,68-62h0" transform="translate(-4 -8)"/></g><g id="Layer_7" data-name="Layer 7"><path class="cls-3" d="M4,122S272,410,397,435s172,82,210-80h0S530,570,181,186L15,8Z" transform="translate(-4 -8)"/></g><g id="Layer_6" data-name="Layer 6"><path class="cls-4" d="M23,276S310,557,528,480c0,0,79-14,79-125h0S548,665,36,154Z" transform="translate(-4 -8)"/></g><g id="Layer_5" data-name="Layer 5"><path class="cls-5" d="M51,404S316,605,537,510c0,0,93-46,70-155,0,0,5,325-547-46Z" transform="translate(-4 -8)"/></g><g id="Layer_9" data-name="Layer 9"><g class="cls-6"><path class="cls-1" d="M82.4,802.5a2.06,2.06,0,0,1,1.7.7,2.34,2.34,0,0,1,.7,1.7v59.2a2.06,2.06,0,0,1-.7,1.7,2.34,2.34,0,0,1-1.7.7H75a2.06,2.06,0,0,1-1.7-.7,2.34,2.34,0,0,1-.7-1.7V840H44.9v24.2a2.06,2.06,0,0,1-.7,1.7,2.34,2.34,0,0,1-1.7.7H35a2.06,2.06,0,0,1-1.7-.7,2.41,2.41,0,0,1-.7-1.8V805a2.19,2.19,0,0,1,.7-1.7,2.34,2.34,0,0,1,1.7-.7h7.4a2.06,2.06,0,0,1,1.7.7,2.34,2.34,0,0,1,.7,1.7v23.5H72.5V805a2.19,2.19,0,0,1,.7-1.7,2.34,2.34,0,0,1,1.7-.7h7.5Z" transform="translate(-4 -8)"/><path class="cls-1" d="M155.1,802.5a2.06,2.06,0,0,1,1.7.7,2.34,2.34,0,0,1,.7,1.7v37.5a30.5,30.5,0,0,1-1.6,10.3,20.7,20.7,0,0,1-4.9,7.9,22,22,0,0,1-8.2,5.1,37.32,37.32,0,0,1-22.9,0,22,22,0,0,1-8.2-5.1,20.7,20.7,0,0,1-4.9-7.9,30.5,30.5,0,0,1-1.6-10.3V805a2.19,2.19,0,0,1,.7-1.7,2.34,2.34,0,0,1,1.7-.7H115a2.06,2.06,0,0,1,1.7.7,2.34,2.34,0,0,1,.7,1.7v37.1a17.56,17.56,0,0,0,1,6.4,11.09,11.09,0,0,0,2.8,4.3,11.25,11.25,0,0,0,4.4,2.5,20,20,0,0,0,11.2,0,10.14,10.14,0,0,0,4.4-2.5,12.08,12.08,0,0,0,2.9-4.3,17.46,17.46,0,0,0,1.1-6.4V805a2.19,2.19,0,0,1,.7-1.7,2.34,2.34,0,0,1,1.7-.7h7.5Z" transform="translate(-4 -8)"/><path class="cls-1" d="M180.3,866.7a2.06,2.06,0,0,1-1.7-.7,2.34,2.34,0,0,1-.7-1.7V805a2.19,2.19,0,0,1,.7-1.7,2.34,2.34,0,0,1,1.7-.7h27a23.51,23.51,0,0,1,9.8,1.8,18.85,18.85,0,0,1,6.3,4.5,16.79,16.79,0,0,1,3.4,5.9,19,19,0,0,1,1.1,5.9,14.87,14.87,0,0,1-.7,4.9,15.93,15.93,0,0,1-1.8,3.7,18.4,18.4,0,0,1-2.1,2.5,13.34,13.34,0,0,1-1.7,1.4,20.71,20.71,0,0,1,5.2,5.4,15.55,15.55,0,0,1,2.4,8.9,18.74,18.74,0,0,1-1.3,6.9,20,20,0,0,1-3.8,6.2,17.83,17.83,0,0,1-6.2,4.4,20.94,20.94,0,0,1-8.6,1.7ZM215.6,821a6.39,6.39,0,0,0-2.2-5.3c-1.5-1.2-3.8-1.8-7-1.8H190.2V828h16.2c3.2,0,5.5-.6,7-1.8A6.07,6.07,0,0,0,215.6,821Zm-25.4,34.2h16.9c3.4,0,5.8-.7,7.4-2.2a7,7,0,0,0,2.3-5.6,7.48,7.48,0,0,0-2.4-5.7c-1.6-1.5-4-2.2-7.3-2.2H190.2Z" transform="translate(-4 -8)"/></g><g class="cls-6"><path class="cls-5" d="M275.1,830.8a10.64,10.64,0,0,0,3.5-4.5,13.48,13.48,0,0,0,.8-4.2,9.66,9.66,0,0,0-2.3-6.4c-1.5-1.7-4.1-2.6-7.6-2.6s-5.8.8-7.4,2.5a13.64,13.64,0,0,0-3.3,6.3,2.8,2.8,0,0,1-1.1,1.8,2.66,2.66,0,0,1-1.6.6h-7.2a2.4,2.4,0,0,1-2.5-2.5,21.56,21.56,0,0,1,2.1-7.8,21.85,21.85,0,0,1,4.9-6.4,21.56,21.56,0,0,1,7.2-4.3,23.48,23.48,0,0,1,8.9-1.6,23.8,23.8,0,0,1,10,1.9,22.52,22.52,0,0,1,7,4.9,20.81,20.81,0,0,1,4.1,6.6,20.31,20.31,0,0,1,1.3,7.2,29,29,0,0,1-.3,4.3,13,13,0,0,1-1.3,4.1,20.32,20.32,0,0,1-2.9,4.3,40.44,40.44,0,0,1-5.1,4.8l-16.9,15.5h25.5a2.06,2.06,0,0,1,1.7.7,2.34,2.34,0,0,1,.7,1.7v6.5a2.06,2.06,0,0,1-.7,1.7,2.34,2.34,0,0,1-1.7.7H248.1a2.06,2.06,0,0,1-1.7-.7,2.34,2.34,0,0,1-.7-1.7v-5.6a4.39,4.39,0,0,1,.9-2.7,6,6,0,0,1,1.6-1.6Z" transform="translate(-4 -8)"/></g><g class="cls-6"><path class="cls-1" d="M361.3,802.5a2.06,2.06,0,0,1,1.7.7,2.34,2.34,0,0,1,.7,1.7v59.2a2.06,2.06,0,0,1-.7,1.7,2.34,2.34,0,0,1-1.7.7h-7.4a2.06,2.06,0,0,1-1.7-.7,2.34,2.34,0,0,1-.7-1.7V840H323.8v24.2a2.06,2.06,0,0,1-.7,1.7,2.34,2.34,0,0,1-1.7.7H314a2.06,2.06,0,0,1-1.7-.7,2.41,2.41,0,0,1-.7-1.8V805a2.19,2.19,0,0,1,.7-1.7,2.34,2.34,0,0,1,1.7-.7h7.4a2.06,2.06,0,0,1,1.7.7,2.34,2.34,0,0,1,.7,1.7v23.5h27.7V805a2.19,2.19,0,0,1,.7-1.7,2.34,2.34,0,0,1,1.7-.7h7.4Z" transform="translate(-4 -8)"/><path class="cls-1" d="M382.3,826.4a31.63,31.63,0,0,1,2-9.7,22.59,22.59,0,0,1,5-7.9,23.71,23.71,0,0,1,8.2-5.3,31.82,31.82,0,0,1,11.7-2,31.34,31.34,0,0,1,11.6,1.9,23.71,23.71,0,0,1,8.2,5.3,22.59,22.59,0,0,1,5,7.9,30.45,30.45,0,0,1,2,9.7c.1,1.2.1,2.4.1,3.8v8.7c0,1.4-.1,2.7-.1,3.8a31.63,31.63,0,0,1-2,9.7,22.59,22.59,0,0,1-5,7.9,24.16,24.16,0,0,1-8.3,5.3,37,37,0,0,1-23.4,0,22.36,22.36,0,0,1-8.2-5.3,21.72,21.72,0,0,1-5-7.9,33.45,33.45,0,0,1-2-9.7c-.1-1.2-.1-2.4-.1-3.8v-8.7C382.1,828.9,382.2,827.6,382.3,826.4Zm41.4.5c-.2-4.4-1.7-7.8-4.3-10.2s-6-3.6-10.3-3.6-7.7,1.2-10.3,3.6-4,5.8-4.3,10.2c-.1,2.3-.2,4.9-.2,7.7s.1,5.4.2,7.7c.2,4.4,1.7,7.8,4.3,10.2s6,3.6,10.3,3.6,7.7-1.2,10.3-3.6,4-5.8,4.3-10.2c.1-2.3.2-4.9.2-7.7S423.9,829.2,423.7,826.9Z" transform="translate(-4 -8)"/><path class="cls-1" d="M484.6,835.2,502,805c.2-.3.7-.8,1.2-1.5a3.34,3.34,0,0,1,2.7-1h6.2a2.06,2.06,0,0,1,1.7.7,2.34,2.34,0,0,1,.7,1.7v59.2a2.06,2.06,0,0,1-.7,1.7,2.34,2.34,0,0,1-1.7.7h-7.4a2.06,2.06,0,0,1-1.7-.7,2.34,2.34,0,0,1-.7-1.7V828.3L490.4,849a5.8,5.8,0,0,1-1.3,1.5,3,3,0,0,1-2.1.8h-4.8a2.86,2.86,0,0,1-2.1-.8,8.7,8.7,0,0,1-1.3-1.5L467,828.4v35.8a2.06,2.06,0,0,1-.7,1.7,2.34,2.34,0,0,1-1.7.7h-7.4a2.06,2.06,0,0,1-1.7-.7,2.34,2.34,0,0,1-.7-1.7V805a2.19,2.19,0,0,1,.7-1.7,2.34,2.34,0,0,1,1.7-.7h6.2a3.34,3.34,0,0,1,2.7,1,18.75,18.75,0,0,1,1.2,1.5Z" transform="translate(-4 -8)"/><path class="cls-1" d="M578.1,855.2a2.06,2.06,0,0,1,1.7.7,2.34,2.34,0,0,1,.7,1.7v6.5a2.06,2.06,0,0,1-.7,1.7,2.34,2.34,0,0,1-1.7.7H537.9a2.06,2.06,0,0,1-1.7-.7,2.34,2.34,0,0,1-.7-1.7V805a2.19,2.19,0,0,1,.7-1.7,2.34,2.34,0,0,1,1.7-.7h39.5a2.06,2.06,0,0,1,1.7.7,2.34,2.34,0,0,1,.7,1.7v6.5a2.06,2.06,0,0,1-.7,1.7,2.34,2.34,0,0,1-1.7.7H547.8v14.6h27.6a2.19,2.19,0,0,1,1.7.7,2.34,2.34,0,0,1,.7,1.7v6.5a2.06,2.06,0,0,1-.7,1.7,2.34,2.34,0,0,1-1.7.7H547.8V855h30.3Z" transform="translate(-4 -8)"/></g></g><polygon class="cls-1" points="608.6 208.03 552.54 135.6 540.75 120.37 527.38 134.25 446.48 218.27 444.29 248.02 539.18 149.48 606.51 236.47 608.6 208.03"/></svg>