<svg id="Layer_1" data-name="Layer 1" xmlns="http://www.w3.org/2000/svg" viewBox="0 0 25.25 30.87"><defs><style>.cls-1{fill:#e60c2b;}.cls-2{fill:#fe934b;}.cls-3{fill:#f98334;}.cls-4{fill:#fa7419;}.cls-5{fill:#ff6700;}</style></defs><g id="Layer_3" data-name="Layer 3"><path class="cls-1" d="M23,21.82l-.62,8.42s0,.62.56.62h5.6s.52,0,.52-.7L30.52,10.7,27.74,7.05,23.8,11.12Z" transform="translate(-5.42 0)"/></g><g id="Layer_2" data-name="Layer 2"><path class="cls-1" d="M7.57,16.59l-1,13.57s-.11.7.57.7h5.36s.75,0,.75-.66L14,19.87,7.57,16.43Z" transform="translate(-5.42 0)"/></g><g id="Layer_8" data-name="Layer 8"><path class="cls-2" d="M30.43,14.39S25.91,23.23,9.9,1.33L9.61,4.44S19,18.54,27.61,17a3.38,3.38,0,0,0,2.82-2.58h0" transform="translate(-5.42 0)"/></g><g id="Layer_7" data-name="Layer 7"><path class="cls-3" d="M5.42,4.73s11.12,12,16.3,13,7.14,3.41,8.71-3.32h0s-3.19,8.92-17.67-7L5.87,0Z" transform="translate(-5.42 0)"/></g><g id="Layer_6" data-name="Layer 6"><path class="cls-4" d="M6.21,11.12s11.9,11.65,21,8.46c0,0,3.27-.58,3.27-5.19h0S28,27.26,6.75,6.06Z" transform="translate(-5.42 0)"/></g><g id="Layer_5" data-name="Layer 5"><path class="cls-5" d="M7.37,16.43s11,8.34,20.16,4.39a5.79,5.79,0,0,0,2.9-6.43s.21,13.49-22.69-1.9Z" transform="translate(-5.42 0)"/></g><polygon class="cls-1" points="25.25 8.63 22.92 5.63 22.43 4.99 21.88 5.57 18.52 9.05 18.43 10.29 22.37 6.2 25.16 9.81 25.25 8.63"/></svg>