<svg id="Layer_1" data-name="Layer 1" xmlns="http://www.w3.org/2000/svg" viewBox="0 0 527.01 250.48"><defs><style>.cls-1{fill:#e60c2b;}</style></defs><path class="cls-1" d="M102.46,271.47c-12.8-.2-25.7-1.93-37.47-8.57-12.9-7.28-20.51-18.62-24.78-32.52-.43-1.41-.05-1.66,1.2-1.88q18.17-3.21,36.31-6.53c1.36-.25,2.09-.14,2.64,1.4,3,8.37,9.19,12.93,17.73,14.47a37.5,37.5,0,0,0,16.53-.42c3.4-.91,6.36-2.51,6.82-6.53s-1.34-6.94-5.5-8.91c-5.64-2.66-11.8-3.37-17.79-4.7a175,175,0,0,1-27.3-8.22C43.59,198.17,41.36,166,54.84,148c4.93-6.58,11-11.84,18.65-14.83,20-7.83,40.3-8.26,60.41-.5,12.89,5,21.34,14.73,26.86,27.23.75,1.7.29,2.13-1.31,2.61q-15.82,4.68-31.6,9.58c-1.49.46-2,.17-2.67-1.14a24.37,24.37,0,0,0-30.1-11.21c-3.22,1.23-5.35,3.33-5.49,7-.12,3.42,1.35,5.84,4.93,7.36,7,3,14.57,3.78,21.87,5.58,6.74,1.66,13.5,3.23,20.11,5.38,19.42,6.32,30,21.79,28.6,42.14-1.21,18-11.58,29.42-26.94,37.06C127.09,269.8,115.11,271.32,102.46,271.47Z" transform="translate(-40.04 -21.26)"/><path class="cls-1" d="M337.75,253.26c-10.25,15.87-24.85,21.51-42.67,16.95-11.95-3-19.61-12.55-20.42-25.85-.4-6.43-.26-12.9-.27-19.35,0-19,0-37.94-.07-56.92,0-2.5.69-3.09,3.13-3.07q17.43.19,34.87,0c2.29,0,3,.51,3,2.92-.1,20.16-.07,40.33,0,60.49a49.84,49.84,0,0,0,.51,7.42c.58,3.8,2.54,5.46,6.4,5.83,7.66.73,13.07-4.74,13.09-13.43,0-20,.08-39.93-.06-59.89,0-2.82.82-3.38,3.45-3.35,11.42.14,22.85.11,34.27,0,2.13,0,2.86.4,2.85,2.74q-.13,49.32,0,98.63c0,2.44-.73,2.92-3,2.89q-16.23-.17-32.47,0c-2.08,0-2.7-.48-2.61-2.59C337.87,262.46,337.75,258.2,337.75,253.26Z" transform="translate(-40.04 -21.26)"/><path class="cls-1" d="M367.07,58.89Q347.71,41.46,328.28,24.1c-4.45-4-7.73-3.79-11.72.66Q284.05,61,251.61,97.29a5,5,0,0,0-1.34,3.73c.06,6.65,0,13.31,0,20s0,13.31,0,20a7.35,7.35,0,0,0,7.29,7.27c11.42,0,22.85-.16,34.26.1a9.9,9.9,0,0,0,8.24-3.7q33.74-37.76,67.49-75.47C370.53,65.84,370.34,61.84,367.07,58.89Zm-102.85,84.3a7.63,7.63,0,0,1-7.37-7.18,7.47,7.47,0,0,1,7.26-7.51,7.32,7.32,0,0,1,7.44,7.26A7.44,7.44,0,0,1,264.22,143.19Z" transform="translate(-40.04 -21.26)"/><path class="cls-1" d="M449.54,230.37c0,12-.08,24,.06,36,0,2.44-.74,2.91-3,2.88q-16.38-.17-32.76,0c-2.32,0-2.93-.56-2.92-2.91.09-23.92,0-47.85.11-71.77,0-2.31-.48-3.12-2.9-3-3.56.22-7.15,0-10.72.08-1.52,0-2-.37-2-2,.08-7.54.09-15.09,0-22.63,0-1.84.72-2.12,2.28-2.09,3.57.09,7.15-.09,10.72.08,2,.09,2.72-.45,2.65-2.59a70.46,70.46,0,0,1,.87-15.43c2.37-12.56,10.25-20.12,22.44-23,13.57-3.18,27.23-1.56,40.84.21,1.18.15,1.37.78,1.37,1.82,0,8,0,15.89,0,23.83,0,1.27-.42,1.45-1.58,1.3-3.34-.43-6.7-.75-10.06-1.06a27.54,27.54,0,0,0-4.16-.12c-8.9.6-11.61,3.67-11.57,12.67,0,1.82.43,2.37,2.29,2.34,7.24-.11,14.49,0,21.73-.1,2.12,0,2.66.6,2.62,2.67-.13,7.24-.11,14.49,0,21.74,0,1.86-.53,2.34-2.35,2.31-7-.1-14.1.09-21.14-.1-2.46-.07-2.89.73-2.86,3C449.6,206.54,449.54,218.46,449.54,230.37Z" transform="translate(-40.04 -21.26)"/><path class="cls-1" d="M539.87,230.52c0,12,0,24,0,36,0,2.07-.55,2.71-2.66,2.69-11-.1-22-.12-33.07,0-2.37,0-2.76-.82-2.75-2.93.07-23.64,0-47.28.11-70.92,0-3-.68-4.06-3.77-3.79-3.25.29-6.55,0-9.83.1-1.64,0-2.28-.44-2.26-2.18.08-7.45.07-14.9,0-22.35,0-1.71.64-2.26,2.28-2.22,3.68.08,7.36-.08,11,.06,2,.08,2.54-.65,2.51-2.57-.07-5.56-.2-11.18,1.06-16.61,2.81-12.23,11-19.37,22.91-21.93,13.28-2.86,26.66-1.39,40,.4,1.28.17,1.58.91,1.57,2.06,0,7.74,0,15.49,0,23.24,0,1.5-.52,1.76-2,1.62-5.4-.52-10.77-1.73-16.27-.82-7.14,1.18-10.63,6.29-9.09,13.33.37,1.72,1.58,1.21,2.54,1.22,7,0,13.91.1,20.86,0,2.26,0,3.12.48,3.06,2.94-.18,7.05-.14,14.11,0,21.16,0,2-.52,2.73-2.65,2.7-7-.13-13.9,0-20.85-.1-2.23-.05-2.86.56-2.84,2.81C539.93,206.48,539.87,218.5,539.87,230.52Z" transform="translate(-40.04 -21.26)"/><path class="cls-1" d="M192.33,217.83c0-7.85-.08-15.7,0-23.54,0-2.13-.6-2.72-2.67-2.63-3.57.17-7.15,0-10.73.08-1.59,0-2.27-.31-2.25-2.11q.15-11.17,0-22.35c0-1.95.73-2.31,2.44-2.26,3.58.11,7.16-.06,10.73.07,1.88.07,2.55-.42,2.57-2.45.06-9.62.37-19.25.43-28.88,0-2,.61-2.55,2.47-2.57,11.31-.12,22.63-.27,33.95-.52,2,0,2.46.63,2.45,2.52-.09,9.64,0,19.27-.09,28.91,0,2.26.45,3.11,2.9,3,5.15-.2,10.33,0,15.49-.1,2-.05,2.49.58,2.46,2.54q-.18,10.88,0,21.75c0,2-.65,2.48-2.53,2.44-5.36-.12-10.73,0-16.09-.08-1.65,0-2.24.42-2.23,2.16.1,12.42-.05,24.83.18,37.25.16,8.16,3.17,10.49,11.34,9.65a37.52,37.52,0,0,0,7.33-1.21c1.73-.54,2,.13,2,1.67-.06,8.35,0,16.69,0,25,0,1.12.11,2.09-1.48,2.35-11.91,2-23.84,3.34-35.79.7C200.5,266,193.15,257,192.46,241.07c-.33-7.74-.06-15.5-.06-23.24Z" transform="translate(-40.04 -21.26)"/></svg>